<svg width="126" height="131" viewBox="0 0 126 131" fill="none" xmlns="http://www.w3.org/2000/svg">
    <path d="M26.111 65.6632C26.111 66.7391 26.7643 67.719 27.7826 68.1033L43.4029 74.0978C48.8978 76.2112 53.2016 80.5918 55.219 86.1444L61.1558 102.495C61.1943 102.61 61.2903 102.706 61.348 102.821C61.4056 102.918 61.444 102.994 61.5017 103.09C61.5977 103.225 61.6938 103.321 61.8091 103.436C61.982 103.609 62.1933 103.744 62.4239 103.84C62.5584 103.897 62.7121 103.955 62.8466 103.955C62.9811 103.993 63.1348 104.013 63.2693 104.013L63.7304 103.955C63.8649 103.955 64.0186 103.878 64.1531 103.84C64.3836 103.744 64.595 103.59 64.7679 103.417C64.8832 103.321 64.9793 103.206 65.0753 103.09C65.133 103.014 65.1714 102.937 65.2098 102.86C65.2867 102.745 65.3827 102.629 65.4404 102.495L71.3772 86.1444C73.3754 80.5918 77.6792 76.2112 83.1741 74.0978L98.7944 68.1033C99.8127 67.719 100.485 66.7391 100.485 65.6632C100.485 64.5296 99.7359 63.5113 98.6599 63.1847L84.3846 58.6888C78.1979 56.7483 73.3178 51.9642 71.2427 45.816L65.4212 28.6394C65.3443 28.4473 65.2674 28.2744 65.1522 28.1014C65.0753 27.9862 65.0177 27.8901 64.9024 27.794C64.6911 27.5635 64.4221 27.3906 64.1147 27.2561C64.0186 27.2176 63.9225 27.1792 63.8072 27.16C63.6535 27.1024 63.4614 27.0831 63.2885 27.0831C63.1156 27.0831 62.9427 27.0831 62.7697 27.16C62.6545 27.16 62.5584 27.2176 62.4623 27.2561C62.1741 27.3713 61.9244 27.5443 61.713 27.7364C61.6169 27.8325 61.5593 27.9093 61.4825 28.0054C61.348 28.1975 61.2135 28.3896 61.1366 28.6202L55.315 45.7968C53.24 51.9258 48.3599 56.7099 42.1924 58.6696L27.917 63.1655C26.8219 63.5113 26.0918 64.5104 26.0918 65.644L26.111 65.6632Z" fill="#FFC229"/>
    <path d="M26.1113 41.2815C26.1113 41.5313 26.265 41.7426 26.4956 41.8387L30.0308 43.2028C31.2797 43.6832 32.2403 44.6822 32.7014 45.9311L34.0464 49.6392C34.0464 49.6392 34.0848 49.6777 34.0848 49.7161C34.0848 49.7353 34.104 49.7545 34.1232 49.7737C34.1424 49.7929 34.1616 49.8314 34.2001 49.8506C34.2385 49.889 34.2961 49.9274 34.3346 49.9467C34.373 49.9467 34.3922 49.9659 34.4306 49.9659C34.4691 49.9659 34.4883 49.9659 34.5267 49.9659H34.6228C34.6228 49.9659 34.6804 49.9467 34.7188 49.9274C34.7765 49.9082 34.8149 49.8698 34.8533 49.8314C34.8725 49.8122 34.8917 49.7929 34.9302 49.7545C34.9302 49.7545 34.9494 49.7161 34.9686 49.6969C34.9686 49.6777 35.007 49.6392 35.0262 49.62L36.3712 45.9119C36.8323 44.663 37.7929 43.6639 39.0418 43.1836L42.577 41.8195C42.8076 41.7234 42.9613 41.5121 42.9613 41.2623C42.9613 41.0125 42.7884 40.782 42.5578 40.7051L39.33 39.6868C37.9274 39.2449 36.8323 38.169 36.3519 36.7664L35.0455 32.8854C35.0455 32.8854 35.007 32.8085 34.9878 32.7701C34.9878 32.7509 34.9494 32.7316 34.9302 32.6932C34.8725 32.6356 34.8149 32.5972 34.7573 32.5779C34.738 32.5779 34.7188 32.5779 34.6804 32.5587C34.642 32.5587 34.6035 32.5587 34.5651 32.5587C34.5267 32.5587 34.4883 32.5587 34.4498 32.5587C34.4306 32.5587 34.3922 32.5587 34.373 32.5779C34.3154 32.5972 34.2577 32.6356 34.2001 32.6932C34.1809 32.7124 34.1616 32.7317 34.1424 32.7509C34.104 32.7893 34.0848 32.8469 34.0656 32.8854L32.7591 36.7664C32.298 38.1498 31.1836 39.2449 29.781 39.6868L26.5532 40.7051C26.3035 40.782 26.1305 41.0125 26.1305 41.2623L26.1113 41.2815Z" fill="#5638FF"/>
    <path d="M83.6348 92.3695C83.6348 92.6193 83.7885 92.8306 84.019 92.9267L87.5543 94.2908C88.8031 94.7712 89.7638 95.7702 90.2249 97.0191L91.5698 100.727C91.5698 100.727 91.6082 100.766 91.6082 100.804C91.6082 100.823 91.6274 100.843 91.6467 100.862C91.6659 100.881 91.6851 100.919 91.7235 100.939C91.7619 100.977 91.8196 101.015 91.858 101.035C91.8964 101.035 91.9156 101.054 91.9541 101.054C91.9925 101.054 92.0117 101.054 92.0501 101.054H92.1462C92.1462 101.054 92.2038 101.035 92.2423 101.015C92.2999 100.996 92.3383 100.958 92.3768 100.919C92.396 100.9 92.4152 100.881 92.4536 100.843C92.4536 100.843 92.4728 100.804 92.492 100.785C92.492 100.766 92.5305 100.727 92.5497 100.708L93.8946 96.9999C94.3557 95.751 95.3164 94.7519 96.5652 94.2716L100.1 92.9075C100.331 92.8114 100.485 92.6001 100.485 92.3503C100.485 92.1005 100.312 91.87 100.062 91.7931L96.8342 90.7748C95.4317 90.3329 94.3365 89.257 93.8562 87.8544L92.5497 83.9734C92.5497 83.9734 92.5113 83.8965 92.492 83.8581C92.492 83.8389 92.4536 83.8004 92.4344 83.7812C92.396 83.7236 92.3191 83.6852 92.2615 83.6659C92.2423 83.6659 92.2231 83.6659 92.1846 83.6467C92.1462 83.6467 92.1078 83.6467 92.0693 83.6467C92.0309 83.6467 91.9925 83.6467 91.9541 83.6467C91.9349 83.6467 91.9156 83.6467 91.8772 83.6659C91.8196 83.6852 91.7619 83.7236 91.7043 83.7812C91.6851 83.8004 91.6659 83.8196 91.6467 83.8389C91.6082 83.8773 91.589 83.9349 91.5698 83.9734L90.2633 87.8544C89.8022 89.2378 88.6878 90.3329 87.2853 90.7748L84.0575 91.7931C83.8077 91.87 83.6348 92.1005 83.6348 92.3503V92.3695Z" fill="#5441FF"/>
</svg>
