<svg width="367" height="615" viewBox="5 0 367 610" fill="none" xmlns="http://www.w3.org/2000/svg">
    <g opacity="0.16" clip-path="url(#clip0_1_2)">
        <mask id="mask0_1_2" style="mask-type:luminance" maskUnits="userSpaceOnUse" x="94" y="-331" width="368" height="936">
            <path d="M462 605L462 -331L94 -331L94 605L462 605Z" fill="white"/>
        </mask>
        <g mask="url(#mask0_1_2)">
            <path d="M322.029 -893.352C301.526 -830.954 218.726 -706.154 219.514 -581.352C220.303 -456.554 337.406 -394.154 325.971 -269.352C314.537 -144.554 161.817 -82.154 162.343 42.6484C162.869 167.446 329.914 242.176 328.6 354.648C327.286 467.115 190.337 554.93 155.771 605" stroke="#3379C2" stroke-opacity="0.58" stroke-width="2"/>
            <path d="M245.8 -911.635C271.954 -849.232 394.971 -724.432 376.571 -599.635C358.171 -474.832 158.663 -412.432 153.8 -287.635C148.937 -162.832 353.44 -100.432 352.257 24.3648C351.074 149.168 154.983 220.239 147.886 336.365C140.789 452.49 282.994 551.271 316.771 605" stroke="#3379C2" stroke-opacity="0.58" stroke-width="2"/>
            <path d="M136.714 -588.559C181.794 -526.156 345.423 -401.356 362.114 -276.559C378.806 -151.756 218.331 -89.356 220.171 35.4414C222.011 160.244 380.909 222.644 371.314 347.441C361.72 472.244 179.429 607.931 172.2 659.441C164.971 710.95 302.577 615.887 335.171 605" stroke="#3379C2" stroke-opacity="0.58" stroke-width="2"/>
            <path d="M363.429 -642.662C318.086 -580.262 133.297 -455.462 136.714 -330.662C140.131 -205.862 354.491 -143.462 380.514 -18.6624C406.537 106.138 277.08 168.538 266.828 293.338C256.577 418.138 353.44 543.003 329.257 605.338C305.074 667.673 182.583 605.065 145.914 605" stroke="#3379C2" stroke-opacity="0.58" stroke-width="2"/>
        </g>
    </g>
    <g opacity="0.16" clip-path="url(#clip1_1_2)">
        <mask id="mask1_1_2" style="mask-type:luminance" maskUnits="userSpaceOnUse" x="-80" y="-321" width="362" height="926">
            <path d="M282 605L282 -321L-80.0001 -321L-80.0001 605L282 605Z" fill="white"/>
        </mask>
        <g mask="url(#mask1_1_2)">
            <path d="M144.311 -877.344C124.142 -815.613 42.692 -692.146 43.4677 -568.677C44.2434 -445.213 159.437 -383.479 148.189 -260.01C136.941 -136.546 -13.2887 -74.8127 -12.7716 48.6564C-12.2545 172.121 152.068 246.053 150.775 357.323C149.482 468.589 14.7662 555.465 -19.2359 605" stroke="#3379C2" stroke-opacity="0.58" stroke-width="2"/>
            <path d="M69.3252 -895.432C95.0531 -833.695 216.064 -710.229 197.964 -586.765C179.864 -463.295 -16.3913 -401.562 -21.1749 -278.098C-25.9584 -154.629 175.21 -92.8953 174.047 30.5682C172.883 154.038 -20.0113 224.35 -26.9927 339.235C-33.9742 454.12 105.913 551.845 139.139 605" stroke="#3379C2" stroke-opacity="0.58" stroke-width="2"/>
            <path d="M-37.9822 -575.807C6.36282 -514.071 167.324 -390.604 183.743 -267.14C200.162 -143.671 42.3042 -81.9377 44.1142 41.5264C45.9242 164.996 202.231 226.729 192.793 350.193C183.355 473.662 4.03563 607.9 -3.07508 658.86C-10.1858 709.818 125.176 615.771 157.239 605" stroke="#3379C2" stroke-opacity="0.58" stroke-width="2"/>
            <path d="M185.036 -629.333C140.432 -567.599 -41.3435 -444.132 -37.9821 -320.666C-34.6207 -197.199 176.244 -135.466 201.843 -11.9995C227.441 111.468 100.095 173.201 90.0107 296.667C79.9264 420.134 175.21 543.665 151.421 605.334C127.633 667.003 7.13856 605.064 -28.9322 605" stroke="#3379C2" stroke-opacity="0.58" stroke-width="2"/>
        </g>
    </g>
    <defs>
        <clipPath id="clip0_1_2">
            <rect width="936" height="368" fill="white" transform="translate(462 -331) rotate(90)"/>
        </clipPath>
        <clipPath id="clip1_1_2">
            <rect width="946" height="368" fill="white" transform="translate(285 -331) rotate(90)"/>
        </clipPath>
    </defs>
</svg>
