<svg xmlns="http://www.w3.org/2000/svg" version="1.1" xmlns:xlink="http://www.w3.org/1999/xlink"
     xmlns:svgjs="http://svgjs.dev/svgjs" width="1440" height="560" preserveAspectRatio="none" viewBox="0 0 1440 560">
    <g mask="url(&quot;#SvgjsMask1002&quot;)" fill="none">
        <g mask="url(&quot;#SvgjsMask1003&quot;)">
            <path d="M270 210L490 430L650 430" stroke-width="3.33" stroke="rgba(82, 34, 88, 1)"></path>
            <path d="M265 210 a5 5 0 1 0 10 0 a5 5 0 1 0 -10 0zM645 430 a5 5 0 1 0 10 0 a5 5 0 1 0 -10 0z"
                  fill="rgba(82, 34, 88, 1)"></path>
            <path d="M1290 370L1290 530L1310 550L1430 550" stroke-width="3.33" stroke="rgba(82, 34, 88, 1)"></path>
            <path d="M1285 370 a5 5 0 1 0 10 0 a5 5 0 1 0 -10 0zM1425 550 a5 5 0 1 0 10 0 a5 5 0 1 0 -10 0z"
                  fill="rgba(82, 34, 88, 1)"></path>
            <path d="M290 50L290 10" stroke-width="3.33" stroke="rgba(82, 34, 88, 1)"></path>
            <path d="M285 50 a5 5 0 1 0 10 0 a5 5 0 1 0 -10 0zM285 10 a5 5 0 1 0 10 0 a5 5 0 1 0 -10 0z"
                  fill="rgba(82, 34, 88, 1)"></path>
            <path d="M730 370L490 370L370 250L370 230" stroke-width="3.33" stroke="rgba(82, 34, 88, 1)"></path>
            <path d="M725 370 a5 5 0 1 0 10 0 a5 5 0 1 0 -10 0zM365 230 a5 5 0 1 0 10 0 a5 5 0 1 0 -10 0z"
                  fill="rgba(82, 34, 88, 1)"></path>
            <path d="M1350 490L1350 110" stroke-width="3.33" stroke="rgba(82, 34, 88, 1)"></path>
            <path d="M1345 490 a5 5 0 1 0 10 0 a5 5 0 1 0 -10 0zM1345 110 a5 5 0 1 0 10 0 a5 5 0 1 0 -10 0z"
                  fill="rgba(82, 34, 88, 1)"></path>
            <path d="M590 530L590 450" stroke-width="3.33" stroke="rgba(82, 34, 88, 1)"></path>
            <path d="M585 530 a5 5 0 1 0 10 0 a5 5 0 1 0 -10 0zM585 450 a5 5 0 1 0 10 0 a5 5 0 1 0 -10 0z"
                  fill="rgba(82, 34, 88, 1)"></path>
            <path d="M1230 270L1330 270" stroke-width="3.33" stroke="rgba(82, 34, 88, 1)"></path>
            <path d="M1225 270 a5 5 0 1 0 10 0 a5 5 0 1 0 -10 0zM1325 270 a5 5 0 1 0 10 0 a5 5 0 1 0 -10 0z"
                  fill="rgba(82, 34, 88, 1)"></path>
            <path d="M1270 510L910 150L890 150" stroke-width="3.33" stroke="rgba(82, 34, 88, 1)"></path>
            <path d="M1265 510 a5 5 0 1 0 10 0 a5 5 0 1 0 -10 0zM885 150 a5 5 0 1 0 10 0 a5 5 0 1 0 -10 0z"
                  fill="rgba(82, 34, 88, 1)"></path>
            <path d="M1250 130L1330 210L1330 250" stroke-width="3.33" stroke="rgba(82, 34, 88, 1)"></path>
            <path d="M1245 130 a5 5 0 1 0 10 0 a5 5 0 1 0 -10 0zM1325 250 a5 5 0 1 0 10 0 a5 5 0 1 0 -10 0z"
                  fill="rgba(82, 34, 88, 1)"></path>
            <path d="M290 290L210 370L110 370L70 410L70 450L110 490L190 490" stroke-width="3.33"
                  stroke="rgba(82, 34, 88, 1)"></path>
            <path d="M285 290 a5 5 0 1 0 10 0 a5 5 0 1 0 -10 0zM185 490 a5 5 0 1 0 10 0 a5 5 0 1 0 -10 0z"
                  fill="rgba(82, 34, 88, 1)"></path>
            <path d="M710 250L610 350L530 350L390 210L370 210L330 250" stroke-width="3.33"
                  stroke="rgba(82, 34, 88, 1)"></path>
            <path d="M705 250 a5 5 0 1 0 10 0 a5 5 0 1 0 -10 0zM325 250 a5 5 0 1 0 10 0 a5 5 0 1 0 -10 0z"
                  fill="rgba(82, 34, 88, 1)"></path>
            <path d="M570 510L370 510L230 370" stroke-width="3.33" stroke="rgba(82, 34, 88, 1)"></path>
            <path d="M565 510 a5 5 0 1 0 10 0 a5 5 0 1 0 -10 0zM225 370 a5 5 0 1 0 10 0 a5 5 0 1 0 -10 0z"
                  fill="rgba(82, 34, 88, 1)"></path>
            <path d="M210 10L150 70L150 350" stroke-width="3.33" stroke="rgba(82, 34, 88, 1)"></path>
            <path d="M205 10 a5 5 0 1 0 10 0 a5 5 0 1 0 -10 0zM145 350 a5 5 0 1 0 10 0 a5 5 0 1 0 -10 0z"
                  fill="rgba(82, 34, 88, 1)"></path>
            <path d="M1330 10L1270 70L990 70L950 110" stroke-width="3.33" stroke="rgba(82, 34, 88, 1)"></path>
            <path d="M1325 10 a5 5 0 1 0 10 0 a5 5 0 1 0 -10 0zM945 110 a5 5 0 1 0 10 0 a5 5 0 1 0 -10 0z"
                  fill="rgba(82, 34, 88, 1)"></path>
            <path d="M10 10L10 390" stroke-width="3.33" stroke="rgba(82, 34, 88, 1)"></path>
            <path d="M5 10 a5 5 0 1 0 10 0 a5 5 0 1 0 -10 0zM5 390 a5 5 0 1 0 10 0 a5 5 0 1 0 -10 0z"
                  fill="rgba(82, 34, 88, 1)"></path>
            <path d="M370 350L370 410L330 450" stroke-width="3.33" stroke="rgba(82, 34, 88, 1)"></path>
            <path d="M365 350 a5 5 0 1 0 10 0 a5 5 0 1 0 -10 0zM325 450 a5 5 0 1 0 10 0 a5 5 0 1 0 -10 0z"
                  fill="rgba(82, 34, 88, 1)"></path>
            <path d="M770 210L770 310L810 350L810 370L670 510L670 550" stroke-width="3.33"
                  stroke="rgba(82, 34, 88, 1)"></path>
            <path d="M765 210 a5 5 0 1 0 10 0 a5 5 0 1 0 -10 0zM665 550 a5 5 0 1 0 10 0 a5 5 0 1 0 -10 0z"
                  fill="rgba(82, 34, 88, 1)"></path>
            <path d="M370 430L410 390L410 370L390 350" stroke-width="3.33" stroke="rgba(82, 34, 88, 1)"></path>
            <path d="M365 430 a5 5 0 1 0 10 0 a5 5 0 1 0 -10 0zM385 350 a5 5 0 1 0 10 0 a5 5 0 1 0 -10 0z"
                  fill="rgba(82, 34, 88, 1)"></path>
            <path d="M890 230L1150 490L1150 550" stroke-width="3.33" stroke="rgba(82, 34, 88, 1)"></path>
            <path d="M885 230 a5 5 0 1 0 10 0 a5 5 0 1 0 -10 0zM1145 550 a5 5 0 1 0 10 0 a5 5 0 1 0 -10 0z"
                  fill="rgba(82, 34, 88, 1)"></path>
            <path d="M1290 130L1290 110L1390 10L1430 10" stroke-width="3.33" stroke="rgba(82, 34, 88, 1)"></path>
            <path d="M1285 130 a5 5 0 1 0 10 0 a5 5 0 1 0 -10 0zM1425 10 a5 5 0 1 0 10 0 a5 5 0 1 0 -10 0z"
                  fill="rgba(82, 34, 88, 1)"></path>
            <path d="M890 350L830 350L790 310L790 190L630 30" stroke-width="3.33" stroke="rgba(82, 34, 88, 1)"></path>
            <path d="M885 350 a5 5 0 1 0 10 0 a5 5 0 1 0 -10 0zM625 30 a5 5 0 1 0 10 0 a5 5 0 1 0 -10 0z"
                  fill="rgba(82, 34, 88, 1)"></path>
            <path d="M570 310L590 330L610 330L750 190L750 170L590 10L570 10" stroke-width="3.33"
                  stroke="rgba(82, 34, 88, 1)"></path>
            <path d="M565 310 a5 5 0 1 0 10 0 a5 5 0 1 0 -10 0zM565 10 a5 5 0 1 0 10 0 a5 5 0 1 0 -10 0z"
                  fill="rgba(82, 34, 88, 1)"></path>
            <path d="M350 190L350 10" stroke-width="3.33" stroke="rgba(82, 34, 88, 1)"></path>
            <path d="M345 190 a5 5 0 1 0 10 0 a5 5 0 1 0 -10 0zM345 10 a5 5 0 1 0 10 0 a5 5 0 1 0 -10 0z"
                  fill="rgba(82, 34, 88, 1)"></path>
            <path d="M650 230L710 170L730 170" stroke-width="3.33" stroke="rgba(82, 34, 88, 1)"></path>
            <path d="M645 230 a5 5 0 1 0 10 0 a5 5 0 1 0 -10 0zM725 170 a5 5 0 1 0 10 0 a5 5 0 1 0 -10 0z"
                  fill="rgba(82, 34, 88, 1)"></path>
            <path d="M1330 50L1370 10" stroke-width="3.33" stroke="rgba(82, 34, 88, 1)"></path>
            <path d="M1325 50 a5 5 0 1 0 10 0 a5 5 0 1 0 -10 0zM1365 10 a5 5 0 1 0 10 0 a5 5 0 1 0 -10 0z"
                  fill="rgba(82, 34, 88, 1)"></path>
            <path d="M1010 530L1010 370L990 350L910 350L790 470" stroke-width="3.33"
                  stroke="rgba(82, 34, 88, 1)"></path>
            <path d="M1005 530 a5 5 0 1 0 10 0 a5 5 0 1 0 -10 0zM785 470 a5 5 0 1 0 10 0 a5 5 0 1 0 -10 0z"
                  fill="rgba(82, 34, 88, 1)"></path>
            <path d="M910 410L870 410L730 550L690 550" stroke-width="3.33" stroke="rgba(82, 34, 88, 1)"></path>
            <path d="M905 410 a5 5 0 1 0 10 0 a5 5 0 1 0 -10 0zM685 550 a5 5 0 1 0 10 0 a5 5 0 1 0 -10 0z"
                  fill="rgba(82, 34, 88, 1)"></path>
            <path d="M1150 430L1170 450L1170 550" stroke-width="3.33" stroke="rgba(82, 34, 88, 1)"></path>
            <path d="M1145 430 a5 5 0 1 0 10 0 a5 5 0 1 0 -10 0zM1165 550 a5 5 0 1 0 10 0 a5 5 0 1 0 -10 0z"
                  fill="rgba(82, 34, 88, 1)"></path>
            <path d="M830 390L850 390L870 370" stroke-width="3.33" stroke="rgba(82, 34, 88, 1)"></path>
            <path d="M825 390 a5 5 0 1 0 10 0 a5 5 0 1 0 -10 0zM865 370 a5 5 0 1 0 10 0 a5 5 0 1 0 -10 0z"
                  fill="rgba(82, 34, 88, 1)"></path>
            <path d="M1390 290L1430 330L1430 530" stroke-width="3.33" stroke="rgba(82, 34, 88, 1)"></path>
            <path d="M1385 290 a5 5 0 1 0 10 0 a5 5 0 1 0 -10 0zM1425 530 a5 5 0 1 0 10 0 a5 5 0 1 0 -10 0z"
                  fill="rgba(82, 34, 88, 1)"></path>
            <path d="M50 450L150 550L430 550" stroke-width="3.33" stroke="rgba(82, 34, 88, 1)"></path>
            <path d="M45 450 a5 5 0 1 0 10 0 a5 5 0 1 0 -10 0zM425 550 a5 5 0 1 0 10 0 a5 5 0 1 0 -10 0z"
                  fill="rgba(82, 34, 88, 1)"></path>
            <path d="M1330 310L1210 310L1150 370" stroke-width="3.33" stroke="rgba(82, 34, 88, 1)"></path>
            <path d="M1325 310 a5 5 0 1 0 10 0 a5 5 0 1 0 -10 0zM1145 370 a5 5 0 1 0 10 0 a5 5 0 1 0 -10 0z"
                  fill="rgba(82, 34, 88, 1)"></path>
            <path d="M250 450L250 410L230 390L170 390L130 430L90 430" stroke-width="3.33"
                  stroke="rgba(82, 34, 88, 1)"></path>
            <path d="M245 450 a5 5 0 1 0 10 0 a5 5 0 1 0 -10 0zM85 430 a5 5 0 1 0 10 0 a5 5 0 1 0 -10 0z"
                  fill="rgba(82, 34, 88, 1)"></path>
            <path d="M650 130L370 130" stroke-width="3.33" stroke="rgba(82, 34, 88, 1)"></path>
            <path d="M645 130 a5 5 0 1 0 10 0 a5 5 0 1 0 -10 0zM365 130 a5 5 0 1 0 10 0 a5 5 0 1 0 -10 0z"
                  fill="rgba(82, 34, 88, 1)"></path>
            <path d="M1210 150L1090 270L1050 270L870 90L830 90" stroke-width="3.33" stroke="rgba(82, 34, 88, 1)"></path>
            <path d="M1205 150 a5 5 0 1 0 10 0 a5 5 0 1 0 -10 0zM825 90 a5 5 0 1 0 10 0 a5 5 0 1 0 -10 0z"
                  fill="rgba(82, 34, 88, 1)"></path>
            <path d="M670 490L790 370L790 350L710 270" stroke-width="3.33" stroke="rgba(82, 34, 88, 1)"></path>
            <path d="M665 490 a5 5 0 1 0 10 0 a5 5 0 1 0 -10 0zM705 270 a5 5 0 1 0 10 0 a5 5 0 1 0 -10 0z"
                  fill="rgba(82, 34, 88, 1)"></path>
            <path d="M930 390L930 450L990 510L990 550" stroke-width="3.33" stroke="rgba(82, 34, 88, 1)"></path>
            <path d="M925 390 a5 5 0 1 0 10 0 a5 5 0 1 0 -10 0zM985 550 a5 5 0 1 0 10 0 a5 5 0 1 0 -10 0z"
                  fill="rgba(82, 34, 88, 1)"></path>
            <path d="M1270 550L1190 470L1190 450" stroke-width="3.33" stroke="rgba(82, 34, 88, 1)"></path>
            <path d="M1265 550 a5 5 0 1 0 10 0 a5 5 0 1 0 -10 0zM1185 450 a5 5 0 1 0 10 0 a5 5 0 1 0 -10 0z"
                  fill="rgba(82, 34, 88, 1)"></path>
            <path d="M430 530L330 530L270 470L270 430" stroke-width="3.33" stroke="rgba(82, 34, 88, 1)"></path>
            <path d="M425 530 a5 5 0 1 0 10 0 a5 5 0 1 0 -10 0zM265 430 a5 5 0 1 0 10 0 a5 5 0 1 0 -10 0z"
                  fill="rgba(82, 34, 88, 1)"></path>
            <path d="M1130 270L1090 310" stroke-width="3.33" stroke="rgba(82, 34, 88, 1)"></path>
            <path d="M1125 270 a5 5 0 1 0 10 0 a5 5 0 1 0 -10 0zM1085 310 a5 5 0 1 0 10 0 a5 5 0 1 0 -10 0z"
                  fill="rgba(82, 34, 88, 1)"></path>
            <path d="M310 150L290 170L290 210L310 230L330 230L350 210" stroke-width="3.33"
                  stroke="rgba(82, 34, 88, 1)"></path>
            <path d="M305 150 a5 5 0 1 0 10 0 a5 5 0 1 0 -10 0zM345 210 a5 5 0 1 0 10 0 a5 5 0 1 0 -10 0z"
                  fill="rgba(82, 34, 88, 1)"></path>
            <path d="M110 390L150 390" stroke-width="3.33" stroke="rgba(82, 34, 88, 1)"></path>
            <path d="M105 390 a5 5 0 1 0 10 0 a5 5 0 1 0 -10 0zM145 390 a5 5 0 1 0 10 0 a5 5 0 1 0 -10 0z"
                  fill="rgba(82, 34, 88, 1)"></path>
            <path d="M950 410L970 410L990 390L990 370" stroke-width="3.33" stroke="rgba(82, 34, 88, 1)"></path>
            <path d="M945 410 a5 5 0 1 0 10 0 a5 5 0 1 0 -10 0zM985 370 a5 5 0 1 0 10 0 a5 5 0 1 0 -10 0z"
                  fill="rgba(82, 34, 88, 1)"></path>
            <path d="M1190 490L1190 550" stroke-width="3.33" stroke="rgba(82, 34, 88, 1)"></path>
            <path d="M1185 490 a5 5 0 1 0 10 0 a5 5 0 1 0 -10 0zM1185 550 a5 5 0 1 0 10 0 a5 5 0 1 0 -10 0z"
                  fill="rgba(82, 34, 88, 1)"></path>
            <path d="M450 150L370 150" stroke-width="3.33" stroke="rgba(82, 34, 88, 1)"></path>
            <path d="M445 150 a5 5 0 1 0 10 0 a5 5 0 1 0 -10 0zM365 150 a5 5 0 1 0 10 0 a5 5 0 1 0 -10 0z"
                  fill="rgba(82, 34, 88, 1)"></path>
            <path d="M1390 430L1370 450L1370 530" stroke-width="3.33" stroke="rgba(82, 34, 88, 1)"></path>
            <path d="M1385 430 a5 5 0 1 0 10 0 a5 5 0 1 0 -10 0zM1365 530 a5 5 0 1 0 10 0 a5 5 0 1 0 -10 0z"
                  fill="rgba(82, 34, 88, 1)"></path>
            <path d="M590 70L590 110" stroke-width="3.33" stroke="rgba(82, 34, 88, 1)"></path>
            <path d="M585 70 a5 5 0 1 0 10 0 a5 5 0 1 0 -10 0zM585 110 a5 5 0 1 0 10 0 a5 5 0 1 0 -10 0z"
                  fill="rgba(82, 34, 88, 1)"></path>
            <path d="M190 230L250 290L250 310L210 350L170 350" stroke-width="3.33" stroke="rgba(82, 34, 88, 1)"></path>
            <path d="M185 230 a5 5 0 1 0 10 0 a5 5 0 1 0 -10 0zM165 350 a5 5 0 1 0 10 0 a5 5 0 1 0 -10 0z"
                  fill="rgba(82, 34, 88, 1)"></path>
            <path d="M1010 10L1010 50" stroke-width="3.33" stroke="rgba(82, 34, 88, 1)"></path>
            <path d="M1005 10 a5 5 0 1 0 10 0 a5 5 0 1 0 -10 0zM1005 50 a5 5 0 1 0 10 0 a5 5 0 1 0 -10 0z"
                  fill="rgba(82, 34, 88, 1)"></path>
            <path d="M470 170L410 170L390 190L370 190" stroke-width="3.33" stroke="rgba(82, 34, 88, 1)"></path>
            <path d="M465 170 a5 5 0 1 0 10 0 a5 5 0 1 0 -10 0zM365 190 a5 5 0 1 0 10 0 a5 5 0 1 0 -10 0z"
                  fill="rgba(82, 34, 88, 1)"></path>
            <path d="M410 10L410 110" stroke-width="3.33" stroke="rgba(82, 34, 88, 1)"></path>
            <path d="M405 10 a5 5 0 1 0 10 0 a5 5 0 1 0 -10 0zM405 110 a5 5 0 1 0 10 0 a5 5 0 1 0 -10 0z"
                  fill="rgba(82, 34, 88, 1)"></path>
            <path d="M210 290L210 330" stroke-width="3.33" stroke="rgba(82, 34, 88, 1)"></path>
            <path d="M205 290 a5 5 0 1 0 10 0 a5 5 0 1 0 -10 0zM205 330 a5 5 0 1 0 10 0 a5 5 0 1 0 -10 0z"
                  fill="rgba(82, 34, 88, 1)"></path>
            <path d="M1130 350L1130 290L1250 170L1250 150L1190 90L1070 90" stroke-width="3.33"
                  stroke="rgba(82, 34, 88, 1)"></path>
            <path d="M1125 350 a5 5 0 1 0 10 0 a5 5 0 1 0 -10 0zM1065 90 a5 5 0 1 0 10 0 a5 5 0 1 0 -10 0z"
                  fill="rgba(82, 34, 88, 1)"></path>
            <path d="M30 470L30 510L50 530L50 550" stroke-width="3.33" stroke="rgba(82, 34, 88, 1)"></path>
            <path d="M25 470 a5 5 0 1 0 10 0 a5 5 0 1 0 -10 0zM45 550 a5 5 0 1 0 10 0 a5 5 0 1 0 -10 0z"
                  fill="rgba(82, 34, 88, 1)"></path>
            <path d="M1030 150L1130 150L1170 110L1190 110L1210 130" stroke-width="3.33"
                  stroke="rgba(82, 34, 88, 1)"></path>
            <path d="M1025 150 a5 5 0 1 0 10 0 a5 5 0 1 0 -10 0zM1205 130 a5 5 0 1 0 10 0 a5 5 0 1 0 -10 0z"
                  fill="rgba(82, 34, 88, 1)"></path>
            <path d="M730 190L710 190L590 310" stroke-width="3.33" stroke="rgba(82, 34, 88, 1)"></path>
            <path d="M725 190 a5 5 0 1 0 10 0 a5 5 0 1 0 -10 0zM585 310 a5 5 0 1 0 10 0 a5 5 0 1 0 -10 0z"
                  fill="rgba(82, 34, 88, 1)"></path>
            <path d="M1010 150L1010 90" stroke-width="3.33" stroke="rgba(82, 34, 88, 1)"></path>
            <path d="M1005 150 a5 5 0 1 0 10 0 a5 5 0 1 0 -10 0zM1005 90 a5 5 0 1 0 10 0 a5 5 0 1 0 -10 0z"
                  fill="rgba(82, 34, 88, 1)"></path>
            <path d="M490 190L590 290" stroke-width="3.33" stroke="rgba(82, 34, 88, 1)"></path>
            <path d="M485 190 a5 5 0 1 0 10 0 a5 5 0 1 0 -10 0zM585 290 a5 5 0 1 0 10 0 a5 5 0 1 0 -10 0z"
                  fill="rgba(82, 34, 88, 1)"></path>
            <path d="M730 310L710 290L690 290L630 350" stroke-width="3.33" stroke="rgba(82, 34, 88, 1)"></path>
            <path d="M725 310 a5 5 0 1 0 10 0 a5 5 0 1 0 -10 0zM625 350 a5 5 0 1 0 10 0 a5 5 0 1 0 -10 0z"
                  fill="rgba(82, 34, 88, 1)"></path>
            <path d="M670 130L670 190L590 270" stroke-width="3.33" stroke="rgba(82, 34, 88, 1)"></path>
            <path d="M665 130 a5 5 0 1 0 10 0 a5 5 0 1 0 -10 0zM585 270 a5 5 0 1 0 10 0 a5 5 0 1 0 -10 0z"
                  fill="rgba(82, 34, 88, 1)"></path>
            <path d="M870 490L870 430" stroke-width="3.33" stroke="rgba(82, 34, 88, 1)"></path>
            <path d="M865 490 a5 5 0 1 0 10 0 a5 5 0 1 0 -10 0zM865 430 a5 5 0 1 0 10 0 a5 5 0 1 0 -10 0z"
                  fill="rgba(82, 34, 88, 1)"></path>
            <path d="M250 170L230 150L230 110L270 70L330 70" stroke-width="3.33" stroke="rgba(82, 34, 88, 1)"></path>
            <path d="M245 170 a5 5 0 1 0 10 0 a5 5 0 1 0 -10 0zM325 70 a5 5 0 1 0 10 0 a5 5 0 1 0 -10 0z"
                  fill="rgba(82, 34, 88, 1)"></path>
            <path d="M450 370L450 350L350 250" stroke-width="3.33" stroke="rgba(82, 34, 88, 1)"></path>
            <path d="M445 370 a5 5 0 1 0 10 0 a5 5 0 1 0 -10 0zM345 250 a5 5 0 1 0 10 0 a5 5 0 1 0 -10 0z"
                  fill="rgba(82, 34, 88, 1)"></path>
            <path d="M1050 450L1050 410L1030 390" stroke-width="3.33" stroke="rgba(82, 34, 88, 1)"></path>
            <path d="M1045 450 a5 5 0 1 0 10 0 a5 5 0 1 0 -10 0zM1025 390 a5 5 0 1 0 10 0 a5 5 0 1 0 -10 0z"
                  fill="rgba(82, 34, 88, 1)"></path>
            <path d="M410 250L450 290L450 310L490 350L510 350" stroke-width="3.33" stroke="rgba(82, 34, 88, 1)"></path>
            <path d="M405 250 a5 5 0 1 0 10 0 a5 5 0 1 0 -10 0zM505 350 a5 5 0 1 0 10 0 a5 5 0 1 0 -10 0z"
                  fill="rgba(82, 34, 88, 1)"></path>
            <path d="M750 70L810 10L990 10" stroke-width="3.33" stroke="rgba(82, 34, 88, 1)"></path>
            <path d="M745 70 a5 5 0 1 0 10 0 a5 5 0 1 0 -10 0zM985 10 a5 5 0 1 0 10 0 a5 5 0 1 0 -10 0z"
                  fill="rgba(82, 34, 88, 1)"></path>
            <path d="M1310 110L1310 170L1330 190" stroke-width="3.33" stroke="rgba(82, 34, 88, 1)"></path>
            <path d="M1305 110 a5 5 0 1 0 10 0 a5 5 0 1 0 -10 0zM1325 190 a5 5 0 1 0 10 0 a5 5 0 1 0 -10 0z"
                  fill="rgba(82, 34, 88, 1)"></path>
            <path d="M910 270L930 290L930 330" stroke-width="3.33" stroke="rgba(82, 34, 88, 1)"></path>
            <path d="M905 270 a5 5 0 1 0 10 0 a5 5 0 1 0 -10 0zM925 330 a5 5 0 1 0 10 0 a5 5 0 1 0 -10 0z"
                  fill="rgba(82, 34, 88, 1)"></path>
            <path d="M1370 370L1410 410L1410 510L1390 530" stroke-width="3.33" stroke="rgba(82, 34, 88, 1)"></path>
            <path d="M1365 370 a5 5 0 1 0 10 0 a5 5 0 1 0 -10 0zM1385 530 a5 5 0 1 0 10 0 a5 5 0 1 0 -10 0z"
                  fill="rgba(82, 34, 88, 1)"></path>
            <path d="M470 370L510 410L670 410L690 430L690 450L590 550L550 550" stroke-width="3.33"
                  stroke="rgba(82, 34, 88, 1)"></path>
            <path d="M465 370 a5 5 0 1 0 10 0 a5 5 0 1 0 -10 0zM545 550 a5 5 0 1 0 10 0 a5 5 0 1 0 -10 0z"
                  fill="rgba(82, 34, 88, 1)"></path>
            <path d="M870 290L910 330" stroke-width="3.33" stroke="rgba(82, 34, 88, 1)"></path>
            <path d="M865 290 a5 5 0 1 0 10 0 a5 5 0 1 0 -10 0zM905 330 a5 5 0 1 0 10 0 a5 5 0 1 0 -10 0z"
                  fill="rgba(82, 34, 88, 1)"></path>
            <path d="M910 50L890 70L890 90L1050 250L1090 250L1190 150L1190 130" stroke-width="3.33"
                  stroke="rgba(82, 34, 88, 1)"></path>
            <path d="M905 50 a5 5 0 1 0 10 0 a5 5 0 1 0 -10 0zM1185 130 a5 5 0 1 0 10 0 a5 5 0 1 0 -10 0z"
                  fill="rgba(82, 34, 88, 1)"></path>
            <path d="M290 470L330 510L350 510" stroke-width="3.33" stroke="rgba(82, 34, 88, 1)"></path>
            <path d="M285 470 a5 5 0 1 0 10 0 a5 5 0 1 0 -10 0zM345 510 a5 5 0 1 0 10 0 a5 5 0 1 0 -10 0z"
                  fill="rgba(82, 34, 88, 1)"></path>
            <path d="M1250 10L1310 10" stroke-width="3.33" stroke="rgba(82, 34, 88, 1)"></path>
            <path d="M1245 10 a5 5 0 1 0 10 0 a5 5 0 1 0 -10 0zM1305 10 a5 5 0 1 0 10 0 a5 5 0 1 0 -10 0z"
                  fill="rgba(82, 34, 88, 1)"></path>
            <path d="M1110 170L990 170L950 130" stroke-width="3.33" stroke="rgba(82, 34, 88, 1)"></path>
            <path d="M1105 170 a5 5 0 1 0 10 0 a5 5 0 1 0 -10 0zM945 130 a5 5 0 1 0 10 0 a5 5 0 1 0 -10 0z"
                  fill="rgba(82, 34, 88, 1)"></path>
            <path d="M470 70L430 110" stroke-width="3.33" stroke="rgba(82, 34, 88, 1)"></path>
            <path d="M465 70 a5 5 0 1 0 10 0 a5 5 0 1 0 -10 0zM425 110 a5 5 0 1 0 10 0 a5 5 0 1 0 -10 0z"
                  fill="rgba(82, 34, 88, 1)"></path>
            <path d="M90 550L50 510L50 470" stroke-width="3.33" stroke="rgba(82, 34, 88, 1)"></path>
            <path d="M85 550 a5 5 0 1 0 10 0 a5 5 0 1 0 -10 0zM45 470 a5 5 0 1 0 10 0 a5 5 0 1 0 -10 0z"
                  fill="rgba(82, 34, 88, 1)"></path>
            <path d="M1390 510L1390 450" stroke-width="3.33" stroke="rgba(82, 34, 88, 1)"></path>
            <path d="M1385 510 a5 5 0 1 0 10 0 a5 5 0 1 0 -10 0zM1385 450 a5 5 0 1 0 10 0 a5 5 0 1 0 -10 0z"
                  fill="rgba(82, 34, 88, 1)"></path>
            <path d="M90 210L90 10" stroke-width="3.33" stroke="rgba(82, 34, 88, 1)"></path>
            <path d="M85 210 a5 5 0 1 0 10 0 a5 5 0 1 0 -10 0zM85 10 a5 5 0 1 0 10 0 a5 5 0 1 0 -10 0z"
                  fill="rgba(82, 34, 88, 1)"></path>
            <path d="M110 230L110 350L10 450L10 550" stroke-width="3.33" stroke="rgba(82, 34, 88, 1)"></path>
            <path d="M105 230 a5 5 0 1 0 10 0 a5 5 0 1 0 -10 0zM5 550 a5 5 0 1 0 10 0 a5 5 0 1 0 -10 0z"
                  fill="rgba(82, 34, 88, 1)"></path>
            <path d="M630 170L570 230L570 250" stroke-width="3.33" stroke="rgba(82, 34, 88, 1)"></path>
            <path d="M625 170 a5 5 0 1 0 10 0 a5 5 0 1 0 -10 0zM565 250 a5 5 0 1 0 10 0 a5 5 0 1 0 -10 0z"
                  fill="rgba(82, 34, 88, 1)"></path>
            <path d="M810 250L810 230L870 170L890 170L1090 370L1110 370L1150 410" stroke-width="3.33"
                  stroke="rgba(82, 34, 88, 1)"></path>
            <path d="M805 250 a5 5 0 1 0 10 0 a5 5 0 1 0 -10 0zM1145 410 a5 5 0 1 0 10 0 a5 5 0 1 0 -10 0z"
                  fill="rgba(82, 34, 88, 1)"></path>
            <path d="M130 470L110 470L90 450" stroke-width="3.33" stroke="rgba(82, 34, 88, 1)"></path>
            <path d="M125 470 a5 5 0 1 0 10 0 a5 5 0 1 0 -10 0zM85 450 a5 5 0 1 0 10 0 a5 5 0 1 0 -10 0z"
                  fill="rgba(82, 34, 88, 1)"></path>
            <path d="M1110 10L1110 30L1090 50L1030 50" stroke-width="3.33" stroke="rgba(82, 34, 88, 1)"></path>
            <path d="M1105 10 a5 5 0 1 0 10 0 a5 5 0 1 0 -10 0zM1025 50 a5 5 0 1 0 10 0 a5 5 0 1 0 -10 0z"
                  fill="rgba(82, 34, 88, 1)"></path>
            <path d="M670 10L790 10" stroke-width="3.33" stroke="rgba(82, 34, 88, 1)"></path>
            <path d="M665 10 a5 5 0 1 0 10 0 a5 5 0 1 0 -10 0zM785 10 a5 5 0 1 0 10 0 a5 5 0 1 0 -10 0z"
                  fill="rgba(82, 34, 88, 1)"></path>
            <path d="M130 110L130 70L190 10" stroke-width="3.33" stroke="rgba(82, 34, 88, 1)"></path>
            <path d="M125 110 a5 5 0 1 0 10 0 a5 5 0 1 0 -10 0zM185 10 a5 5 0 1 0 10 0 a5 5 0 1 0 -10 0z"
                  fill="rgba(82, 34, 88, 1)"></path>
            <path d="M950 530L950 490L890 430" stroke-width="3.33" stroke="rgba(82, 34, 88, 1)"></path>
            <path d="M945 530 a5 5 0 1 0 10 0 a5 5 0 1 0 -10 0zM885 430 a5 5 0 1 0 10 0 a5 5 0 1 0 -10 0z"
                  fill="rgba(82, 34, 88, 1)"></path>
            <path d="M1110 470L1130 490L1130 550" stroke-width="3.33" stroke="rgba(82, 34, 88, 1)"></path>
            <path d="M1105 470 a5 5 0 1 0 10 0 a5 5 0 1 0 -10 0zM1125 550 a5 5 0 1 0 10 0 a5 5 0 1 0 -10 0z"
                  fill="rgba(82, 34, 88, 1)"></path>
            <path d="M730 50L730 110L810 190L830 190L850 170L850 130L870 110" stroke-width="3.33"
                  stroke="rgba(82, 34, 88, 1)"></path>
            <path d="M725 50 a5 5 0 1 0 10 0 a5 5 0 1 0 -10 0zM865 110 a5 5 0 1 0 10 0 a5 5 0 1 0 -10 0z"
                  fill="rgba(82, 34, 88, 1)"></path>
            <path d="M250 490L270 490L310 530" stroke-width="3.33" stroke="rgba(82, 34, 88, 1)"></path>
            <path d="M245 490 a5 5 0 1 0 10 0 a5 5 0 1 0 -10 0zM305 530 a5 5 0 1 0 10 0 a5 5 0 1 0 -10 0z"
                  fill="rgba(82, 34, 88, 1)"></path>
            <path d="M1430 270L1430 190" stroke-width="3.33" stroke="rgba(82, 34, 88, 1)"></path>
            <path d="M1425 270 a5 5 0 1 0 10 0 a5 5 0 1 0 -10 0zM1425 190 a5 5 0 1 0 10 0 a5 5 0 1 0 -10 0z"
                  fill="rgba(82, 34, 88, 1)"></path>
            <path d="M1430 290L1410 270L1410 190L1390 170L1370 170" stroke-width="3.33"
                  stroke="rgba(82, 34, 88, 1)"></path>
            <path d="M1425 290 a5 5 0 1 0 10 0 a5 5 0 1 0 -10 0zM1365 170 a5 5 0 1 0 10 0 a5 5 0 1 0 -10 0z"
                  fill="rgba(82, 34, 88, 1)"></path>
            <path d="M810 130L770 90L770 70L810 30L990 30" stroke-width="3.33" stroke="rgba(82, 34, 88, 1)"></path>
            <path d="M805 130 a5 5 0 1 0 10 0 a5 5 0 1 0 -10 0zM985 30 a5 5 0 1 0 10 0 a5 5 0 1 0 -10 0z"
                  fill="rgba(82, 34, 88, 1)"></path>
            <path d="M1130 450L870 190" stroke-width="3.33" stroke="rgba(82, 34, 88, 1)"></path>
            <path d="M1125 450 a5 5 0 1 0 10 0 a5 5 0 1 0 -10 0zM865 190 a5 5 0 1 0 10 0 a5 5 0 1 0 -10 0z"
                  fill="rgba(82, 34, 88, 1)"></path>
            <path d="M190 90L170 110L170 330" stroke-width="3.33" stroke="rgba(82, 34, 88, 1)"></path>
            <path d="M185 90 a5 5 0 1 0 10 0 a5 5 0 1 0 -10 0zM165 330 a5 5 0 1 0 10 0 a5 5 0 1 0 -10 0z"
                  fill="rgba(82, 34, 88, 1)"></path>
            <path d="M470 530L570 530" stroke-width="3.33" stroke="rgba(82, 34, 88, 1)"></path>
            <path d="M465 530 a5 5 0 1 0 10 0 a5 5 0 1 0 -10 0zM565 530 a5 5 0 1 0 10 0 a5 5 0 1 0 -10 0z"
                  fill="rgba(82, 34, 88, 1)"></path>
            <path d="M190 130L190 150L270 230L270 290" stroke-width="3.33" stroke="rgba(82, 34, 88, 1)"></path>
            <path d="M185 130 a5 5 0 1 0 10 0 a5 5 0 1 0 -10 0zM265 290 a5 5 0 1 0 10 0 a5 5 0 1 0 -10 0z"
                  fill="rgba(82, 34, 88, 1)"></path>
            <path d="M830 490L890 550L970 550" stroke-width="3.33" stroke="rgba(82, 34, 88, 1)"></path>
            <path d="M825 490 a5 5 0 1 0 10 0 a5 5 0 1 0 -10 0zM965 550 a5 5 0 1 0 10 0 a5 5 0 1 0 -10 0z"
                  fill="rgba(82, 34, 88, 1)"></path>
            <path d="M1210 550L1210 510" stroke-width="3.33" stroke="rgba(82, 34, 88, 1)"></path>
            <path d="M1205 550 a5 5 0 1 0 10 0 a5 5 0 1 0 -10 0zM1205 510 a5 5 0 1 0 10 0 a5 5 0 1 0 -10 0z"
                  fill="rgba(82, 34, 88, 1)"></path>
            <path d="M590 30L470 30L430 70L430 90" stroke-width="3.33" stroke="rgba(82, 34, 88, 1)"></path>
            <path d="M585 30 a5 5 0 1 0 10 0 a5 5 0 1 0 -10 0zM425 90 a5 5 0 1 0 10 0 a5 5 0 1 0 -10 0z"
                  fill="rgba(82, 34, 88, 1)"></path>
            <path d="M570 150L650 150" stroke-width="3.33" stroke="rgba(82, 34, 88, 1)"></path>
            <path d="M565 150 a5 5 0 1 0 10 0 a5 5 0 1 0 -10 0zM645 150 a5 5 0 1 0 10 0 a5 5 0 1 0 -10 0z"
                  fill="rgba(82, 34, 88, 1)"></path>
            <path d="M1130 170L1150 170L1170 150L1170 130" stroke-width="3.33" stroke="rgba(82, 34, 88, 1)"></path>
            <path d="M1125 170 a5 5 0 1 0 10 0 a5 5 0 1 0 -10 0zM1165 130 a5 5 0 1 0 10 0 a5 5 0 1 0 -10 0z"
                  fill="rgba(82, 34, 88, 1)"></path>
            <path d="M1310 370L1310 530" stroke-width="3.33" stroke="rgba(82, 34, 88, 1)"></path>
            <path d="M1305 370 a5 5 0 1 0 10 0 a5 5 0 1 0 -10 0zM1305 530 a5 5 0 1 0 10 0 a5 5 0 1 0 -10 0z"
                  fill="rgba(82, 34, 88, 1)"></path>
            <path d="M1250 90L1210 90" stroke-width="3.33" stroke="rgba(82, 34, 88, 1)"></path>
            <path d="M1245 90 a5 5 0 1 0 10 0 a5 5 0 1 0 -10 0zM1205 90 a5 5 0 1 0 10 0 a5 5 0 1 0 -10 0z"
                  fill="rgba(82, 34, 88, 1)"></path>
            <path d="M410 490L410 410L430 390" stroke-width="3.33" stroke="rgba(82, 34, 88, 1)"></path>
            <path d="M405 490 a5 5 0 1 0 10 0 a5 5 0 1 0 -10 0zM425 390 a5 5 0 1 0 10 0 a5 5 0 1 0 -10 0z"
                  fill="rgba(82, 34, 88, 1)"></path>
            <path d="M310 390L270 350L270 330L310 290L330 290L370 330" stroke-width="3.33"
                  stroke="rgba(82, 34, 88, 1)"></path>
            <path d="M305 390 a5 5 0 1 0 10 0 a5 5 0 1 0 -10 0zM365 330 a5 5 0 1 0 10 0 a5 5 0 1 0 -10 0z"
                  fill="rgba(82, 34, 88, 1)"></path>
            <path d="M550 190L570 170L610 170" stroke-width="3.33" stroke="rgba(82, 34, 88, 1)"></path>
            <path d="M545 190 a5 5 0 1 0 10 0 a5 5 0 1 0 -10 0zM605 170 a5 5 0 1 0 10 0 a5 5 0 1 0 -10 0z"
                  fill="rgba(82, 34, 88, 1)"></path>
            <path d="M610 210L590 230L590 250" stroke-width="3.33" stroke="rgba(82, 34, 88, 1)"></path>
            <path d="M605 210 a5 5 0 1 0 10 0 a5 5 0 1 0 -10 0zM585 250 a5 5 0 1 0 10 0 a5 5 0 1 0 -10 0z"
                  fill="rgba(82, 34, 88, 1)"></path>
            <path d="M50 170L50 10" stroke-width="3.33" stroke="rgba(82, 34, 88, 1)"></path>
            <path d="M45 170 a5 5 0 1 0 10 0 a5 5 0 1 0 -10 0zM45 10 a5 5 0 1 0 10 0 a5 5 0 1 0 -10 0z"
                  fill="rgba(82, 34, 88, 1)"></path>
            <path d="M30 270L90 330L90 350L10 430" stroke-width="3.33" stroke="rgba(82, 34, 88, 1)"></path>
            <path d="M25 270 a5 5 0 1 0 10 0 a5 5 0 1 0 -10 0zM5 430 a5 5 0 1 0 10 0 a5 5 0 1 0 -10 0z"
                  fill="rgba(82, 34, 88, 1)"></path>
            <path d="M1310 230L1310 210L1270 170" stroke-width="3.33" stroke="rgba(82, 34, 88, 1)"></path>
            <path d="M1305 230 a5 5 0 1 0 10 0 a5 5 0 1 0 -10 0zM1265 170 a5 5 0 1 0 10 0 a5 5 0 1 0 -10 0z"
                  fill="rgba(82, 34, 88, 1)"></path>
            <path d="M1250 350L1230 330L1210 330L1190 350" stroke-width="3.33" stroke="rgba(82, 34, 88, 1)"></path>
            <path d="M1245 350 a5 5 0 1 0 10 0 a5 5 0 1 0 -10 0zM1185 350 a5 5 0 1 0 10 0 a5 5 0 1 0 -10 0z"
                  fill="rgba(82, 34, 88, 1)"></path>
            <path d="M430 470L430 410" stroke-width="3.33" stroke="rgba(82, 34, 88, 1)"></path>
            <path d="M425 470 a5 5 0 1 0 10 0 a5 5 0 1 0 -10 0zM425 410 a5 5 0 1 0 10 0 a5 5 0 1 0 -10 0z"
                  fill="rgba(82, 34, 88, 1)"></path>
            <path d="M1210 190L1190 190L1130 250" stroke-width="3.33" stroke="rgba(82, 34, 88, 1)"></path>
            <path d="M1205 190 a5 5 0 1 0 10 0 a5 5 0 1 0 -10 0zM1125 250 a5 5 0 1 0 10 0 a5 5 0 1 0 -10 0z"
                  fill="rgba(82, 34, 88, 1)"></path>
            <path d="M1070 190L1130 190" stroke-width="3.33" stroke="rgba(82, 34, 88, 1)"></path>
            <path d="M1065 190 a5 5 0 1 0 10 0 a5 5 0 1 0 -10 0zM1125 190 a5 5 0 1 0 10 0 a5 5 0 1 0 -10 0z"
                  fill="rgba(82, 34, 88, 1)"></path>
            <path d="M810 110L850 110" stroke-width="3.33" stroke="rgba(82, 34, 88, 1)"></path>
            <path d="M805 110 a5 5 0 1 0 10 0 a5 5 0 1 0 -10 0zM845 110 a5 5 0 1 0 10 0 a5 5 0 1 0 -10 0z"
                  fill="rgba(82, 34, 88, 1)"></path>
            <path d="M230 410L230 470L170 530L150 530L130 510" stroke-width="3.33" stroke="rgba(82, 34, 88, 1)"></path>
            <path d="M225 410 a5 5 0 1 0 10 0 a5 5 0 1 0 -10 0zM125 510 a5 5 0 1 0 10 0 a5 5 0 1 0 -10 0z"
                  fill="rgba(82, 34, 88, 1)"></path>
            <path d="M50 310L30 330L30 350L50 370" stroke-width="3.33" stroke="rgba(82, 34, 88, 1)"></path>
            <path d="M45 310 a5 5 0 1 0 10 0 a5 5 0 1 0 -10 0zM45 370 a5 5 0 1 0 10 0 a5 5 0 1 0 -10 0z"
                  fill="rgba(82, 34, 88, 1)"></path>
            <path d="M430 50L430 10" stroke-width="3.33" stroke="rgba(82, 34, 88, 1)"></path>
            <path d="M425 50 a5 5 0 1 0 10 0 a5 5 0 1 0 -10 0zM425 10 a5 5 0 1 0 10 0 a5 5 0 1 0 -10 0z"
                  fill="rgba(82, 34, 88, 1)"></path>
            <path d="M1250 370L1290 330L1330 330" stroke-width="3.33" stroke="rgba(82, 34, 88, 1)"></path>
            <path d="M1245 370 a5 5 0 1 0 10 0 a5 5 0 1 0 -10 0zM1325 330 a5 5 0 1 0 10 0 a5 5 0 1 0 -10 0z"
                  fill="rgba(82, 34, 88, 1)"></path>
            <path d="M750 450L690 510L690 530" stroke-width="3.33" stroke="rgba(82, 34, 88, 1)"></path>
            <path d="M745 450 a5 5 0 1 0 10 0 a5 5 0 1 0 -10 0zM685 530 a5 5 0 1 0 10 0 a5 5 0 1 0 -10 0z"
                  fill="rgba(82, 34, 88, 1)"></path>
            <path d="M390 10L390 110" stroke-width="3.33" stroke="rgba(82, 34, 88, 1)"></path>
            <path d="M385 10 a5 5 0 1 0 10 0 a5 5 0 1 0 -10 0zM385 110 a5 5 0 1 0 10 0 a5 5 0 1 0 -10 0z"
                  fill="rgba(82, 34, 88, 1)"></path>
            <path d="M1430 30L1390 30L1330 90L1330 170" stroke-width="3.33" stroke="rgba(82, 34, 88, 1)"></path>
            <path d="M1425 30 a5 5 0 1 0 10 0 a5 5 0 1 0 -10 0zM1325 170 a5 5 0 1 0 10 0 a5 5 0 1 0 -10 0z"
                  fill="rgba(82, 34, 88, 1)"></path>
            <path d="M470 270L550 270L570 290" stroke-width="3.33" stroke="rgba(82, 34, 88, 1)"></path>
            <path d="M465 270 a5 5 0 1 0 10 0 a5 5 0 1 0 -10 0zM565 290 a5 5 0 1 0 10 0 a5 5 0 1 0 -10 0z"
                  fill="rgba(82, 34, 88, 1)"></path>
            <path d="M810 430L770 470L770 490L730 530L710 530" stroke-width="3.33" stroke="rgba(82, 34, 88, 1)"></path>
            <path d="M805 430 a5 5 0 1 0 10 0 a5 5 0 1 0 -10 0zM705 530 a5 5 0 1 0 10 0 a5 5 0 1 0 -10 0z"
                  fill="rgba(82, 34, 88, 1)"></path>
            <path d="M350 470L370 490L390 490" stroke-width="3.33" stroke="rgba(82, 34, 88, 1)"></path>
            <path d="M345 470 a5 5 0 1 0 10 0 a5 5 0 1 0 -10 0zM385 490 a5 5 0 1 0 10 0 a5 5 0 1 0 -10 0z"
                  fill="rgba(82, 34, 88, 1)"></path>
            <path d="M130 210L130 130L110 110L110 50L150 10L170 10" stroke-width="3.33"
                  stroke="rgba(82, 34, 88, 1)"></path>
            <path d="M125 210 a5 5 0 1 0 10 0 a5 5 0 1 0 -10 0zM165 10 a5 5 0 1 0 10 0 a5 5 0 1 0 -10 0z"
                  fill="rgba(82, 34, 88, 1)"></path>
            <path d="M290 130L270 150L250 150" stroke-width="3.33" stroke="rgba(82, 34, 88, 1)"></path>
            <path d="M285 130 a5 5 0 1 0 10 0 a5 5 0 1 0 -10 0zM245 150 a5 5 0 1 0 10 0 a5 5 0 1 0 -10 0z"
                  fill="rgba(82, 34, 88, 1)"></path>
            <path d="M770 350L770 370L710 430" stroke-width="3.33" stroke="rgba(82, 34, 88, 1)"></path>
            <path d="M765 350 a5 5 0 1 0 10 0 a5 5 0 1 0 -10 0zM705 430 a5 5 0 1 0 10 0 a5 5 0 1 0 -10 0z"
                  fill="rgba(82, 34, 88, 1)"></path>
            <path d="M1250 450L1210 410L1190 410" stroke-width="3.33" stroke="rgba(82, 34, 88, 1)"></path>
            <path d="M1245 450 a5 5 0 1 0 10 0 a5 5 0 1 0 -10 0zM1185 410 a5 5 0 1 0 10 0 a5 5 0 1 0 -10 0z"
                  fill="rgba(82, 34, 88, 1)"></path>
            <path d="M510 10L450 10" stroke-width="3.33" stroke="rgba(82, 34, 88, 1)"></path>
            <path d="M505 10 a5 5 0 1 0 10 0 a5 5 0 1 0 -10 0zM445 10 a5 5 0 1 0 10 0 a5 5 0 1 0 -10 0z"
                  fill="rgba(82, 34, 88, 1)"></path>
            <path d="M690 350L750 350" stroke-width="3.33" stroke="rgba(82, 34, 88, 1)"></path>
            <path d="M685 350 a5 5 0 1 0 10 0 a5 5 0 1 0 -10 0zM745 350 a5 5 0 1 0 10 0 a5 5 0 1 0 -10 0z"
                  fill="rgba(82, 34, 88, 1)"></path>
            <path d="M230 70L210 50L190 50L170 70L170 90" stroke-width="3.33" stroke="rgba(82, 34, 88, 1)"></path>
            <path d="M225 70 a5 5 0 1 0 10 0 a5 5 0 1 0 -10 0zM165 90 a5 5 0 1 0 10 0 a5 5 0 1 0 -10 0z"
                  fill="rgba(82, 34, 88, 1)"></path>
            <path d="M1270 410L1270 370" stroke-width="3.33" stroke="rgba(82, 34, 88, 1)"></path>
            <path d="M1265 410 a5 5 0 1 0 10 0 a5 5 0 1 0 -10 0zM1265 370 a5 5 0 1 0 10 0 a5 5 0 1 0 -10 0z"
                  fill="rgba(82, 34, 88, 1)"></path>
            <path d="M890 490L890 450" stroke-width="3.33" stroke="rgba(82, 34, 88, 1)"></path>
            <path d="M885 490 a5 5 0 1 0 10 0 a5 5 0 1 0 -10 0zM885 450 a5 5 0 1 0 10 0 a5 5 0 1 0 -10 0z"
                  fill="rgba(82, 34, 88, 1)"></path>
            <path d="M550 470L530 450L490 450L450 490L430 490" stroke-width="3.33" stroke="rgba(82, 34, 88, 1)"></path>
            <path d="M545 470 a5 5 0 1 0 10 0 a5 5 0 1 0 -10 0zM425 490 a5 5 0 1 0 10 0 a5 5 0 1 0 -10 0z"
                  fill="rgba(82, 34, 88, 1)"></path>
            <path d="M30 190L90 250L90 290" stroke-width="3.33" stroke="rgba(82, 34, 88, 1)"></path>
            <path d="M25 190 a5 5 0 1 0 10 0 a5 5 0 1 0 -10 0zM85 290 a5 5 0 1 0 10 0 a5 5 0 1 0 -10 0z"
                  fill="rgba(82, 34, 88, 1)"></path>
            <path d="M650 90L610 50L470 50" stroke-width="3.33" stroke="rgba(82, 34, 88, 1)"></path>
            <path d="M645 90 a5 5 0 1 0 10 0 a5 5 0 1 0 -10 0zM465 50 a5 5 0 1 0 10 0 a5 5 0 1 0 -10 0z"
                  fill="rgba(82, 34, 88, 1)"></path>
            <path d="M110 150L110 210" stroke-width="3.33" stroke="rgba(82, 34, 88, 1)"></path>
            <path d="M105 150 a5 5 0 1 0 10 0 a5 5 0 1 0 -10 0zM105 210 a5 5 0 1 0 10 0 a5 5 0 1 0 -10 0z"
                  fill="rgba(82, 34, 88, 1)"></path>
            <path d="M1250 290L1330 290" stroke-width="3.33" stroke="rgba(82, 34, 88, 1)"></path>
            <path d="M1245 290 a5 5 0 1 0 10 0 a5 5 0 1 0 -10 0zM1325 290 a5 5 0 1 0 10 0 a5 5 0 1 0 -10 0z"
                  fill="rgba(82, 34, 88, 1)"></path>
            <path d="M850 550L850 530L810 490" stroke-width="3.33" stroke="rgba(82, 34, 88, 1)"></path>
            <path d="M845 550 a5 5 0 1 0 10 0 a5 5 0 1 0 -10 0zM805 490 a5 5 0 1 0 10 0 a5 5 0 1 0 -10 0z"
                  fill="rgba(82, 34, 88, 1)"></path>
            <path d="M810 290L850 290L890 250" stroke-width="3.33" stroke="rgba(82, 34, 88, 1)"></path>
            <path d="M805 290 a5 5 0 1 0 10 0 a5 5 0 1 0 -10 0zM885 250 a5 5 0 1 0 10 0 a5 5 0 1 0 -10 0z"
                  fill="rgba(82, 34, 88, 1)"></path>
            <path d="M890 50L810 50L790 70L790 90" stroke-width="3.33" stroke="rgba(82, 34, 88, 1)"></path>
            <path d="M885 50 a5 5 0 1 0 10 0 a5 5 0 1 0 -10 0zM785 90 a5 5 0 1 0 10 0 a5 5 0 1 0 -10 0z"
                  fill="rgba(82, 34, 88, 1)"></path>
            <path d="M790 150L750 110L750 90" stroke-width="3.33" stroke="rgba(82, 34, 88, 1)"></path>
            <path d="M785 150 a5 5 0 1 0 10 0 a5 5 0 1 0 -10 0zM745 90 a5 5 0 1 0 10 0 a5 5 0 1 0 -10 0z"
                  fill="rgba(82, 34, 88, 1)"></path>
            <path d="M350 370L310 370L290 350L290 330L310 310L330 310L350 330" stroke-width="3.33"
                  stroke="rgba(82, 34, 88, 1)"></path>
            <path d="M345 370 a5 5 0 1 0 10 0 a5 5 0 1 0 -10 0zM345 330 a5 5 0 1 0 10 0 a5 5 0 1 0 -10 0z"
                  fill="rgba(82, 34, 88, 1)"></path>
            <path d="M1270 50L1230 10L1130 10" stroke-width="3.33" stroke="rgba(82, 34, 88, 1)"></path>
            <path d="M1265 50 a5 5 0 1 0 10 0 a5 5 0 1 0 -10 0zM1125 10 a5 5 0 1 0 10 0 a5 5 0 1 0 -10 0z"
                  fill="rgba(82, 34, 88, 1)"></path>
            <path d="M830 550L790 510" stroke-width="3.33" stroke="rgba(82, 34, 88, 1)"></path>
            <path d="M825 550 a5 5 0 1 0 10 0 a5 5 0 1 0 -10 0zM785 510 a5 5 0 1 0 10 0 a5 5 0 1 0 -10 0z"
                  fill="rgba(82, 34, 88, 1)"></path>
            <path d="M990 110L990 150" stroke-width="3.33" stroke="rgba(82, 34, 88, 1)"></path>
            <path d="M985 110 a5 5 0 1 0 10 0 a5 5 0 1 0 -10 0zM985 150 a5 5 0 1 0 10 0 a5 5 0 1 0 -10 0z"
                  fill="rgba(82, 34, 88, 1)"></path>
            <path d="M1210 370L1210 390L1270 450L1270 490" stroke-width="3.33" stroke="rgba(82, 34, 88, 1)"></path>
            <path d="M1205 370 a5 5 0 1 0 10 0 a5 5 0 1 0 -10 0zM1265 490 a5 5 0 1 0 10 0 a5 5 0 1 0 -10 0z"
                  fill="rgba(82, 34, 88, 1)"></path>
            <path d="M830 70L870 70" stroke-width="3.33" stroke="rgba(82, 34, 88, 1)"></path>
            <path d="M825 70 a5 5 0 1 0 10 0 a5 5 0 1 0 -10 0zM865 70 a5 5 0 1 0 10 0 a5 5 0 1 0 -10 0z"
                  fill="rgba(82, 34, 88, 1)"></path>
            <path d="M870 250L870 210" stroke-width="3.33" stroke="rgba(82, 34, 88, 1)"></path>
            <path d="M865 250 a5 5 0 1 0 10 0 a5 5 0 1 0 -10 0zM865 210 a5 5 0 1 0 10 0 a5 5 0 1 0 -10 0z"
                  fill="rgba(82, 34, 88, 1)"></path>
            <path d="M1390 230L1390 190" stroke-width="3.33" stroke="rgba(82, 34, 88, 1)"></path>
            <path d="M1385 230 a5 5 0 1 0 10 0 a5 5 0 1 0 -10 0zM1385 190 a5 5 0 1 0 10 0 a5 5 0 1 0 -10 0z"
                  fill="rgba(82, 34, 88, 1)"></path>
            <path d="M570 70L490 70" stroke-width="3.33" stroke="rgba(82, 34, 88, 1)"></path>
            <path d="M565 70 a5 5 0 1 0 10 0 a5 5 0 1 0 -10 0zM485 70 a5 5 0 1 0 10 0 a5 5 0 1 0 -10 0z"
                  fill="rgba(82, 34, 88, 1)"></path>
            <path d="M1070 210L1110 210" stroke-width="3.33" stroke="rgba(82, 34, 88, 1)"></path>
            <path d="M1065 210 a5 5 0 1 0 10 0 a5 5 0 1 0 -10 0zM1105 210 a5 5 0 1 0 10 0 a5 5 0 1 0 -10 0z"
                  fill="rgba(82, 34, 88, 1)"></path>
            <path d="M70 270L50 270L30 250L30 210" stroke-width="3.33" stroke="rgba(82, 34, 88, 1)"></path>
            <path d="M65 270 a5 5 0 1 0 10 0 a5 5 0 1 0 -10 0zM25 210 a5 5 0 1 0 10 0 a5 5 0 1 0 -10 0z"
                  fill="rgba(82, 34, 88, 1)"></path>
            <path d="M190 530L290 530" stroke-width="3.33" stroke="rgba(82, 34, 88, 1)"></path>
            <path d="M185 530 a5 5 0 1 0 10 0 a5 5 0 1 0 -10 0zM285 530 a5 5 0 1 0 10 0 a5 5 0 1 0 -10 0z"
                  fill="rgba(82, 34, 88, 1)"></path>
            <path d="M1270 90L1290 90L1310 70" stroke-width="3.33" stroke="rgba(82, 34, 88, 1)"></path>
            <path d="M1265 90 a5 5 0 1 0 10 0 a5 5 0 1 0 -10 0zM1305 70 a5 5 0 1 0 10 0 a5 5 0 1 0 -10 0z"
                  fill="rgba(82, 34, 88, 1)"></path>
            <path d="M30 110L30 170" stroke-width="3.33" stroke="rgba(82, 34, 88, 1)"></path>
            <path d="M25 110 a5 5 0 1 0 10 0 a5 5 0 1 0 -10 0zM25 170 a5 5 0 1 0 10 0 a5 5 0 1 0 -10 0z"
                  fill="rgba(82, 34, 88, 1)"></path>
            <path d="M630 210L650 190L650 170" stroke-width="3.33" stroke="rgba(82, 34, 88, 1)"></path>
            <path d="M625 210 a5 5 0 1 0 10 0 a5 5 0 1 0 -10 0zM645 170 a5 5 0 1 0 10 0 a5 5 0 1 0 -10 0z"
                  fill="rgba(82, 34, 88, 1)"></path>
            <path d="M710 310L730 330L750 330" stroke-width="3.33" stroke="rgba(82, 34, 88, 1)"></path>
            <path d="M705 310 a5 5 0 1 0 10 0 a5 5 0 1 0 -10 0zM745 330 a5 5 0 1 0 10 0 a5 5 0 1 0 -10 0z"
                  fill="rgba(82, 34, 88, 1)"></path>
            <path d="M1370 270L1370 190" stroke-width="3.33" stroke="rgba(82, 34, 88, 1)"></path>
            <path d="M1365 270 a5 5 0 1 0 10 0 a5 5 0 1 0 -10 0zM1365 190 a5 5 0 1 0 10 0 a5 5 0 1 0 -10 0z"
                  fill="rgba(82, 34, 88, 1)"></path>
            <path d="M610 510L650 470L650 450" stroke-width="3.33" stroke="rgba(82, 34, 88, 1)"></path>
            <path d="M605 510 a5 5 0 1 0 10 0 a5 5 0 1 0 -10 0zM645 450 a5 5 0 1 0 10 0 a5 5 0 1 0 -10 0z"
                  fill="rgba(82, 34, 88, 1)"></path>
            <path d="M1170 50L1150 30L1130 30L1110 50" stroke-width="3.33" stroke="rgba(82, 34, 88, 1)"></path>
            <path d="M1165 50 a5 5 0 1 0 10 0 a5 5 0 1 0 -10 0zM1105 50 a5 5 0 1 0 10 0 a5 5 0 1 0 -10 0z"
                  fill="rgba(82, 34, 88, 1)"></path>
            <path d="M1110 550L1110 490L1070 450L1070 430" stroke-width="3.33" stroke="rgba(82, 34, 88, 1)"></path>
            <path d="M1105 550 a5 5 0 1 0 10 0 a5 5 0 1 0 -10 0zM1065 430 a5 5 0 1 0 10 0 a5 5 0 1 0 -10 0z"
                  fill="rgba(82, 34, 88, 1)"></path>
            <path d="M250 110L270 90L310 90L330 110L330 210" stroke-width="3.33" stroke="rgba(82, 34, 88, 1)"></path>
            <path d="M245 110 a5 5 0 1 0 10 0 a5 5 0 1 0 -10 0zM325 210 a5 5 0 1 0 10 0 a5 5 0 1 0 -10 0z"
                  fill="rgba(82, 34, 88, 1)"></path>
            <path d="M30 10L30 90" stroke-width="3.33" stroke="rgba(82, 34, 88, 1)"></path>
            <path d="M25 10 a5 5 0 1 0 10 0 a5 5 0 1 0 -10 0zM25 90 a5 5 0 1 0 10 0 a5 5 0 1 0 -10 0z"
                  fill="rgba(82, 34, 88, 1)"></path>
            <path d="M1410 90L1390 70L1390 50" stroke-width="3.33" stroke="rgba(82, 34, 88, 1)"></path>
            <path d="M1405 90 a5 5 0 1 0 10 0 a5 5 0 1 0 -10 0zM1385 50 a5 5 0 1 0 10 0 a5 5 0 1 0 -10 0z"
                  fill="rgba(82, 34, 88, 1)"></path>
            <path d="M70 50L70 10" stroke-width="3.33" stroke="rgba(82, 34, 88, 1)"></path>
            <path d="M65 50 a5 5 0 1 0 10 0 a5 5 0 1 0 -10 0zM65 10 a5 5 0 1 0 10 0 a5 5 0 1 0 -10 0z"
                  fill="rgba(82, 34, 88, 1)"></path>
            <path d="M190 110L210 130L210 150" stroke-width="3.33" stroke="rgba(82, 34, 88, 1)"></path>
            <path d="M185 110 a5 5 0 1 0 10 0 a5 5 0 1 0 -10 0zM205 150 a5 5 0 1 0 10 0 a5 5 0 1 0 -10 0z"
                  fill="rgba(82, 34, 88, 1)"></path>
            <path d="M510 390L670 390" stroke-width="3.33" stroke="rgba(82, 34, 88, 1)"></path>
            <path d="M505 390 a5 5 0 1 0 10 0 a5 5 0 1 0 -10 0zM665 390 a5 5 0 1 0 10 0 a5 5 0 1 0 -10 0z"
                  fill="rgba(82, 34, 88, 1)"></path>
            <path d="M1330 370L1330 530" stroke-width="3.33" stroke="rgba(82, 34, 88, 1)"></path>
            <path d="M1325 370 a5 5 0 1 0 10 0 a5 5 0 1 0 -10 0zM1325 530 a5 5 0 1 0 10 0 a5 5 0 1 0 -10 0z"
                  fill="rgba(82, 34, 88, 1)"></path>
            <path d="M690 130L690 170" stroke-width="3.33" stroke="rgba(82, 34, 88, 1)"></path>
            <path d="M685 130 a5 5 0 1 0 10 0 a5 5 0 1 0 -10 0zM685 170 a5 5 0 1 0 10 0 a5 5 0 1 0 -10 0z"
                  fill="rgba(82, 34, 88, 1)"></path>
            <path d="M910 530L930 510L930 490L910 470" stroke-width="3.33" stroke="rgba(82, 34, 88, 1)"></path>
            <path d="M905 530 a5 5 0 1 0 10 0 a5 5 0 1 0 -10 0zM905 470 a5 5 0 1 0 10 0 a5 5 0 1 0 -10 0z"
                  fill="rgba(82, 34, 88, 1)"></path>
            <path d="M1070 110L1050 90L1030 90" stroke-width="3.33" stroke="rgba(82, 34, 88, 1)"></path>
            <path d="M1065 110 a5 5 0 1 0 10 0 a5 5 0 1 0 -10 0zM1025 90 a5 5 0 1 0 10 0 a5 5 0 1 0 -10 0z"
                  fill="rgba(82, 34, 88, 1)"></path>
            <path d="M1390 150L1430 150" stroke-width="3.33" stroke="rgba(82, 34, 88, 1)"></path>
            <path d="M1385 150 a5 5 0 1 0 10 0 a5 5 0 1 0 -10 0zM1425 150 a5 5 0 1 0 10 0 a5 5 0 1 0 -10 0z"
                  fill="rgba(82, 34, 88, 1)"></path>
            <path d="M130 450L150 470L210 470" stroke-width="3.33" stroke="rgba(82, 34, 88, 1)"></path>
            <path d="M125 450 a5 5 0 1 0 10 0 a5 5 0 1 0 -10 0zM205 470 a5 5 0 1 0 10 0 a5 5 0 1 0 -10 0z"
                  fill="rgba(82, 34, 88, 1)"></path>
            <path d="M290 410L290 390L270 370" stroke-width="3.33" stroke="rgba(82, 34, 88, 1)"></path>
            <path d="M285 410 a5 5 0 1 0 10 0 a5 5 0 1 0 -10 0zM265 370 a5 5 0 1 0 10 0 a5 5 0 1 0 -10 0z"
                  fill="rgba(82, 34, 88, 1)"></path>
            <path d="M470 210L510 250L530 250" stroke-width="3.33" stroke="rgba(82, 34, 88, 1)"></path>
            <path d="M465 210 a5 5 0 1 0 10 0 a5 5 0 1 0 -10 0zM525 250 a5 5 0 1 0 10 0 a5 5 0 1 0 -10 0z"
                  fill="rgba(82, 34, 88, 1)"></path>
            <path d="M1410 370L1410 330L1370 290" stroke-width="3.33" stroke="rgba(82, 34, 88, 1)"></path>
            <path d="M1405 370 a5 5 0 1 0 10 0 a5 5 0 1 0 -10 0zM1365 290 a5 5 0 1 0 10 0 a5 5 0 1 0 -10 0z"
                  fill="rgba(82, 34, 88, 1)"></path>
            <path d="M530 210L530 150" stroke-width="3.33" stroke="rgba(82, 34, 88, 1)"></path>
            <path d="M525 210 a5 5 0 1 0 10 0 a5 5 0 1 0 -10 0zM525 150 a5 5 0 1 0 10 0 a5 5 0 1 0 -10 0z"
                  fill="rgba(82, 34, 88, 1)"></path>
            <path d="M1370 110L1390 130L1430 130" stroke-width="3.33" stroke="rgba(82, 34, 88, 1)"></path>
            <path d="M1365 110 a5 5 0 1 0 10 0 a5 5 0 1 0 -10 0zM1425 130 a5 5 0 1 0 10 0 a5 5 0 1 0 -10 0z"
                  fill="rgba(82, 34, 88, 1)"></path>
            <path d="M290 110L270 110L250 130" stroke-width="3.33" stroke="rgba(82, 34, 88, 1)"></path>
            <path d="M285 110 a5 5 0 1 0 10 0 a5 5 0 1 0 -10 0zM245 130 a5 5 0 1 0 10 0 a5 5 0 1 0 -10 0z"
                  fill="rgba(82, 34, 88, 1)"></path>
            <path d="M1410 110L1390 110L1370 90L1350 90" stroke-width="3.33" stroke="rgba(82, 34, 88, 1)"></path>
            <path d="M1405 110 a5 5 0 1 0 10 0 a5 5 0 1 0 -10 0zM1345 90 a5 5 0 1 0 10 0 a5 5 0 1 0 -10 0z"
                  fill="rgba(82, 34, 88, 1)"></path>
            <path d="M170 410L150 430L150 450" stroke-width="3.33" stroke="rgba(82, 34, 88, 1)"></path>
            <path d="M165 410 a5 5 0 1 0 10 0 a5 5 0 1 0 -10 0zM145 450 a5 5 0 1 0 10 0 a5 5 0 1 0 -10 0z"
                  fill="rgba(82, 34, 88, 1)"></path>
            <path d="M490 490L530 490" stroke-width="3.33" stroke="rgba(82, 34, 88, 1)"></path>
            <path d="M485 490 a5 5 0 1 0 10 0 a5 5 0 1 0 -10 0zM525 490 a5 5 0 1 0 10 0 a5 5 0 1 0 -10 0z"
                  fill="rgba(82, 34, 88, 1)"></path>
            <path d="M650 510L610 550" stroke-width="3.33" stroke="rgba(82, 34, 88, 1)"></path>
            <path d="M645 510 a5 5 0 1 0 10 0 a5 5 0 1 0 -10 0zM605 550 a5 5 0 1 0 10 0 a5 5 0 1 0 -10 0z"
                  fill="rgba(82, 34, 88, 1)"></path>
            <path d="M70 490L110 530L110 550" stroke-width="3.33" stroke="rgba(82, 34, 88, 1)"></path>
            <path d="M65 490 a5 5 0 1 0 10 0 a5 5 0 1 0 -10 0zM105 550 a5 5 0 1 0 10 0 a5 5 0 1 0 -10 0z"
                  fill="rgba(82, 34, 88, 1)"></path>
            <path d="M1050 230L1050 190" stroke-width="3.33" stroke="rgba(82, 34, 88, 1)"></path>
            <path d="M1045 230 a5 5 0 1 0 10 0 a5 5 0 1 0 -10 0zM1045 190 a5 5 0 1 0 10 0 a5 5 0 1 0 -10 0z"
                  fill="rgba(82, 34, 88, 1)"></path>
            <path d="M1210 30L1170 30" stroke-width="3.33" stroke="rgba(82, 34, 88, 1)"></path>
            <path d="M1205 30 a5 5 0 1 0 10 0 a5 5 0 1 0 -10 0zM1165 30 a5 5 0 1 0 10 0 a5 5 0 1 0 -10 0z"
                  fill="rgba(82, 34, 88, 1)"></path>
            <path d="M270 10L270 30L250 50L230 50L210 30" stroke-width="3.33" stroke="rgba(82, 34, 88, 1)"></path>
            <path d="M265 10 a5 5 0 1 0 10 0 a5 5 0 1 0 -10 0zM205 30 a5 5 0 1 0 10 0 a5 5 0 1 0 -10 0z"
                  fill="rgba(82, 34, 88, 1)"></path>
            <path d="M1210 230L1210 290L1190 310" stroke-width="3.33" stroke="rgba(82, 34, 88, 1)"></path>
            <path d="M1205 230 a5 5 0 1 0 10 0 a5 5 0 1 0 -10 0zM1185 310 a5 5 0 1 0 10 0 a5 5 0 1 0 -10 0z"
                  fill="rgba(82, 34, 88, 1)"></path>
            <path d="M210 450L190 430L170 430" stroke-width="3.33" stroke="rgba(82, 34, 88, 1)"></path>
            <path d="M205 450 a5 5 0 1 0 10 0 a5 5 0 1 0 -10 0zM165 430 a5 5 0 1 0 10 0 a5 5 0 1 0 -10 0z"
                  fill="rgba(82, 34, 88, 1)"></path>
            <path d="M690 50L710 70L710 90" stroke-width="3.33" stroke="rgba(82, 34, 88, 1)"></path>
            <path d="M685 50 a5 5 0 1 0 10 0 a5 5 0 1 0 -10 0zM705 90 a5 5 0 1 0 10 0 a5 5 0 1 0 -10 0z"
                  fill="rgba(82, 34, 88, 1)"></path>
            <path d="M1090 550L1030 490" stroke-width="3.33" stroke="rgba(82, 34, 88, 1)"></path>
            <path d="M1085 550 a5 5 0 1 0 10 0 a5 5 0 1 0 -10 0zM1025 490 a5 5 0 1 0 10 0 a5 5 0 1 0 -10 0z"
                  fill="rgba(82, 34, 88, 1)"></path>
            <path d="M530 330L550 310L550 290" stroke-width="3.33" stroke="rgba(82, 34, 88, 1)"></path>
            <path d="M525 330 a5 5 0 1 0 10 0 a5 5 0 1 0 -10 0zM545 290 a5 5 0 1 0 10 0 a5 5 0 1 0 -10 0z"
                  fill="rgba(82, 34, 88, 1)"></path>
            <path d="M1170 270L1150 290L1150 310" stroke-width="3.33" stroke="rgba(82, 34, 88, 1)"></path>
            <path d="M1165 270 a5 5 0 1 0 10 0 a5 5 0 1 0 -10 0zM1145 310 a5 5 0 1 0 10 0 a5 5 0 1 0 -10 0z"
                  fill="rgba(82, 34, 88, 1)"></path>
            <path d="M730 230L730 270" stroke-width="3.33" stroke="rgba(82, 34, 88, 1)"></path>
            <path d="M725 230 a5 5 0 1 0 10 0 a5 5 0 1 0 -10 0zM725 270 a5 5 0 1 0 10 0 a5 5 0 1 0 -10 0z"
                  fill="rgba(82, 34, 88, 1)"></path>
            <path d="M1050 470L1050 490L1070 510L1090 510" stroke-width="3.33" stroke="rgba(82, 34, 88, 1)"></path>
            <path d="M1045 470 a5 5 0 1 0 10 0 a5 5 0 1 0 -10 0zM1085 510 a5 5 0 1 0 10 0 a5 5 0 1 0 -10 0z"
                  fill="rgba(82, 34, 88, 1)"></path>
            <path d="M750 470L710 510" stroke-width="3.33" stroke="rgba(82, 34, 88, 1)"></path>
            <path d="M745 470 a5 5 0 1 0 10 0 a5 5 0 1 0 -10 0zM705 510 a5 5 0 1 0 10 0 a5 5 0 1 0 -10 0z"
                  fill="rgba(82, 34, 88, 1)"></path>
            <path d="M490 470L530 470" stroke-width="3.33" stroke="rgba(82, 34, 88, 1)"></path>
            <path d="M485 470 a5 5 0 1 0 10 0 a5 5 0 1 0 -10 0zM525 470 a5 5 0 1 0 10 0 a5 5 0 1 0 -10 0z"
                  fill="rgba(82, 34, 88, 1)"></path>
            <path d="M190 70L210 70L230 90" stroke-width="3.33" stroke="rgba(82, 34, 88, 1)"></path>
            <path d="M185 70 a5 5 0 1 0 10 0 a5 5 0 1 0 -10 0zM225 90 a5 5 0 1 0 10 0 a5 5 0 1 0 -10 0z"
                  fill="rgba(82, 34, 88, 1)"></path>
            <path d="M710 30L650 30L630 10" stroke-width="3.33" stroke="rgba(82, 34, 88, 1)"></path>
            <path d="M705 30 a5 5 0 1 0 10 0 a5 5 0 1 0 -10 0zM625 10 a5 5 0 1 0 10 0 a5 5 0 1 0 -10 0z"
                  fill="rgba(82, 34, 88, 1)"></path>
            <path d="M370 10L370 50" stroke-width="3.33" stroke="rgba(82, 34, 88, 1)"></path>
            <path d="M365 10 a5 5 0 1 0 10 0 a5 5 0 1 0 -10 0zM365 50 a5 5 0 1 0 10 0 a5 5 0 1 0 -10 0z"
                  fill="rgba(82, 34, 88, 1)"></path>
            <path d="M510 110L550 110L570 90" stroke-width="3.33" stroke="rgba(82, 34, 88, 1)"></path>
            <path d="M505 110 a5 5 0 1 0 10 0 a5 5 0 1 0 -10 0zM565 90 a5 5 0 1 0 10 0 a5 5 0 1 0 -10 0z"
                  fill="rgba(82, 34, 88, 1)"></path>
            <path d="M1030 30L1090 30" stroke-width="3.33" stroke="rgba(82, 34, 88, 1)"></path>
            <path d="M1025 30 a5 5 0 1 0 10 0 a5 5 0 1 0 -10 0zM1085 30 a5 5 0 1 0 10 0 a5 5 0 1 0 -10 0z"
                  fill="rgba(82, 34, 88, 1)"></path>
            <path d="M1190 50L1250 50" stroke-width="3.33" stroke="rgba(82, 34, 88, 1)"></path>
            <path d="M1185 50 a5 5 0 1 0 10 0 a5 5 0 1 0 -10 0zM1245 50 a5 5 0 1 0 10 0 a5 5 0 1 0 -10 0z"
                  fill="rgba(82, 34, 88, 1)"></path>
            <path d="M1430 110L1430 70" stroke-width="3.33" stroke="rgba(82, 34, 88, 1)"></path>
            <path d="M1425 110 a5 5 0 1 0 10 0 a5 5 0 1 0 -10 0zM1425 70 a5 5 0 1 0 10 0 a5 5 0 1 0 -10 0z"
                  fill="rgba(82, 34, 88, 1)"></path>
            <path d="M1270 210L1270 250" stroke-width="3.33" stroke="rgba(82, 34, 88, 1)"></path>
            <path d="M1265 210 a5 5 0 1 0 10 0 a5 5 0 1 0 -10 0zM1265 250 a5 5 0 1 0 10 0 a5 5 0 1 0 -10 0z"
                  fill="rgba(82, 34, 88, 1)"></path>
            <path d="M750 230L750 270" stroke-width="3.33" stroke="rgba(82, 34, 88, 1)"></path>
            <path d="M745 230 a5 5 0 1 0 10 0 a5 5 0 1 0 -10 0zM745 270 a5 5 0 1 0 10 0 a5 5 0 1 0 -10 0z"
                  fill="rgba(82, 34, 88, 1)"></path>
            <path d="M130 270L130 230" stroke-width="3.33" stroke="rgba(82, 34, 88, 1)"></path>
            <path d="M125 270 a5 5 0 1 0 10 0 a5 5 0 1 0 -10 0zM125 230 a5 5 0 1 0 10 0 a5 5 0 1 0 -10 0z"
                  fill="rgba(82, 34, 88, 1)"></path>
            <path d="M1110 110L1090 110L1070 130L1050 130" stroke-width="3.33" stroke="rgba(82, 34, 88, 1)"></path>
            <path d="M1105 110 a5 5 0 1 0 10 0 a5 5 0 1 0 -10 0zM1045 130 a5 5 0 1 0 10 0 a5 5 0 1 0 -10 0z"
                  fill="rgba(82, 34, 88, 1)"></path>
            <path d="M450 230L470 250L490 250" stroke-width="3.33" stroke="rgba(82, 34, 88, 1)"></path>
            <path d="M445 230 a5 5 0 1 0 10 0 a5 5 0 1 0 -10 0zM485 250 a5 5 0 1 0 10 0 a5 5 0 1 0 -10 0z"
                  fill="rgba(82, 34, 88, 1)"></path>
            <path d="M1290 210L1290 250" stroke-width="3.33" stroke="rgba(82, 34, 88, 1)"></path>
            <path d="M1285 210 a5 5 0 1 0 10 0 a5 5 0 1 0 -10 0zM1285 250 a5 5 0 1 0 10 0 a5 5 0 1 0 -10 0z"
                  fill="rgba(82, 34, 88, 1)"></path>
        </g>
    </g>
    <defs>
        <mask id="SvgjsMask1002">
            <rect width="1440" height="560" fill="#ffffff"></rect>
        </mask>
        <mask id="SvgjsMask1003">
            <rect width="1440" height="560" fill="white"></rect>
            <path d="M267.5 210 a2.5 2.5 0 1 0 5 0 a2.5 2.5 0 1 0 -5 0zM647.5 430 a2.5 2.5 0 1 0 5 0 a2.5 2.5 0 1 0 -5 0z"
                  fill="black"></path>
            <path d="M1287.5 370 a2.5 2.5 0 1 0 5 0 a2.5 2.5 0 1 0 -5 0zM1427.5 550 a2.5 2.5 0 1 0 5 0 a2.5 2.5 0 1 0 -5 0z"
                  fill="black"></path>
            <path d="M287.5 50 a2.5 2.5 0 1 0 5 0 a2.5 2.5 0 1 0 -5 0zM287.5 10 a2.5 2.5 0 1 0 5 0 a2.5 2.5 0 1 0 -5 0z"
                  fill="black"></path>
            <path d="M727.5 370 a2.5 2.5 0 1 0 5 0 a2.5 2.5 0 1 0 -5 0zM367.5 230 a2.5 2.5 0 1 0 5 0 a2.5 2.5 0 1 0 -5 0z"
                  fill="black"></path>
            <path d="M1347.5 490 a2.5 2.5 0 1 0 5 0 a2.5 2.5 0 1 0 -5 0zM1347.5 110 a2.5 2.5 0 1 0 5 0 a2.5 2.5 0 1 0 -5 0z"
                  fill="black"></path>
            <path d="M587.5 530 a2.5 2.5 0 1 0 5 0 a2.5 2.5 0 1 0 -5 0zM587.5 450 a2.5 2.5 0 1 0 5 0 a2.5 2.5 0 1 0 -5 0z"
                  fill="black"></path>
            <path d="M1227.5 270 a2.5 2.5 0 1 0 5 0 a2.5 2.5 0 1 0 -5 0zM1327.5 270 a2.5 2.5 0 1 0 5 0 a2.5 2.5 0 1 0 -5 0z"
                  fill="black"></path>
            <path d="M1267.5 510 a2.5 2.5 0 1 0 5 0 a2.5 2.5 0 1 0 -5 0zM887.5 150 a2.5 2.5 0 1 0 5 0 a2.5 2.5 0 1 0 -5 0z"
                  fill="black"></path>
            <path d="M1247.5 130 a2.5 2.5 0 1 0 5 0 a2.5 2.5 0 1 0 -5 0zM1327.5 250 a2.5 2.5 0 1 0 5 0 a2.5 2.5 0 1 0 -5 0z"
                  fill="black"></path>
            <path d="M287.5 290 a2.5 2.5 0 1 0 5 0 a2.5 2.5 0 1 0 -5 0zM187.5 490 a2.5 2.5 0 1 0 5 0 a2.5 2.5 0 1 0 -5 0z"
                  fill="black"></path>
            <path d="M707.5 250 a2.5 2.5 0 1 0 5 0 a2.5 2.5 0 1 0 -5 0zM327.5 250 a2.5 2.5 0 1 0 5 0 a2.5 2.5 0 1 0 -5 0z"
                  fill="black"></path>
            <path d="M567.5 510 a2.5 2.5 0 1 0 5 0 a2.5 2.5 0 1 0 -5 0zM227.5 370 a2.5 2.5 0 1 0 5 0 a2.5 2.5 0 1 0 -5 0z"
                  fill="black"></path>
            <path d="M207.5 10 a2.5 2.5 0 1 0 5 0 a2.5 2.5 0 1 0 -5 0zM147.5 350 a2.5 2.5 0 1 0 5 0 a2.5 2.5 0 1 0 -5 0z"
                  fill="black"></path>
            <path d="M1327.5 10 a2.5 2.5 0 1 0 5 0 a2.5 2.5 0 1 0 -5 0zM947.5 110 a2.5 2.5 0 1 0 5 0 a2.5 2.5 0 1 0 -5 0z"
                  fill="black"></path>
            <path d="M7.5 10 a2.5 2.5 0 1 0 5 0 a2.5 2.5 0 1 0 -5 0zM7.5 390 a2.5 2.5 0 1 0 5 0 a2.5 2.5 0 1 0 -5 0z"
                  fill="black"></path>
            <path d="M367.5 350 a2.5 2.5 0 1 0 5 0 a2.5 2.5 0 1 0 -5 0zM327.5 450 a2.5 2.5 0 1 0 5 0 a2.5 2.5 0 1 0 -5 0z"
                  fill="black"></path>
            <path d="M767.5 210 a2.5 2.5 0 1 0 5 0 a2.5 2.5 0 1 0 -5 0zM667.5 550 a2.5 2.5 0 1 0 5 0 a2.5 2.5 0 1 0 -5 0z"
                  fill="black"></path>
            <path d="M367.5 430 a2.5 2.5 0 1 0 5 0 a2.5 2.5 0 1 0 -5 0zM387.5 350 a2.5 2.5 0 1 0 5 0 a2.5 2.5 0 1 0 -5 0z"
                  fill="black"></path>
            <path d="M887.5 230 a2.5 2.5 0 1 0 5 0 a2.5 2.5 0 1 0 -5 0zM1147.5 550 a2.5 2.5 0 1 0 5 0 a2.5 2.5 0 1 0 -5 0z"
                  fill="black"></path>
            <path d="M1287.5 130 a2.5 2.5 0 1 0 5 0 a2.5 2.5 0 1 0 -5 0zM1427.5 10 a2.5 2.5 0 1 0 5 0 a2.5 2.5 0 1 0 -5 0z"
                  fill="black"></path>
            <path d="M887.5 350 a2.5 2.5 0 1 0 5 0 a2.5 2.5 0 1 0 -5 0zM627.5 30 a2.5 2.5 0 1 0 5 0 a2.5 2.5 0 1 0 -5 0z"
                  fill="black"></path>
            <path d="M567.5 310 a2.5 2.5 0 1 0 5 0 a2.5 2.5 0 1 0 -5 0zM567.5 10 a2.5 2.5 0 1 0 5 0 a2.5 2.5 0 1 0 -5 0z"
                  fill="black"></path>
            <path d="M347.5 190 a2.5 2.5 0 1 0 5 0 a2.5 2.5 0 1 0 -5 0zM347.5 10 a2.5 2.5 0 1 0 5 0 a2.5 2.5 0 1 0 -5 0z"
                  fill="black"></path>
            <path d="M647.5 230 a2.5 2.5 0 1 0 5 0 a2.5 2.5 0 1 0 -5 0zM727.5 170 a2.5 2.5 0 1 0 5 0 a2.5 2.5 0 1 0 -5 0z"
                  fill="black"></path>
            <path d="M1327.5 50 a2.5 2.5 0 1 0 5 0 a2.5 2.5 0 1 0 -5 0zM1367.5 10 a2.5 2.5 0 1 0 5 0 a2.5 2.5 0 1 0 -5 0z"
                  fill="black"></path>
            <path d="M1007.5 530 a2.5 2.5 0 1 0 5 0 a2.5 2.5 0 1 0 -5 0zM787.5 470 a2.5 2.5 0 1 0 5 0 a2.5 2.5 0 1 0 -5 0z"
                  fill="black"></path>
            <path d="M907.5 410 a2.5 2.5 0 1 0 5 0 a2.5 2.5 0 1 0 -5 0zM687.5 550 a2.5 2.5 0 1 0 5 0 a2.5 2.5 0 1 0 -5 0z"
                  fill="black"></path>
            <path d="M1147.5 430 a2.5 2.5 0 1 0 5 0 a2.5 2.5 0 1 0 -5 0zM1167.5 550 a2.5 2.5 0 1 0 5 0 a2.5 2.5 0 1 0 -5 0z"
                  fill="black"></path>
            <path d="M827.5 390 a2.5 2.5 0 1 0 5 0 a2.5 2.5 0 1 0 -5 0zM867.5 370 a2.5 2.5 0 1 0 5 0 a2.5 2.5 0 1 0 -5 0z"
                  fill="black"></path>
            <path d="M1387.5 290 a2.5 2.5 0 1 0 5 0 a2.5 2.5 0 1 0 -5 0zM1427.5 530 a2.5 2.5 0 1 0 5 0 a2.5 2.5 0 1 0 -5 0z"
                  fill="black"></path>
            <path d="M47.5 450 a2.5 2.5 0 1 0 5 0 a2.5 2.5 0 1 0 -5 0zM427.5 550 a2.5 2.5 0 1 0 5 0 a2.5 2.5 0 1 0 -5 0z"
                  fill="black"></path>
            <path d="M1327.5 310 a2.5 2.5 0 1 0 5 0 a2.5 2.5 0 1 0 -5 0zM1147.5 370 a2.5 2.5 0 1 0 5 0 a2.5 2.5 0 1 0 -5 0z"
                  fill="black"></path>
            <path d="M247.5 450 a2.5 2.5 0 1 0 5 0 a2.5 2.5 0 1 0 -5 0zM87.5 430 a2.5 2.5 0 1 0 5 0 a2.5 2.5 0 1 0 -5 0z"
                  fill="black"></path>
            <path d="M647.5 130 a2.5 2.5 0 1 0 5 0 a2.5 2.5 0 1 0 -5 0zM367.5 130 a2.5 2.5 0 1 0 5 0 a2.5 2.5 0 1 0 -5 0z"
                  fill="black"></path>
            <path d="M1207.5 150 a2.5 2.5 0 1 0 5 0 a2.5 2.5 0 1 0 -5 0zM827.5 90 a2.5 2.5 0 1 0 5 0 a2.5 2.5 0 1 0 -5 0z"
                  fill="black"></path>
            <path d="M667.5 490 a2.5 2.5 0 1 0 5 0 a2.5 2.5 0 1 0 -5 0zM707.5 270 a2.5 2.5 0 1 0 5 0 a2.5 2.5 0 1 0 -5 0z"
                  fill="black"></path>
            <path d="M927.5 390 a2.5 2.5 0 1 0 5 0 a2.5 2.5 0 1 0 -5 0zM987.5 550 a2.5 2.5 0 1 0 5 0 a2.5 2.5 0 1 0 -5 0z"
                  fill="black"></path>
            <path d="M1267.5 550 a2.5 2.5 0 1 0 5 0 a2.5 2.5 0 1 0 -5 0zM1187.5 450 a2.5 2.5 0 1 0 5 0 a2.5 2.5 0 1 0 -5 0z"
                  fill="black"></path>
            <path d="M427.5 530 a2.5 2.5 0 1 0 5 0 a2.5 2.5 0 1 0 -5 0zM267.5 430 a2.5 2.5 0 1 0 5 0 a2.5 2.5 0 1 0 -5 0z"
                  fill="black"></path>
            <path d="M1127.5 270 a2.5 2.5 0 1 0 5 0 a2.5 2.5 0 1 0 -5 0zM1087.5 310 a2.5 2.5 0 1 0 5 0 a2.5 2.5 0 1 0 -5 0z"
                  fill="black"></path>
            <path d="M307.5 150 a2.5 2.5 0 1 0 5 0 a2.5 2.5 0 1 0 -5 0zM347.5 210 a2.5 2.5 0 1 0 5 0 a2.5 2.5 0 1 0 -5 0z"
                  fill="black"></path>
            <path d="M107.5 390 a2.5 2.5 0 1 0 5 0 a2.5 2.5 0 1 0 -5 0zM147.5 390 a2.5 2.5 0 1 0 5 0 a2.5 2.5 0 1 0 -5 0z"
                  fill="black"></path>
            <path d="M947.5 410 a2.5 2.5 0 1 0 5 0 a2.5 2.5 0 1 0 -5 0zM987.5 370 a2.5 2.5 0 1 0 5 0 a2.5 2.5 0 1 0 -5 0z"
                  fill="black"></path>
            <path d="M1187.5 490 a2.5 2.5 0 1 0 5 0 a2.5 2.5 0 1 0 -5 0zM1187.5 550 a2.5 2.5 0 1 0 5 0 a2.5 2.5 0 1 0 -5 0z"
                  fill="black"></path>
            <path d="M447.5 150 a2.5 2.5 0 1 0 5 0 a2.5 2.5 0 1 0 -5 0zM367.5 150 a2.5 2.5 0 1 0 5 0 a2.5 2.5 0 1 0 -5 0z"
                  fill="black"></path>
            <path d="M1387.5 430 a2.5 2.5 0 1 0 5 0 a2.5 2.5 0 1 0 -5 0zM1367.5 530 a2.5 2.5 0 1 0 5 0 a2.5 2.5 0 1 0 -5 0z"
                  fill="black"></path>
            <path d="M587.5 70 a2.5 2.5 0 1 0 5 0 a2.5 2.5 0 1 0 -5 0zM587.5 110 a2.5 2.5 0 1 0 5 0 a2.5 2.5 0 1 0 -5 0z"
                  fill="black"></path>
            <path d="M187.5 230 a2.5 2.5 0 1 0 5 0 a2.5 2.5 0 1 0 -5 0zM167.5 350 a2.5 2.5 0 1 0 5 0 a2.5 2.5 0 1 0 -5 0z"
                  fill="black"></path>
            <path d="M1007.5 10 a2.5 2.5 0 1 0 5 0 a2.5 2.5 0 1 0 -5 0zM1007.5 50 a2.5 2.5 0 1 0 5 0 a2.5 2.5 0 1 0 -5 0z"
                  fill="black"></path>
            <path d="M467.5 170 a2.5 2.5 0 1 0 5 0 a2.5 2.5 0 1 0 -5 0zM367.5 190 a2.5 2.5 0 1 0 5 0 a2.5 2.5 0 1 0 -5 0z"
                  fill="black"></path>
            <path d="M407.5 10 a2.5 2.5 0 1 0 5 0 a2.5 2.5 0 1 0 -5 0zM407.5 110 a2.5 2.5 0 1 0 5 0 a2.5 2.5 0 1 0 -5 0z"
                  fill="black"></path>
            <path d="M207.5 290 a2.5 2.5 0 1 0 5 0 a2.5 2.5 0 1 0 -5 0zM207.5 330 a2.5 2.5 0 1 0 5 0 a2.5 2.5 0 1 0 -5 0z"
                  fill="black"></path>
            <path d="M1127.5 350 a2.5 2.5 0 1 0 5 0 a2.5 2.5 0 1 0 -5 0zM1067.5 90 a2.5 2.5 0 1 0 5 0 a2.5 2.5 0 1 0 -5 0z"
                  fill="black"></path>
            <path d="M27.5 470 a2.5 2.5 0 1 0 5 0 a2.5 2.5 0 1 0 -5 0zM47.5 550 a2.5 2.5 0 1 0 5 0 a2.5 2.5 0 1 0 -5 0z"
                  fill="black"></path>
            <path d="M1027.5 150 a2.5 2.5 0 1 0 5 0 a2.5 2.5 0 1 0 -5 0zM1207.5 130 a2.5 2.5 0 1 0 5 0 a2.5 2.5 0 1 0 -5 0z"
                  fill="black"></path>
            <path d="M727.5 190 a2.5 2.5 0 1 0 5 0 a2.5 2.5 0 1 0 -5 0zM587.5 310 a2.5 2.5 0 1 0 5 0 a2.5 2.5 0 1 0 -5 0z"
                  fill="black"></path>
            <path d="M1007.5 150 a2.5 2.5 0 1 0 5 0 a2.5 2.5 0 1 0 -5 0zM1007.5 90 a2.5 2.5 0 1 0 5 0 a2.5 2.5 0 1 0 -5 0z"
                  fill="black"></path>
            <path d="M487.5 190 a2.5 2.5 0 1 0 5 0 a2.5 2.5 0 1 0 -5 0zM587.5 290 a2.5 2.5 0 1 0 5 0 a2.5 2.5 0 1 0 -5 0z"
                  fill="black"></path>
            <path d="M727.5 310 a2.5 2.5 0 1 0 5 0 a2.5 2.5 0 1 0 -5 0zM627.5 350 a2.5 2.5 0 1 0 5 0 a2.5 2.5 0 1 0 -5 0z"
                  fill="black"></path>
            <path d="M667.5 130 a2.5 2.5 0 1 0 5 0 a2.5 2.5 0 1 0 -5 0zM587.5 270 a2.5 2.5 0 1 0 5 0 a2.5 2.5 0 1 0 -5 0z"
                  fill="black"></path>
            <path d="M867.5 490 a2.5 2.5 0 1 0 5 0 a2.5 2.5 0 1 0 -5 0zM867.5 430 a2.5 2.5 0 1 0 5 0 a2.5 2.5 0 1 0 -5 0z"
                  fill="black"></path>
            <path d="M247.5 170 a2.5 2.5 0 1 0 5 0 a2.5 2.5 0 1 0 -5 0zM327.5 70 a2.5 2.5 0 1 0 5 0 a2.5 2.5 0 1 0 -5 0z"
                  fill="black"></path>
            <path d="M447.5 370 a2.5 2.5 0 1 0 5 0 a2.5 2.5 0 1 0 -5 0zM347.5 250 a2.5 2.5 0 1 0 5 0 a2.5 2.5 0 1 0 -5 0z"
                  fill="black"></path>
            <path d="M1047.5 450 a2.5 2.5 0 1 0 5 0 a2.5 2.5 0 1 0 -5 0zM1027.5 390 a2.5 2.5 0 1 0 5 0 a2.5 2.5 0 1 0 -5 0z"
                  fill="black"></path>
            <path d="M407.5 250 a2.5 2.5 0 1 0 5 0 a2.5 2.5 0 1 0 -5 0zM507.5 350 a2.5 2.5 0 1 0 5 0 a2.5 2.5 0 1 0 -5 0z"
                  fill="black"></path>
            <path d="M747.5 70 a2.5 2.5 0 1 0 5 0 a2.5 2.5 0 1 0 -5 0zM987.5 10 a2.5 2.5 0 1 0 5 0 a2.5 2.5 0 1 0 -5 0z"
                  fill="black"></path>
            <path d="M1307.5 110 a2.5 2.5 0 1 0 5 0 a2.5 2.5 0 1 0 -5 0zM1327.5 190 a2.5 2.5 0 1 0 5 0 a2.5 2.5 0 1 0 -5 0z"
                  fill="black"></path>
            <path d="M907.5 270 a2.5 2.5 0 1 0 5 0 a2.5 2.5 0 1 0 -5 0zM927.5 330 a2.5 2.5 0 1 0 5 0 a2.5 2.5 0 1 0 -5 0z"
                  fill="black"></path>
            <path d="M1367.5 370 a2.5 2.5 0 1 0 5 0 a2.5 2.5 0 1 0 -5 0zM1387.5 530 a2.5 2.5 0 1 0 5 0 a2.5 2.5 0 1 0 -5 0z"
                  fill="black"></path>
            <path d="M467.5 370 a2.5 2.5 0 1 0 5 0 a2.5 2.5 0 1 0 -5 0zM547.5 550 a2.5 2.5 0 1 0 5 0 a2.5 2.5 0 1 0 -5 0z"
                  fill="black"></path>
            <path d="M867.5 290 a2.5 2.5 0 1 0 5 0 a2.5 2.5 0 1 0 -5 0zM907.5 330 a2.5 2.5 0 1 0 5 0 a2.5 2.5 0 1 0 -5 0z"
                  fill="black"></path>
            <path d="M907.5 50 a2.5 2.5 0 1 0 5 0 a2.5 2.5 0 1 0 -5 0zM1187.5 130 a2.5 2.5 0 1 0 5 0 a2.5 2.5 0 1 0 -5 0z"
                  fill="black"></path>
            <path d="M287.5 470 a2.5 2.5 0 1 0 5 0 a2.5 2.5 0 1 0 -5 0zM347.5 510 a2.5 2.5 0 1 0 5 0 a2.5 2.5 0 1 0 -5 0z"
                  fill="black"></path>
            <path d="M1247.5 10 a2.5 2.5 0 1 0 5 0 a2.5 2.5 0 1 0 -5 0zM1307.5 10 a2.5 2.5 0 1 0 5 0 a2.5 2.5 0 1 0 -5 0z"
                  fill="black"></path>
            <path d="M1107.5 170 a2.5 2.5 0 1 0 5 0 a2.5 2.5 0 1 0 -5 0zM947.5 130 a2.5 2.5 0 1 0 5 0 a2.5 2.5 0 1 0 -5 0z"
                  fill="black"></path>
            <path d="M467.5 70 a2.5 2.5 0 1 0 5 0 a2.5 2.5 0 1 0 -5 0zM427.5 110 a2.5 2.5 0 1 0 5 0 a2.5 2.5 0 1 0 -5 0z"
                  fill="black"></path>
            <path d="M87.5 550 a2.5 2.5 0 1 0 5 0 a2.5 2.5 0 1 0 -5 0zM47.5 470 a2.5 2.5 0 1 0 5 0 a2.5 2.5 0 1 0 -5 0z"
                  fill="black"></path>
            <path d="M1387.5 510 a2.5 2.5 0 1 0 5 0 a2.5 2.5 0 1 0 -5 0zM1387.5 450 a2.5 2.5 0 1 0 5 0 a2.5 2.5 0 1 0 -5 0z"
                  fill="black"></path>
            <path d="M87.5 210 a2.5 2.5 0 1 0 5 0 a2.5 2.5 0 1 0 -5 0zM87.5 10 a2.5 2.5 0 1 0 5 0 a2.5 2.5 0 1 0 -5 0z"
                  fill="black"></path>
            <path d="M107.5 230 a2.5 2.5 0 1 0 5 0 a2.5 2.5 0 1 0 -5 0zM7.5 550 a2.5 2.5 0 1 0 5 0 a2.5 2.5 0 1 0 -5 0z"
                  fill="black"></path>
            <path d="M627.5 170 a2.5 2.5 0 1 0 5 0 a2.5 2.5 0 1 0 -5 0zM567.5 250 a2.5 2.5 0 1 0 5 0 a2.5 2.5 0 1 0 -5 0z"
                  fill="black"></path>
            <path d="M807.5 250 a2.5 2.5 0 1 0 5 0 a2.5 2.5 0 1 0 -5 0zM1147.5 410 a2.5 2.5 0 1 0 5 0 a2.5 2.5 0 1 0 -5 0z"
                  fill="black"></path>
            <path d="M127.5 470 a2.5 2.5 0 1 0 5 0 a2.5 2.5 0 1 0 -5 0zM87.5 450 a2.5 2.5 0 1 0 5 0 a2.5 2.5 0 1 0 -5 0z"
                  fill="black"></path>
            <path d="M1107.5 10 a2.5 2.5 0 1 0 5 0 a2.5 2.5 0 1 0 -5 0zM1027.5 50 a2.5 2.5 0 1 0 5 0 a2.5 2.5 0 1 0 -5 0z"
                  fill="black"></path>
            <path d="M667.5 10 a2.5 2.5 0 1 0 5 0 a2.5 2.5 0 1 0 -5 0zM787.5 10 a2.5 2.5 0 1 0 5 0 a2.5 2.5 0 1 0 -5 0z"
                  fill="black"></path>
            <path d="M127.5 110 a2.5 2.5 0 1 0 5 0 a2.5 2.5 0 1 0 -5 0zM187.5 10 a2.5 2.5 0 1 0 5 0 a2.5 2.5 0 1 0 -5 0z"
                  fill="black"></path>
            <path d="M947.5 530 a2.5 2.5 0 1 0 5 0 a2.5 2.5 0 1 0 -5 0zM887.5 430 a2.5 2.5 0 1 0 5 0 a2.5 2.5 0 1 0 -5 0z"
                  fill="black"></path>
            <path d="M1107.5 470 a2.5 2.5 0 1 0 5 0 a2.5 2.5 0 1 0 -5 0zM1127.5 550 a2.5 2.5 0 1 0 5 0 a2.5 2.5 0 1 0 -5 0z"
                  fill="black"></path>
            <path d="M727.5 50 a2.5 2.5 0 1 0 5 0 a2.5 2.5 0 1 0 -5 0zM867.5 110 a2.5 2.5 0 1 0 5 0 a2.5 2.5 0 1 0 -5 0z"
                  fill="black"></path>
            <path d="M247.5 490 a2.5 2.5 0 1 0 5 0 a2.5 2.5 0 1 0 -5 0zM307.5 530 a2.5 2.5 0 1 0 5 0 a2.5 2.5 0 1 0 -5 0z"
                  fill="black"></path>
            <path d="M1427.5 270 a2.5 2.5 0 1 0 5 0 a2.5 2.5 0 1 0 -5 0zM1427.5 190 a2.5 2.5 0 1 0 5 0 a2.5 2.5 0 1 0 -5 0z"
                  fill="black"></path>
            <path d="M1427.5 290 a2.5 2.5 0 1 0 5 0 a2.5 2.5 0 1 0 -5 0zM1367.5 170 a2.5 2.5 0 1 0 5 0 a2.5 2.5 0 1 0 -5 0z"
                  fill="black"></path>
            <path d="M807.5 130 a2.5 2.5 0 1 0 5 0 a2.5 2.5 0 1 0 -5 0zM987.5 30 a2.5 2.5 0 1 0 5 0 a2.5 2.5 0 1 0 -5 0z"
                  fill="black"></path>
            <path d="M1127.5 450 a2.5 2.5 0 1 0 5 0 a2.5 2.5 0 1 0 -5 0zM867.5 190 a2.5 2.5 0 1 0 5 0 a2.5 2.5 0 1 0 -5 0z"
                  fill="black"></path>
            <path d="M187.5 90 a2.5 2.5 0 1 0 5 0 a2.5 2.5 0 1 0 -5 0zM167.5 330 a2.5 2.5 0 1 0 5 0 a2.5 2.5 0 1 0 -5 0z"
                  fill="black"></path>
            <path d="M467.5 530 a2.5 2.5 0 1 0 5 0 a2.5 2.5 0 1 0 -5 0zM567.5 530 a2.5 2.5 0 1 0 5 0 a2.5 2.5 0 1 0 -5 0z"
                  fill="black"></path>
            <path d="M187.5 130 a2.5 2.5 0 1 0 5 0 a2.5 2.5 0 1 0 -5 0zM267.5 290 a2.5 2.5 0 1 0 5 0 a2.5 2.5 0 1 0 -5 0z"
                  fill="black"></path>
            <path d="M827.5 490 a2.5 2.5 0 1 0 5 0 a2.5 2.5 0 1 0 -5 0zM967.5 550 a2.5 2.5 0 1 0 5 0 a2.5 2.5 0 1 0 -5 0z"
                  fill="black"></path>
            <path d="M1207.5 550 a2.5 2.5 0 1 0 5 0 a2.5 2.5 0 1 0 -5 0zM1207.5 510 a2.5 2.5 0 1 0 5 0 a2.5 2.5 0 1 0 -5 0z"
                  fill="black"></path>
            <path d="M587.5 30 a2.5 2.5 0 1 0 5 0 a2.5 2.5 0 1 0 -5 0zM427.5 90 a2.5 2.5 0 1 0 5 0 a2.5 2.5 0 1 0 -5 0z"
                  fill="black"></path>
            <path d="M567.5 150 a2.5 2.5 0 1 0 5 0 a2.5 2.5 0 1 0 -5 0zM647.5 150 a2.5 2.5 0 1 0 5 0 a2.5 2.5 0 1 0 -5 0z"
                  fill="black"></path>
            <path d="M1127.5 170 a2.5 2.5 0 1 0 5 0 a2.5 2.5 0 1 0 -5 0zM1167.5 130 a2.5 2.5 0 1 0 5 0 a2.5 2.5 0 1 0 -5 0z"
                  fill="black"></path>
            <path d="M1307.5 370 a2.5 2.5 0 1 0 5 0 a2.5 2.5 0 1 0 -5 0zM1307.5 530 a2.5 2.5 0 1 0 5 0 a2.5 2.5 0 1 0 -5 0z"
                  fill="black"></path>
            <path d="M1247.5 90 a2.5 2.5 0 1 0 5 0 a2.5 2.5 0 1 0 -5 0zM1207.5 90 a2.5 2.5 0 1 0 5 0 a2.5 2.5 0 1 0 -5 0z"
                  fill="black"></path>
            <path d="M407.5 490 a2.5 2.5 0 1 0 5 0 a2.5 2.5 0 1 0 -5 0zM427.5 390 a2.5 2.5 0 1 0 5 0 a2.5 2.5 0 1 0 -5 0z"
                  fill="black"></path>
            <path d="M307.5 390 a2.5 2.5 0 1 0 5 0 a2.5 2.5 0 1 0 -5 0zM367.5 330 a2.5 2.5 0 1 0 5 0 a2.5 2.5 0 1 0 -5 0z"
                  fill="black"></path>
            <path d="M547.5 190 a2.5 2.5 0 1 0 5 0 a2.5 2.5 0 1 0 -5 0zM607.5 170 a2.5 2.5 0 1 0 5 0 a2.5 2.5 0 1 0 -5 0z"
                  fill="black"></path>
            <path d="M607.5 210 a2.5 2.5 0 1 0 5 0 a2.5 2.5 0 1 0 -5 0zM587.5 250 a2.5 2.5 0 1 0 5 0 a2.5 2.5 0 1 0 -5 0z"
                  fill="black"></path>
            <path d="M47.5 170 a2.5 2.5 0 1 0 5 0 a2.5 2.5 0 1 0 -5 0zM47.5 10 a2.5 2.5 0 1 0 5 0 a2.5 2.5 0 1 0 -5 0z"
                  fill="black"></path>
            <path d="M27.5 270 a2.5 2.5 0 1 0 5 0 a2.5 2.5 0 1 0 -5 0zM7.5 430 a2.5 2.5 0 1 0 5 0 a2.5 2.5 0 1 0 -5 0z"
                  fill="black"></path>
            <path d="M1307.5 230 a2.5 2.5 0 1 0 5 0 a2.5 2.5 0 1 0 -5 0zM1267.5 170 a2.5 2.5 0 1 0 5 0 a2.5 2.5 0 1 0 -5 0z"
                  fill="black"></path>
            <path d="M1247.5 350 a2.5 2.5 0 1 0 5 0 a2.5 2.5 0 1 0 -5 0zM1187.5 350 a2.5 2.5 0 1 0 5 0 a2.5 2.5 0 1 0 -5 0z"
                  fill="black"></path>
            <path d="M427.5 470 a2.5 2.5 0 1 0 5 0 a2.5 2.5 0 1 0 -5 0zM427.5 410 a2.5 2.5 0 1 0 5 0 a2.5 2.5 0 1 0 -5 0z"
                  fill="black"></path>
            <path d="M1207.5 190 a2.5 2.5 0 1 0 5 0 a2.5 2.5 0 1 0 -5 0zM1127.5 250 a2.5 2.5 0 1 0 5 0 a2.5 2.5 0 1 0 -5 0z"
                  fill="black"></path>
            <path d="M1067.5 190 a2.5 2.5 0 1 0 5 0 a2.5 2.5 0 1 0 -5 0zM1127.5 190 a2.5 2.5 0 1 0 5 0 a2.5 2.5 0 1 0 -5 0z"
                  fill="black"></path>
            <path d="M807.5 110 a2.5 2.5 0 1 0 5 0 a2.5 2.5 0 1 0 -5 0zM847.5 110 a2.5 2.5 0 1 0 5 0 a2.5 2.5 0 1 0 -5 0z"
                  fill="black"></path>
            <path d="M227.5 410 a2.5 2.5 0 1 0 5 0 a2.5 2.5 0 1 0 -5 0zM127.5 510 a2.5 2.5 0 1 0 5 0 a2.5 2.5 0 1 0 -5 0z"
                  fill="black"></path>
            <path d="M47.5 310 a2.5 2.5 0 1 0 5 0 a2.5 2.5 0 1 0 -5 0zM47.5 370 a2.5 2.5 0 1 0 5 0 a2.5 2.5 0 1 0 -5 0z"
                  fill="black"></path>
            <path d="M427.5 50 a2.5 2.5 0 1 0 5 0 a2.5 2.5 0 1 0 -5 0zM427.5 10 a2.5 2.5 0 1 0 5 0 a2.5 2.5 0 1 0 -5 0z"
                  fill="black"></path>
            <path d="M1247.5 370 a2.5 2.5 0 1 0 5 0 a2.5 2.5 0 1 0 -5 0zM1327.5 330 a2.5 2.5 0 1 0 5 0 a2.5 2.5 0 1 0 -5 0z"
                  fill="black"></path>
            <path d="M747.5 450 a2.5 2.5 0 1 0 5 0 a2.5 2.5 0 1 0 -5 0zM687.5 530 a2.5 2.5 0 1 0 5 0 a2.5 2.5 0 1 0 -5 0z"
                  fill="black"></path>
            <path d="M387.5 10 a2.5 2.5 0 1 0 5 0 a2.5 2.5 0 1 0 -5 0zM387.5 110 a2.5 2.5 0 1 0 5 0 a2.5 2.5 0 1 0 -5 0z"
                  fill="black"></path>
            <path d="M1427.5 30 a2.5 2.5 0 1 0 5 0 a2.5 2.5 0 1 0 -5 0zM1327.5 170 a2.5 2.5 0 1 0 5 0 a2.5 2.5 0 1 0 -5 0z"
                  fill="black"></path>
            <path d="M467.5 270 a2.5 2.5 0 1 0 5 0 a2.5 2.5 0 1 0 -5 0zM567.5 290 a2.5 2.5 0 1 0 5 0 a2.5 2.5 0 1 0 -5 0z"
                  fill="black"></path>
            <path d="M807.5 430 a2.5 2.5 0 1 0 5 0 a2.5 2.5 0 1 0 -5 0zM707.5 530 a2.5 2.5 0 1 0 5 0 a2.5 2.5 0 1 0 -5 0z"
                  fill="black"></path>
            <path d="M347.5 470 a2.5 2.5 0 1 0 5 0 a2.5 2.5 0 1 0 -5 0zM387.5 490 a2.5 2.5 0 1 0 5 0 a2.5 2.5 0 1 0 -5 0z"
                  fill="black"></path>
            <path d="M127.5 210 a2.5 2.5 0 1 0 5 0 a2.5 2.5 0 1 0 -5 0zM167.5 10 a2.5 2.5 0 1 0 5 0 a2.5 2.5 0 1 0 -5 0z"
                  fill="black"></path>
            <path d="M287.5 130 a2.5 2.5 0 1 0 5 0 a2.5 2.5 0 1 0 -5 0zM247.5 150 a2.5 2.5 0 1 0 5 0 a2.5 2.5 0 1 0 -5 0z"
                  fill="black"></path>
            <path d="M767.5 350 a2.5 2.5 0 1 0 5 0 a2.5 2.5 0 1 0 -5 0zM707.5 430 a2.5 2.5 0 1 0 5 0 a2.5 2.5 0 1 0 -5 0z"
                  fill="black"></path>
            <path d="M1247.5 450 a2.5 2.5 0 1 0 5 0 a2.5 2.5 0 1 0 -5 0zM1187.5 410 a2.5 2.5 0 1 0 5 0 a2.5 2.5 0 1 0 -5 0z"
                  fill="black"></path>
            <path d="M507.5 10 a2.5 2.5 0 1 0 5 0 a2.5 2.5 0 1 0 -5 0zM447.5 10 a2.5 2.5 0 1 0 5 0 a2.5 2.5 0 1 0 -5 0z"
                  fill="black"></path>
            <path d="M687.5 350 a2.5 2.5 0 1 0 5 0 a2.5 2.5 0 1 0 -5 0zM747.5 350 a2.5 2.5 0 1 0 5 0 a2.5 2.5 0 1 0 -5 0z"
                  fill="black"></path>
            <path d="M227.5 70 a2.5 2.5 0 1 0 5 0 a2.5 2.5 0 1 0 -5 0zM167.5 90 a2.5 2.5 0 1 0 5 0 a2.5 2.5 0 1 0 -5 0z"
                  fill="black"></path>
            <path d="M1267.5 410 a2.5 2.5 0 1 0 5 0 a2.5 2.5 0 1 0 -5 0zM1267.5 370 a2.5 2.5 0 1 0 5 0 a2.5 2.5 0 1 0 -5 0z"
                  fill="black"></path>
            <path d="M887.5 490 a2.5 2.5 0 1 0 5 0 a2.5 2.5 0 1 0 -5 0zM887.5 450 a2.5 2.5 0 1 0 5 0 a2.5 2.5 0 1 0 -5 0z"
                  fill="black"></path>
            <path d="M547.5 470 a2.5 2.5 0 1 0 5 0 a2.5 2.5 0 1 0 -5 0zM427.5 490 a2.5 2.5 0 1 0 5 0 a2.5 2.5 0 1 0 -5 0z"
                  fill="black"></path>
            <path d="M27.5 190 a2.5 2.5 0 1 0 5 0 a2.5 2.5 0 1 0 -5 0zM87.5 290 a2.5 2.5 0 1 0 5 0 a2.5 2.5 0 1 0 -5 0z"
                  fill="black"></path>
            <path d="M647.5 90 a2.5 2.5 0 1 0 5 0 a2.5 2.5 0 1 0 -5 0zM467.5 50 a2.5 2.5 0 1 0 5 0 a2.5 2.5 0 1 0 -5 0z"
                  fill="black"></path>
            <path d="M107.5 150 a2.5 2.5 0 1 0 5 0 a2.5 2.5 0 1 0 -5 0zM107.5 210 a2.5 2.5 0 1 0 5 0 a2.5 2.5 0 1 0 -5 0z"
                  fill="black"></path>
            <path d="M1247.5 290 a2.5 2.5 0 1 0 5 0 a2.5 2.5 0 1 0 -5 0zM1327.5 290 a2.5 2.5 0 1 0 5 0 a2.5 2.5 0 1 0 -5 0z"
                  fill="black"></path>
            <path d="M847.5 550 a2.5 2.5 0 1 0 5 0 a2.5 2.5 0 1 0 -5 0zM807.5 490 a2.5 2.5 0 1 0 5 0 a2.5 2.5 0 1 0 -5 0z"
                  fill="black"></path>
            <path d="M807.5 290 a2.5 2.5 0 1 0 5 0 a2.5 2.5 0 1 0 -5 0zM887.5 250 a2.5 2.5 0 1 0 5 0 a2.5 2.5 0 1 0 -5 0z"
                  fill="black"></path>
            <path d="M887.5 50 a2.5 2.5 0 1 0 5 0 a2.5 2.5 0 1 0 -5 0zM787.5 90 a2.5 2.5 0 1 0 5 0 a2.5 2.5 0 1 0 -5 0z"
                  fill="black"></path>
            <path d="M787.5 150 a2.5 2.5 0 1 0 5 0 a2.5 2.5 0 1 0 -5 0zM747.5 90 a2.5 2.5 0 1 0 5 0 a2.5 2.5 0 1 0 -5 0z"
                  fill="black"></path>
            <path d="M347.5 370 a2.5 2.5 0 1 0 5 0 a2.5 2.5 0 1 0 -5 0zM347.5 330 a2.5 2.5 0 1 0 5 0 a2.5 2.5 0 1 0 -5 0z"
                  fill="black"></path>
            <path d="M1267.5 50 a2.5 2.5 0 1 0 5 0 a2.5 2.5 0 1 0 -5 0zM1127.5 10 a2.5 2.5 0 1 0 5 0 a2.5 2.5 0 1 0 -5 0z"
                  fill="black"></path>
            <path d="M827.5 550 a2.5 2.5 0 1 0 5 0 a2.5 2.5 0 1 0 -5 0zM787.5 510 a2.5 2.5 0 1 0 5 0 a2.5 2.5 0 1 0 -5 0z"
                  fill="black"></path>
            <path d="M987.5 110 a2.5 2.5 0 1 0 5 0 a2.5 2.5 0 1 0 -5 0zM987.5 150 a2.5 2.5 0 1 0 5 0 a2.5 2.5 0 1 0 -5 0z"
                  fill="black"></path>
            <path d="M1207.5 370 a2.5 2.5 0 1 0 5 0 a2.5 2.5 0 1 0 -5 0zM1267.5 490 a2.5 2.5 0 1 0 5 0 a2.5 2.5 0 1 0 -5 0z"
                  fill="black"></path>
            <path d="M827.5 70 a2.5 2.5 0 1 0 5 0 a2.5 2.5 0 1 0 -5 0zM867.5 70 a2.5 2.5 0 1 0 5 0 a2.5 2.5 0 1 0 -5 0z"
                  fill="black"></path>
            <path d="M867.5 250 a2.5 2.5 0 1 0 5 0 a2.5 2.5 0 1 0 -5 0zM867.5 210 a2.5 2.5 0 1 0 5 0 a2.5 2.5 0 1 0 -5 0z"
                  fill="black"></path>
            <path d="M1387.5 230 a2.5 2.5 0 1 0 5 0 a2.5 2.5 0 1 0 -5 0zM1387.5 190 a2.5 2.5 0 1 0 5 0 a2.5 2.5 0 1 0 -5 0z"
                  fill="black"></path>
            <path d="M567.5 70 a2.5 2.5 0 1 0 5 0 a2.5 2.5 0 1 0 -5 0zM487.5 70 a2.5 2.5 0 1 0 5 0 a2.5 2.5 0 1 0 -5 0z"
                  fill="black"></path>
            <path d="M1067.5 210 a2.5 2.5 0 1 0 5 0 a2.5 2.5 0 1 0 -5 0zM1107.5 210 a2.5 2.5 0 1 0 5 0 a2.5 2.5 0 1 0 -5 0z"
                  fill="black"></path>
            <path d="M67.5 270 a2.5 2.5 0 1 0 5 0 a2.5 2.5 0 1 0 -5 0zM27.5 210 a2.5 2.5 0 1 0 5 0 a2.5 2.5 0 1 0 -5 0z"
                  fill="black"></path>
            <path d="M187.5 530 a2.5 2.5 0 1 0 5 0 a2.5 2.5 0 1 0 -5 0zM287.5 530 a2.5 2.5 0 1 0 5 0 a2.5 2.5 0 1 0 -5 0z"
                  fill="black"></path>
            <path d="M1267.5 90 a2.5 2.5 0 1 0 5 0 a2.5 2.5 0 1 0 -5 0zM1307.5 70 a2.5 2.5 0 1 0 5 0 a2.5 2.5 0 1 0 -5 0z"
                  fill="black"></path>
            <path d="M27.5 110 a2.5 2.5 0 1 0 5 0 a2.5 2.5 0 1 0 -5 0zM27.5 170 a2.5 2.5 0 1 0 5 0 a2.5 2.5 0 1 0 -5 0z"
                  fill="black"></path>
            <path d="M627.5 210 a2.5 2.5 0 1 0 5 0 a2.5 2.5 0 1 0 -5 0zM647.5 170 a2.5 2.5 0 1 0 5 0 a2.5 2.5 0 1 0 -5 0z"
                  fill="black"></path>
            <path d="M707.5 310 a2.5 2.5 0 1 0 5 0 a2.5 2.5 0 1 0 -5 0zM747.5 330 a2.5 2.5 0 1 0 5 0 a2.5 2.5 0 1 0 -5 0z"
                  fill="black"></path>
            <path d="M1367.5 270 a2.5 2.5 0 1 0 5 0 a2.5 2.5 0 1 0 -5 0zM1367.5 190 a2.5 2.5 0 1 0 5 0 a2.5 2.5 0 1 0 -5 0z"
                  fill="black"></path>
            <path d="M607.5 510 a2.5 2.5 0 1 0 5 0 a2.5 2.5 0 1 0 -5 0zM647.5 450 a2.5 2.5 0 1 0 5 0 a2.5 2.5 0 1 0 -5 0z"
                  fill="black"></path>
            <path d="M1167.5 50 a2.5 2.5 0 1 0 5 0 a2.5 2.5 0 1 0 -5 0zM1107.5 50 a2.5 2.5 0 1 0 5 0 a2.5 2.5 0 1 0 -5 0z"
                  fill="black"></path>
            <path d="M1107.5 550 a2.5 2.5 0 1 0 5 0 a2.5 2.5 0 1 0 -5 0zM1067.5 430 a2.5 2.5 0 1 0 5 0 a2.5 2.5 0 1 0 -5 0z"
                  fill="black"></path>
            <path d="M247.5 110 a2.5 2.5 0 1 0 5 0 a2.5 2.5 0 1 0 -5 0zM327.5 210 a2.5 2.5 0 1 0 5 0 a2.5 2.5 0 1 0 -5 0z"
                  fill="black"></path>
            <path d="M27.5 10 a2.5 2.5 0 1 0 5 0 a2.5 2.5 0 1 0 -5 0zM27.5 90 a2.5 2.5 0 1 0 5 0 a2.5 2.5 0 1 0 -5 0z"
                  fill="black"></path>
            <path d="M1407.5 90 a2.5 2.5 0 1 0 5 0 a2.5 2.5 0 1 0 -5 0zM1387.5 50 a2.5 2.5 0 1 0 5 0 a2.5 2.5 0 1 0 -5 0z"
                  fill="black"></path>
            <path d="M67.5 50 a2.5 2.5 0 1 0 5 0 a2.5 2.5 0 1 0 -5 0zM67.5 10 a2.5 2.5 0 1 0 5 0 a2.5 2.5 0 1 0 -5 0z"
                  fill="black"></path>
            <path d="M187.5 110 a2.5 2.5 0 1 0 5 0 a2.5 2.5 0 1 0 -5 0zM207.5 150 a2.5 2.5 0 1 0 5 0 a2.5 2.5 0 1 0 -5 0z"
                  fill="black"></path>
            <path d="M507.5 390 a2.5 2.5 0 1 0 5 0 a2.5 2.5 0 1 0 -5 0zM667.5 390 a2.5 2.5 0 1 0 5 0 a2.5 2.5 0 1 0 -5 0z"
                  fill="black"></path>
            <path d="M1327.5 370 a2.5 2.5 0 1 0 5 0 a2.5 2.5 0 1 0 -5 0zM1327.5 530 a2.5 2.5 0 1 0 5 0 a2.5 2.5 0 1 0 -5 0z"
                  fill="black"></path>
            <path d="M687.5 130 a2.5 2.5 0 1 0 5 0 a2.5 2.5 0 1 0 -5 0zM687.5 170 a2.5 2.5 0 1 0 5 0 a2.5 2.5 0 1 0 -5 0z"
                  fill="black"></path>
            <path d="M907.5 530 a2.5 2.5 0 1 0 5 0 a2.5 2.5 0 1 0 -5 0zM907.5 470 a2.5 2.5 0 1 0 5 0 a2.5 2.5 0 1 0 -5 0z"
                  fill="black"></path>
            <path d="M1067.5 110 a2.5 2.5 0 1 0 5 0 a2.5 2.5 0 1 0 -5 0zM1027.5 90 a2.5 2.5 0 1 0 5 0 a2.5 2.5 0 1 0 -5 0z"
                  fill="black"></path>
            <path d="M1387.5 150 a2.5 2.5 0 1 0 5 0 a2.5 2.5 0 1 0 -5 0zM1427.5 150 a2.5 2.5 0 1 0 5 0 a2.5 2.5 0 1 0 -5 0z"
                  fill="black"></path>
            <path d="M127.5 450 a2.5 2.5 0 1 0 5 0 a2.5 2.5 0 1 0 -5 0zM207.5 470 a2.5 2.5 0 1 0 5 0 a2.5 2.5 0 1 0 -5 0z"
                  fill="black"></path>
            <path d="M287.5 410 a2.5 2.5 0 1 0 5 0 a2.5 2.5 0 1 0 -5 0zM267.5 370 a2.5 2.5 0 1 0 5 0 a2.5 2.5 0 1 0 -5 0z"
                  fill="black"></path>
            <path d="M467.5 210 a2.5 2.5 0 1 0 5 0 a2.5 2.5 0 1 0 -5 0zM527.5 250 a2.5 2.5 0 1 0 5 0 a2.5 2.5 0 1 0 -5 0z"
                  fill="black"></path>
            <path d="M1407.5 370 a2.5 2.5 0 1 0 5 0 a2.5 2.5 0 1 0 -5 0zM1367.5 290 a2.5 2.5 0 1 0 5 0 a2.5 2.5 0 1 0 -5 0z"
                  fill="black"></path>
            <path d="M527.5 210 a2.5 2.5 0 1 0 5 0 a2.5 2.5 0 1 0 -5 0zM527.5 150 a2.5 2.5 0 1 0 5 0 a2.5 2.5 0 1 0 -5 0z"
                  fill="black"></path>
            <path d="M1367.5 110 a2.5 2.5 0 1 0 5 0 a2.5 2.5 0 1 0 -5 0zM1427.5 130 a2.5 2.5 0 1 0 5 0 a2.5 2.5 0 1 0 -5 0z"
                  fill="black"></path>
            <path d="M287.5 110 a2.5 2.5 0 1 0 5 0 a2.5 2.5 0 1 0 -5 0zM247.5 130 a2.5 2.5 0 1 0 5 0 a2.5 2.5 0 1 0 -5 0z"
                  fill="black"></path>
            <path d="M1407.5 110 a2.5 2.5 0 1 0 5 0 a2.5 2.5 0 1 0 -5 0zM1347.5 90 a2.5 2.5 0 1 0 5 0 a2.5 2.5 0 1 0 -5 0z"
                  fill="black"></path>
            <path d="M167.5 410 a2.5 2.5 0 1 0 5 0 a2.5 2.5 0 1 0 -5 0zM147.5 450 a2.5 2.5 0 1 0 5 0 a2.5 2.5 0 1 0 -5 0z"
                  fill="black"></path>
            <path d="M487.5 490 a2.5 2.5 0 1 0 5 0 a2.5 2.5 0 1 0 -5 0zM527.5 490 a2.5 2.5 0 1 0 5 0 a2.5 2.5 0 1 0 -5 0z"
                  fill="black"></path>
            <path d="M647.5 510 a2.5 2.5 0 1 0 5 0 a2.5 2.5 0 1 0 -5 0zM607.5 550 a2.5 2.5 0 1 0 5 0 a2.5 2.5 0 1 0 -5 0z"
                  fill="black"></path>
            <path d="M67.5 490 a2.5 2.5 0 1 0 5 0 a2.5 2.5 0 1 0 -5 0zM107.5 550 a2.5 2.5 0 1 0 5 0 a2.5 2.5 0 1 0 -5 0z"
                  fill="black"></path>
            <path d="M1047.5 230 a2.5 2.5 0 1 0 5 0 a2.5 2.5 0 1 0 -5 0zM1047.5 190 a2.5 2.5 0 1 0 5 0 a2.5 2.5 0 1 0 -5 0z"
                  fill="black"></path>
            <path d="M1207.5 30 a2.5 2.5 0 1 0 5 0 a2.5 2.5 0 1 0 -5 0zM1167.5 30 a2.5 2.5 0 1 0 5 0 a2.5 2.5 0 1 0 -5 0z"
                  fill="black"></path>
            <path d="M267.5 10 a2.5 2.5 0 1 0 5 0 a2.5 2.5 0 1 0 -5 0zM207.5 30 a2.5 2.5 0 1 0 5 0 a2.5 2.5 0 1 0 -5 0z"
                  fill="black"></path>
            <path d="M1207.5 230 a2.5 2.5 0 1 0 5 0 a2.5 2.5 0 1 0 -5 0zM1187.5 310 a2.5 2.5 0 1 0 5 0 a2.5 2.5 0 1 0 -5 0z"
                  fill="black"></path>
            <path d="M207.5 450 a2.5 2.5 0 1 0 5 0 a2.5 2.5 0 1 0 -5 0zM167.5 430 a2.5 2.5 0 1 0 5 0 a2.5 2.5 0 1 0 -5 0z"
                  fill="black"></path>
            <path d="M687.5 50 a2.5 2.5 0 1 0 5 0 a2.5 2.5 0 1 0 -5 0zM707.5 90 a2.5 2.5 0 1 0 5 0 a2.5 2.5 0 1 0 -5 0z"
                  fill="black"></path>
            <path d="M1087.5 550 a2.5 2.5 0 1 0 5 0 a2.5 2.5 0 1 0 -5 0zM1027.5 490 a2.5 2.5 0 1 0 5 0 a2.5 2.5 0 1 0 -5 0z"
                  fill="black"></path>
            <path d="M527.5 330 a2.5 2.5 0 1 0 5 0 a2.5 2.5 0 1 0 -5 0zM547.5 290 a2.5 2.5 0 1 0 5 0 a2.5 2.5 0 1 0 -5 0z"
                  fill="black"></path>
            <path d="M1167.5 270 a2.5 2.5 0 1 0 5 0 a2.5 2.5 0 1 0 -5 0zM1147.5 310 a2.5 2.5 0 1 0 5 0 a2.5 2.5 0 1 0 -5 0z"
                  fill="black"></path>
            <path d="M727.5 230 a2.5 2.5 0 1 0 5 0 a2.5 2.5 0 1 0 -5 0zM727.5 270 a2.5 2.5 0 1 0 5 0 a2.5 2.5 0 1 0 -5 0z"
                  fill="black"></path>
            <path d="M1047.5 470 a2.5 2.5 0 1 0 5 0 a2.5 2.5 0 1 0 -5 0zM1087.5 510 a2.5 2.5 0 1 0 5 0 a2.5 2.5 0 1 0 -5 0z"
                  fill="black"></path>
            <path d="M747.5 470 a2.5 2.5 0 1 0 5 0 a2.5 2.5 0 1 0 -5 0zM707.5 510 a2.5 2.5 0 1 0 5 0 a2.5 2.5 0 1 0 -5 0z"
                  fill="black"></path>
            <path d="M487.5 470 a2.5 2.5 0 1 0 5 0 a2.5 2.5 0 1 0 -5 0zM527.5 470 a2.5 2.5 0 1 0 5 0 a2.5 2.5 0 1 0 -5 0z"
                  fill="black"></path>
            <path d="M187.5 70 a2.5 2.5 0 1 0 5 0 a2.5 2.5 0 1 0 -5 0zM227.5 90 a2.5 2.5 0 1 0 5 0 a2.5 2.5 0 1 0 -5 0z"
                  fill="black"></path>
            <path d="M707.5 30 a2.5 2.5 0 1 0 5 0 a2.5 2.5 0 1 0 -5 0zM627.5 10 a2.5 2.5 0 1 0 5 0 a2.5 2.5 0 1 0 -5 0z"
                  fill="black"></path>
            <path d="M367.5 10 a2.5 2.5 0 1 0 5 0 a2.5 2.5 0 1 0 -5 0zM367.5 50 a2.5 2.5 0 1 0 5 0 a2.5 2.5 0 1 0 -5 0z"
                  fill="black"></path>
            <path d="M507.5 110 a2.5 2.5 0 1 0 5 0 a2.5 2.5 0 1 0 -5 0zM567.5 90 a2.5 2.5 0 1 0 5 0 a2.5 2.5 0 1 0 -5 0z"
                  fill="black"></path>
            <path d="M1027.5 30 a2.5 2.5 0 1 0 5 0 a2.5 2.5 0 1 0 -5 0zM1087.5 30 a2.5 2.5 0 1 0 5 0 a2.5 2.5 0 1 0 -5 0z"
                  fill="black"></path>
            <path d="M1187.5 50 a2.5 2.5 0 1 0 5 0 a2.5 2.5 0 1 0 -5 0zM1247.5 50 a2.5 2.5 0 1 0 5 0 a2.5 2.5 0 1 0 -5 0z"
                  fill="black"></path>
            <path d="M1427.5 110 a2.5 2.5 0 1 0 5 0 a2.5 2.5 0 1 0 -5 0zM1427.5 70 a2.5 2.5 0 1 0 5 0 a2.5 2.5 0 1 0 -5 0z"
                  fill="black"></path>
            <path d="M1267.5 210 a2.5 2.5 0 1 0 5 0 a2.5 2.5 0 1 0 -5 0zM1267.5 250 a2.5 2.5 0 1 0 5 0 a2.5 2.5 0 1 0 -5 0z"
                  fill="black"></path>
            <path d="M747.5 230 a2.5 2.5 0 1 0 5 0 a2.5 2.5 0 1 0 -5 0zM747.5 270 a2.5 2.5 0 1 0 5 0 a2.5 2.5 0 1 0 -5 0z"
                  fill="black"></path>
            <path d="M127.5 270 a2.5 2.5 0 1 0 5 0 a2.5 2.5 0 1 0 -5 0zM127.5 230 a2.5 2.5 0 1 0 5 0 a2.5 2.5 0 1 0 -5 0z"
                  fill="black"></path>
            <path d="M1107.5 110 a2.5 2.5 0 1 0 5 0 a2.5 2.5 0 1 0 -5 0zM1047.5 130 a2.5 2.5 0 1 0 5 0 a2.5 2.5 0 1 0 -5 0z"
                  fill="black"></path>
            <path d="M447.5 230 a2.5 2.5 0 1 0 5 0 a2.5 2.5 0 1 0 -5 0zM487.5 250 a2.5 2.5 0 1 0 5 0 a2.5 2.5 0 1 0 -5 0z"
                  fill="black"></path>
            <path d="M1287.5 210 a2.5 2.5 0 1 0 5 0 a2.5 2.5 0 1 0 -5 0zM1287.5 250 a2.5 2.5 0 1 0 5 0 a2.5 2.5 0 1 0 -5 0z"
                  fill="black"></path>
        </mask>
    </defs>
</svg>