<svg width="1380" height="1024" viewBox="0 0 1380 1024" fill="none" xmlns="http://www.w3.org/2000/svg">
    <g clip-path="url(#clip0_49_3133)">
        <path d="M1379.58 0H0V1033H1379.58V0Z" fill="#0F06FA"/>
        <path d="M0.000305176 2066C1142.88 2066 2069.37 1141.02 2069.37 0.000244141C2069.37 -1141.02 1142.88 -2066 0.000305176 -2066C-1142.88 -2066 -2069.36 -1141.02 -2069.36 0.000244141C-2069.36 1141.02 -1142.88 2066 0.000305176 2066Z" fill="url(#paint0_radial_49_3133)"/>
        <g opacity="0.5">
            <path d="M0.000244141 1377.33C761.919 1377.33 1379.58 760.681 1379.58 0.000244141C1379.58 -760.68 761.919 -1377.33 0.000244141 -1377.33C-761.919 -1377.33 -1379.58 -760.68 -1379.58 0.000244141C-1379.58 760.681 -761.919 1377.33 0.000244141 1377.33Z" fill="url(#paint1_radial_49_3133)"/>
            <path d="M0.000244141 1239.6C685.727 1239.6 1241.62 684.613 1241.62 0.000366211C1241.62 -684.612 685.727 -1239.6 0.000244141 -1239.6C-685.727 -1239.6 -1241.62 -684.612 -1241.62 0.000366211C-1241.62 684.613 -685.727 1239.6 0.000244141 1239.6Z" fill="url(#paint2_radial_49_3133)"/>
            <path d="M0.00012207 1170.73C647.631 1170.73 1172.64 646.579 1172.64 0.000366211C1172.64 -646.578 647.631 -1170.73 0.00012207 -1170.73C-647.631 -1170.73 -1172.64 -646.578 -1172.64 0.000366211C-1172.64 646.579 -647.631 1170.73 0.00012207 1170.73Z" fill="url(#paint3_radial_49_3133)"/>
            <path d="M0.00012207 1136.99C628.964 1136.99 1138.84 627.942 1138.84 0.000244141C1138.84 -627.941 628.964 -1136.99 0.00012207 -1136.99C-628.964 -1136.99 -1138.84 -627.941 -1138.84 0.000244141C-1138.84 627.942 -628.964 1136.99 0.00012207 1136.99Z" fill="url(#paint4_radial_49_3133)"/>
            <path d="M0.00012207 998.567C552.391 998.567 1000.19 551.493 1000.19 0.000244141C1000.19 -551.493 552.391 -998.566 0.00012207 -998.566C-552.391 -998.566 -1000.19 -551.493 -1000.19 0.000244141C-1000.19 551.493 -552.391 998.567 0.00012207 998.567Z" fill="url(#paint5_radial_49_3133)"/>
            <path d="M0.000244141 860.834C476.2 860.834 862.236 475.425 862.236 0.000244141C862.236 -475.425 476.2 -860.833 0.000244141 -860.833C-476.199 -860.833 -862.235 -475.425 -862.235 0.000244141C-862.235 475.425 -476.199 860.834 0.000244141 860.834Z" fill="url(#paint6_radial_49_3133)"/>
            <path d="M0.00012207 809.184C447.627 809.184 810.501 446.9 810.501 0.000244141C810.501 -446.899 447.627 -809.183 0.00012207 -809.183C-447.627 -809.183 -810.501 -446.899 -810.501 0.000244141C-810.501 446.9 -447.627 809.184 0.00012207 809.184Z" fill="url(#paint7_radial_49_3133)"/>
            <path d="M0.00012207 619.8C342.864 619.8 620.81 342.306 620.81 0.000244141C620.81 -342.306 342.864 -619.8 0.00012207 -619.8C-342.863 -619.8 -620.809 -342.306 -620.809 0.000244141C-620.809 342.306 -342.863 619.8 0.00012207 619.8Z" fill="url(#paint8_radial_49_3133)"/>
            <path d="M0.000183105 516.5C285.72 516.5 517.341 285.255 517.341 0.000244141C517.341 -285.255 285.72 -516.5 0.000183105 -516.5C-285.719 -516.5 -517.341 -285.255 -517.341 0.000244141C-517.341 285.255 -285.719 516.5 0.000183105 516.5Z" fill="url(#paint9_radial_49_3133)"/>
            <path d="M9.15527e-05 344.334C190.48 344.334 344.894 190.17 344.894 0.000335693C344.894 -190.17 190.48 -344.333 9.15527e-05 -344.333C-190.48 -344.333 -344.894 -190.17 -344.894 0.000335693C-344.894 190.17 -190.48 344.334 9.15527e-05 344.334Z" fill="url(#paint10_radial_49_3133)"/>
            <path d="M0.000183105 261.694C144.765 261.694 262.12 144.53 262.12 0.000335693C262.12 -144.529 144.765 -261.693 0.000183105 -261.693C-144.764 -261.693 -262.119 -144.529 -262.119 0.000335693C-262.119 144.53 -144.764 261.694 0.000183105 261.694Z" fill="url(#paint11_radial_49_3133)"/>
            <path d="M0.000289917 172.167C95.2402 172.167 172.447 95.0852 172.447 0.000167847C172.447 -95.0849 95.2402 -172.167 0.000289917 -172.167C-95.2396 -172.167 -172.447 -95.0849 -172.447 0.000167847C-172.447 95.0852 -95.2396 172.167 0.000289917 172.167Z" fill="url(#paint12_radial_49_3133)"/>
        </g>
        <path d="M39.8444 121.739C31.9817 124.123 23.8996 125.759 15.7518 126.611C7.6011 127.455 -0.607597 127.511 -8.73287 126.781C-16.8581 126.05 -24.8922 124.531 -32.6922 122.275C-40.495 120.012 -48.0559 117.01 -55.2505 113.321C-62.4451 109.632 -69.2705 105.264 -75.6065 100.305C-81.9453 95.3377 -87.7869 89.7766 -93.0266 83.7153C-98.2664 77.6541 -102.912 71.0955 -106.871 64.1729C-110.835 57.2348 -114.11 49.9406 -116.674 42.4228C-113.791 49.8246 -110.212 56.938 -105.985 63.6309C-101.765 70.3267 -96.8992 76.5944 -91.4905 82.3216C-86.0789 88.0567 -80.1241 93.2513 -73.7464 97.8175C-67.3659 102.391 -60.5518 106.342 -53.4449 109.596C-46.3352 112.859 -38.9221 115.431 -31.3612 117.272C-23.7897 119.118 -16.0626 120.231 -8.31154 120.587C-0.560431 120.944 7.20197 120.557 14.8448 119.432C22.4876 118.307 30.0003 116.437 37.264 113.885C39.4198 113.128 41.7093 114.309 42.4669 116.46C43.2244 118.611 42.1714 120.92 40.0078 121.68C39.9534 121.7 39.9067 121.717 39.8494 121.729L39.8444 121.739Z" fill="url(#paint13_linear_49_3133)"/>
        <path d="M198.399 79.6161C193.02 92.191 186.452 104.246 178.808 115.543C171.152 126.837 162.427 137.36 152.785 146.935C143.143 156.51 132.589 165.123 121.345 172.65C110.089 180.172 98.1467 186.595 85.7188 191.815C73.2908 197.036 60.3897 201.058 47.2572 203.823C34.1116 206.584 20.7394 208.074 7.37261 208.262C-5.99421 208.45 -19.3603 207.348 -32.4558 204.981C-45.5772 202.604 -58.4151 198.967 -70.7762 194.184C-58.2215 198.436 -45.2891 201.492 -32.1991 203.271C-19.1139 205.062 -5.88417 205.572 7.23664 204.811C20.3704 204.055 33.3953 202.028 46.0697 198.788C58.757 195.553 71.1115 191.098 82.8903 185.525C94.6821 179.956 105.916 173.261 116.374 165.595C126.849 157.921 136.553 149.263 145.316 139.765C154.079 130.267 161.904 119.959 168.656 109.011C175.408 98.0642 181.069 86.4862 185.589 74.4939C186.931 70.9351 190.895 69.2817 194.458 70.6199C198.021 71.9582 199.845 75.7725 198.498 79.3443C198.465 79.4349 198.437 79.5126 198.391 79.5985L198.399 79.6161Z" fill="url(#paint14_linear_49_3133)"/>
        <path d="M164.906 209.984C151.213 220.242 136.558 229.194 121.213 236.657C105.858 244.106 89.8261 250.055 73.3965 254.404C56.967 258.754 40.1526 261.494 23.2713 262.626C6.37893 263.746 -10.5671 263.248 -27.2863 261.144C-44.0055 259.041 -60.4868 255.345 -76.4318 250.143C-92.388 244.929 -107.795 238.198 -122.38 230.06C-136.965 221.922 -150.742 212.387 -163.435 201.652C-176.149 190.891 -187.768 178.942 -198.153 166.049C-187.226 178.488 -175.141 189.867 -162.087 199.961C-149.045 210.067 -135.045 218.875 -120.367 226.239C-105.678 233.616 -90.3116 239.549 -74.5656 243.951C-58.8085 248.366 -42.6477 251.252 -26.4101 252.569C-10.1614 253.898 6.18831 253.66 22.3058 251.886C38.4476 250.114 54.3703 246.796 69.8004 241.981C85.2305 237.165 100.153 230.888 114.313 223.249C128.473 215.61 141.848 206.607 154.247 196.444C157.927 193.428 163.253 194.112 166.272 197.784C169.291 201.457 168.877 206.724 165.183 209.751C165.091 209.829 165.012 209.895 164.908 209.959L164.906 209.984Z" fill="url(#paint15_linear_49_3133)"/>
        <path d="M317.638 -45.0821C320.094 -24.7298 320.612 -4.16194 319.165 16.2279C317.697 36.6213 314.261 56.8163 308.922 76.4659C303.582 96.1155 296.335 115.199 287.375 133.39C278.395 151.583 267.698 168.863 255.466 184.946C243.233 201.028 229.486 215.909 214.494 229.332C199.481 242.758 183.219 254.705 165.986 264.957C148.753 275.209 130.552 283.786 111.751 290.518C92.9106 297.257 73.4915 302.147 53.8309 305.192C73.3443 301.313 92.4497 295.597 110.8 288.106C129.155 280.634 146.734 271.391 163.217 260.579C179.72 249.764 195.127 237.38 209.168 223.684C223.229 209.985 235.94 194.951 247.063 178.897C258.207 162.838 267.779 145.736 275.613 127.954C283.464 110.148 289.573 91.642 293.827 72.75C298.081 53.858 300.509 34.6167 301.061 15.3494C301.613 -3.91792 300.273 -23.1874 297.139 -42.1408C296.21 -47.7658 300.121 -52.8804 305.757 -53.8108C311.394 -54.7412 316.63 -51.1546 317.563 -45.5092C317.588 -45.3668 317.609 -45.2448 317.614 -45.0988L317.638 -45.0821Z" fill="url(#paint16_linear_49_3133)"/>
        <path d="M406.622 -132.604C414.568 -106.448 420.019 -79.5614 422.849 -52.4544C425.653 -25.3381 425.826 1.97275 423.373 29.0073C420.92 56.0419 415.831 82.7744 408.285 108.729C400.713 134.694 390.675 159.855 378.344 183.798C366.012 207.741 351.412 230.458 334.839 251.547C318.24 272.645 299.658 292.09 279.407 309.534C259.156 326.977 237.245 342.445 214.12 355.628C190.943 368.831 166.578 379.74 141.468 388.281C166.192 378.678 189.953 366.758 212.312 352.681C234.68 338.629 255.62 322.43 274.756 304.425C293.917 286.41 311.276 266.589 326.536 245.362C341.821 224.126 355.025 201.448 365.907 177.797C376.815 154.137 385.417 129.469 391.579 104.31C397.757 79.1159 401.486 53.4054 402.69 27.6163C403.894 1.82727 402.617 -23.9981 398.873 -49.4244C395.128 -74.8507 388.899 -99.8426 380.387 -124.005C377.862 -131.176 381.81 -138.795 388.996 -141.32C396.182 -143.844 403.889 -140.344 406.424 -133.147C406.49 -132.966 406.546 -132.811 406.586 -132.62L406.622 -132.604Z" fill="url(#paint17_linear_49_3133)"/>
        <path d="M453.825 282.011C435.116 310.64 413.704 337.472 389.975 361.976C366.217 386.462 340.16 408.589 312.26 427.983C284.359 447.378 254.632 464.01 223.679 477.668C192.696 491.309 160.503 501.947 127.637 509.412C94.7712 516.877 61.2611 521.188 27.7277 522.303C-5.83557 523.401 -39.405 521.275 -72.3947 515.943C-105.384 510.611 -137.811 502.103 -169.022 490.598C-200.293 479.059 -230.318 464.539 -258.67 447.403C-229.61 463.316 -199.1 476.445 -167.647 486.499C-136.211 496.583 -103.862 503.574 -71.2293 507.388C-38.5662 511.219 -5.6186 511.874 26.993 509.392C59.6345 506.928 91.9872 501.314 123.409 492.698C154.86 484.099 185.427 472.485 214.506 458.144C243.632 443.79 271.286 426.68 296.989 407.093C322.692 387.505 346.438 365.518 367.82 341.492C389.202 317.465 408.172 291.413 424.514 263.846C429.365 255.665 439.844 253.313 448.034 258.153C456.224 262.992 459.055 273.174 454.187 281.384C454.066 281.593 453.963 281.772 453.812 281.964L453.825 282.011Z" fill="url(#paint18_linear_49_3133)"/>
        <path d="M199.222 608.694C159.908 620.612 119.498 628.795 78.7584 633.053C38.005 637.273 -3.03851 637.553 -43.6648 633.901C-84.2912 630.249 -124.461 622.651 -163.461 611.374C-202.475 600.058 -240.28 585.049 -276.253 566.604C-312.226 548.16 -346.353 526.319 -378.033 501.522C-409.727 476.686 -438.935 448.881 -465.134 418.574C-491.332 388.268 -514.561 355.475 -534.355 320.862C-554.178 286.172 -570.552 249.701 -583.37 212.112C-568.958 249.121 -551.062 284.688 -529.924 318.153C-508.825 351.631 -484.497 382.97 -457.453 411.606C-430.395 440.281 -400.621 466.254 -368.732 489.085C-336.83 511.954 -302.759 531.706 -267.225 547.98C-231.677 564.292 -194.611 577.152 -156.807 586.358C-118.949 595.588 -80.3137 601.151 -41.5582 602.933C-2.80266 604.716 36.0093 602.784 74.2235 597.158C112.438 591.531 150.001 582.185 186.32 569.422C197.098 565.636 208.546 571.542 212.334 582.298C216.122 593.055 210.856 604.597 200.039 608.397C199.766 608.496 199.533 608.581 199.246 608.641L199.222 608.694Z" fill="url(#paint19_linear_49_3133)"/>
        <path d="M694.396 278.656C675.57 322.668 652.58 364.859 625.829 404.402C599.033 443.927 568.493 480.759 534.746 514.271C500.999 547.783 464.061 577.93 424.708 604.274C385.31 630.602 343.513 653.083 300.015 671.353C256.517 689.624 211.364 703.702 165.4 713.38C119.39 723.042 72.5875 728.259 25.8037 728.917C-20.9802 729.574 -67.7615 725.717 -113.596 717.432C-159.521 709.114 -204.453 696.385 -247.717 679.643C-203.776 694.527 -158.512 705.222 -112.697 711.447C-66.8991 717.718 -20.595 719.503 25.3278 716.84C71.296 714.193 116.883 707.097 161.243 695.759C205.649 684.437 248.89 668.843 290.116 649.336C331.387 629.846 370.705 606.414 407.307 579.583C443.971 552.724 477.935 522.421 508.605 489.177C539.275 455.933 566.663 419.854 590.294 381.539C613.926 343.224 633.739 302.701 649.561 260.728C654.258 248.272 668.133 242.485 680.603 247.169C693.074 251.853 699.456 265.203 694.743 277.705C694.627 278.022 694.528 278.294 694.367 278.594L694.396 278.656Z" fill="url(#paint20_linear_49_3133)"/>
        <path d="M787.775 -419.732C813.609 -368.839 834.581 -315.54 850.243 -260.841C865.855 -206.112 876.128 -150.031 880.902 -93.5686C885.676 -37.1058 884.921 19.6897 878.834 75.7757C872.697 131.891 861.198 187.246 844.54 240.928C827.883 294.611 806.117 346.591 779.703 395.941C753.24 445.319 722.1 492.015 686.801 535.202C651.502 578.388 612.073 618.113 569.319 653.582C526.464 689.108 480.334 720.35 431.813 746.995C479.154 718.308 523.676 685.206 564.531 648.177C605.414 611.198 642.58 570.321 675.382 526.383C708.234 482.417 736.723 435.39 760.386 386.232C784.1 337.045 803.01 285.649 816.793 233.093C830.626 180.508 839.352 126.684 842.884 72.7355C846.436 18.7083 844.766 -35.494 837.875 -88.9443C830.985 -142.395 818.983 -195.022 802.05 -245.936C785.118 -296.85 763.235 -345.972 736.962 -392.563C729.166 -406.391 734.517 -423.483 748.374 -431.272C762.23 -439.061 779.346 -434.656 787.17 -420.778C787.371 -420.429 787.544 -420.131 787.696 -419.753L787.775 -419.732Z" fill="url(#paint21_linear_49_3133)"/>
        <path d="M593.661 755.94C544.366 792.87 491.607 825.099 436.367 851.964C381.087 878.782 323.373 900.196 264.227 915.855C205.08 931.513 144.548 941.376 83.7759 945.454C22.9634 949.485 -38.0422 947.692 -98.2313 940.119C-158.42 932.546 -217.753 919.24 -275.155 900.515C-332.598 881.743 -388.062 857.511 -440.569 828.214C-493.076 798.917 -542.673 764.594 -588.366 725.947C-634.138 687.206 -675.965 644.189 -713.351 597.775C-674.015 642.555 -630.509 683.519 -583.512 719.859C-536.563 756.239 -486.163 787.948 -433.323 814.459C-380.443 841.017 -325.123 862.376 -268.437 878.223C-211.711 894.118 -153.532 904.507 -95.077 909.246C-36.5819 914.032 22.2772 913.174 80.3002 906.789C138.411 900.411 195.732 888.465 251.281 871.129C306.829 853.794 360.549 831.195 411.526 803.695C462.504 776.194 510.652 743.784 555.29 707.197C568.538 696.34 587.711 698.802 598.579 712.023C609.447 725.243 607.956 744.207 594.66 755.103C594.327 755.382 594.042 755.622 593.669 755.853L593.661 755.94Z" fill="url(#paint22_linear_49_3133)"/>
        <path d="M897.687 672.9C853.301 729.374 803.589 781.596 749.459 828.522C695.27 875.407 636.704 916.936 574.782 952.412C512.86 987.887 447.624 1017.25 380.367 1040.17C313.051 1063.04 243.755 1079.41 173.632 1089.02C103.509 1098.64 32.6171 1101.53 -37.7381 1097.73C-108.152 1093.9 -177.989 1083.31 -246.024 1066.13C-314.06 1048.95 -380.337 1025.22 -443.52 995.45C-506.822 965.594 -566.971 929.731 -623.143 888.701C-565.267 927.302 -503.848 960.345 -439.892 987.126C-375.978 1013.97 -309.587 1034.5 -242.018 1048.45C-174.391 1062.43 -105.586 1069.82 -36.9083 1070.59C31.8282 1071.4 100.538 1065.57 167.85 1053.28C235.221 1041.04 301.295 1022.33 364.756 997.645C428.317 972.939 489.305 942.197 546.665 905.916C604.024 869.636 657.731 827.976 706.865 781.62C756 735.263 800.46 684.227 839.701 629.542C851.349 613.314 873.7 610.308 889.947 621.929C906.194 633.551 910.249 655.369 898.56 671.656C898.269 672.07 898.02 672.426 897.669 672.799L897.687 672.9Z" fill="url(#paint23_linear_49_3133)"/>
        <path d="M1206.37 435.923C1176.76 512.45 1139.9 586.107 1096.44 655.45C1052.9 724.768 1002.78 789.694 946.969 849.124C891.16 908.554 829.682 962.409 763.839 1009.89C697.917 1057.35 627.655 1098.37 554.227 1132.27C480.799 1166.17 404.282 1192.98 326.114 1212.31C247.867 1231.61 167.995 1243.35 87.8816 1247.27C7.76845 1251.19 -72.6109 1247.38 -151.633 1235.92C-230.812 1224.41 -308.556 1205.29 -383.681 1179.19C-307.506 1202.07 -229.318 1217.69 -150.452 1225.61C-71.6126 1233.62 7.82489 1233.91 86.3428 1226.61C164.939 1219.32 242.617 1204.44 317.938 1182.37C393.337 1160.32 466.486 1131.02 535.947 1095.14C605.488 1059.28 671.446 1016.79 732.547 968.633C793.752 920.426 850.126 866.481 900.679 807.694C951.233 748.906 995.994 685.46 1034.19 618.405C1072.38 551.351 1103.9 480.742 1128.49 407.887C1135.79 386.266 1159.21 375.523 1180.86 382.803C1202.5 390.082 1214.24 412.573 1206.91 434.272C1206.73 434.822 1206.58 435.294 1206.32 435.819L1206.37 435.923Z" fill="url(#paint24_linear_49_3133)"/>
        <path d="M952.229 -1058.99C1018.82 -996.736 1079.44 -928.221 1132.85 -854.709C1186.2 -781.127 1232.29 -702.607 1270.33 -620.516C1308.37 -538.424 1338.3 -452.821 1359.85 -365.374C1381.33 -277.857 1394.35 -188.557 1398.72 -98.9543C1403.09 -9.35178 1398.86 80.4826 1386.23 168.904C1373.53 257.395 1352.35 344.414 1323.01 428.434C1293.67 512.453 1256.25 593.533 1211.5 670.041C1166.64 746.689 1114.52 818.696 1056.29 885.112C1111.63 816.277 1160.32 742.356 1201.36 664.544C1242.47 586.79 1275.88 505.216 1301.06 421.43C1326.3 337.574 1343.32 251.506 1351.94 164.87C1360.61 78.1649 1360.87 -9.23697 1352.81 -95.5834C1344.8 -182 1328.46 -267.491 1304.25 -350.338C1280.03 -433.315 1247.88 -513.707 1208.31 -590.126C1168.74 -666.545 1121.95 -738.943 1068.7 -806.084C1015.45 -873.224 955.754 -934.978 890.855 -990.543C871.597 -1007.03 870.277 -1035.59 886.806 -1054.83C903.334 -1074.06 931.422 -1076.78 950.75 -1060.23C951.243 -1059.82 951.666 -1059.47 952.1 -1058.98L952.229 -1058.99Z" fill="url(#paint25_linear_49_3133)"/>
        <path d="M1474 -480.69C1502.81 -385.875 1522.57 -288.411 1532.83 -190.148C1542.99 -91.8513 1543.62 7.15036 1534.73 105.151C1525.83 203.151 1507.38 300.057 1480.03 394.143C1452.58 488.264 1416.2 579.473 1371.49 666.267C1326.79 753.062 1273.87 835.408 1213.79 911.855C1153.62 988.337 1086.26 1058.83 1012.85 1122.06C939.441 1185.29 860.014 1241.36 776.186 1289.15C692.169 1337.01 603.846 1376.55 512.821 1407.52C602.444 1372.71 688.58 1329.5 769.63 1278.47C850.715 1227.53 926.621 1168.81 995.989 1103.54C1065.45 1038.24 1128.37 966.385 1183.69 889.437C1239.1 812.455 1286.97 730.248 1326.41 644.514C1365.95 558.746 1397.14 469.324 1419.47 378.123C1441.87 286.794 1455.39 193.594 1459.75 100.108C1464.11 6.623 1459.49 -86.9939 1445.91 -179.164C1432.34 -271.335 1409.76 -361.93 1378.9 -449.519C1369.75 -475.514 1384.06 -503.134 1410.11 -512.285C1436.16 -521.435 1464.1 -508.749 1473.28 -482.66C1473.52 -482.003 1473.73 -481.44 1473.87 -480.75L1474 -480.69Z" fill="url(#paint26_linear_49_3133)"/>
        <path d="M1587.19 636.927C1544.16 737.526 1491.61 833.963 1430.47 924.345C1369.22 1014.69 1299.41 1098.88 1222.28 1175.48C1145.14 1252.07 1060.71 1320.98 970.761 1381.2C880.708 1441.37 785.172 1492.76 685.749 1534.52C586.325 1576.28 483.116 1608.46 378.056 1630.58C272.892 1652.67 165.914 1664.59 58.9794 1666.09C-47.9551 1667.6 -154.884 1658.78 -259.648 1639.84C-364.619 1620.83 -467.322 1591.74 -566.211 1553.47C-465.774 1587.49 -362.314 1611.93 -257.594 1626.16C-152.913 1640.5 -47.0748 1644.58 57.8917 1638.49C162.962 1632.44 267.161 1616.22 368.556 1590.3C470.054 1564.43 568.89 1528.78 663.121 1484.2C757.455 1439.65 847.325 1386.09 930.987 1324.76C1014.79 1263.37 1092.42 1194.1 1162.52 1118.12C1232.63 1042.13 1295.23 959.666 1349.24 872.089C1403.26 784.512 1448.55 691.888 1484.71 595.949C1495.45 567.478 1527.16 554.251 1555.66 564.957C1584.17 575.663 1598.76 606.178 1587.98 634.752C1587.72 635.477 1587.49 636.099 1587.12 636.786L1587.19 636.927Z" fill="url(#paint27_linear_49_3133)"/>
        <path d="M-142.883 158.889C-152.874 149.549 -161.967 139.27 -169.98 128.241C-177.984 117.202 -184.897 105.421 -190.604 93.1049C-196.311 80.7886 -200.8 67.9451 -204.031 54.8251C-207.253 41.6945 -209.206 28.2962 -209.86 14.8524C-210.514 1.40862 -209.879 -12.07 -207.982 -25.3368C-206.076 -38.614 -202.897 -51.6705 -198.494 -64.2771C-194.091 -76.8837 -188.474 -89.0493 -181.76 -100.529C-175.028 -112.03 -167.206 -122.834 -158.47 -132.8C-166.773 -122.471 -174.08 -111.38 -180.238 -99.7044C-186.408 -88.0378 -191.421 -75.7981 -195.2 -63.2266C-198.988 -50.6446 -201.543 -37.7308 -202.837 -24.7321C-204.14 -11.7228 -204.18 1.39082 -202.971 14.346C-201.771 27.3117 -199.32 40.1384 -195.689 52.5684C-192.057 65.0177 -187.234 77.0792 -181.298 88.5444C-175.362 100.01 -168.343 110.872 -160.355 120.944C-152.366 131.017 -143.41 140.282 -133.674 148.618C-130.785 151.092 -130.587 155.377 -133.067 158.263C-135.547 161.149 -139.762 161.558 -142.661 159.075C-142.735 159.013 -142.799 158.96 -142.864 158.887L-142.883 158.889Z" fill="url(#paint28_linear_49_3133)"/>
        <path d="M-254.156 82.8781C-259.121 66.5319 -262.527 49.7287 -264.294 32.7878C-266.046 15.841 -266.152 -1.22752 -264.617 -18.1235C-263.082 -35.0196 -259.9 -51.7269 -255.182 -67.9485C-250.448 -84.1759 -244.173 -99.9014 -236.464 -114.866C-228.755 -129.831 -219.628 -144.028 -209.269 -157.209C-198.893 -170.396 -187.277 -182.55 -174.619 -193.453C-161.961 -204.356 -148.265 -214.024 -133.81 -222.265C-119.324 -230.517 -104.094 -237.336 -88.399 -242.676C-103.852 -236.673 -118.705 -229.222 -132.68 -220.423C-146.662 -211.639 -159.751 -201.514 -171.712 -190.26C-183.69 -179.001 -194.54 -166.612 -204.079 -153.345C-213.634 -140.072 -221.888 -125.898 -228.691 -111.116C-235.51 -96.3289 -240.888 -80.9113 -244.741 -65.1874C-248.604 -49.4414 -250.936 -33.3729 -251.69 -17.2554C-252.444 -1.13785 -251.648 15.0022 -249.308 30.8927C-246.969 46.7832 -243.077 62.4022 -237.758 77.5025C-236.181 81.984 -238.649 86.7462 -243.141 88.3242C-247.632 89.9022 -252.449 87.7154 -254.033 83.2177C-254.074 83.1045 -254.109 83.0074 -254.134 82.8883L-254.156 82.8781Z" fill="url(#paint29_linear_49_3133)"/>
        <path d="M-66.2787 313.354C-86.2738 308.706 -105.808 302.166 -124.502 293.844C-143.193 285.501 -161.022 275.379 -177.686 263.657C-194.351 251.935 -209.829 238.616 -223.88 223.996C-237.928 209.355 -250.527 193.416 -261.474 176.446C-272.42 159.475 -281.718 141.494 -289.216 122.842C-296.711 104.17 -302.386 84.8312 -306.133 65.1602C-309.88 45.4891 -311.719 25.4819 -311.616 5.54314C-311.506 -14.4363 -309.459 -34.3269 -305.592 -53.8138C-308.624 -34.1801 -309.787 -14.3019 -309.02 5.47483C-308.274 25.2479 -305.595 44.8992 -301.064 64.0575C-296.537 83.2362 -290.158 101.922 -282.077 119.774C-274 137.646 -264.204 154.708 -252.904 170.628C-241.607 186.569 -228.789 201.393 -214.737 214.817C-200.667 228.265 -185.343 240.318 -169.02 250.763C-152.697 261.208 -135.42 270.058 -117.476 277.158C-99.5317 284.257 -80.9378 289.582 -62.0271 293.116C-56.415 294.166 -52.9407 299.582 -53.9953 305.189C-55.0499 310.795 -60.2184 314.482 -65.8509 313.429C-65.9935 313.404 -66.1157 313.383 -66.2547 313.337L-66.2787 313.354Z" fill="url(#paint30_linear_49_3133)"/>
        <path d="M-14.3827 426.612C-41.7154 425.135 -68.8818 421.069 -95.3577 414.469C-121.834 407.842 -147.591 398.681 -172.19 387.152C-196.789 375.622 -220.2 361.724 -242.039 345.788C-263.878 329.824 -284.117 311.822 -302.424 292.084C-320.731 272.346 -337.107 250.9 -351.276 228.159C-365.445 205.391 -377.379 181.328 -386.858 156.382C-396.337 131.437 -403.389 105.609 -407.876 79.4231C-412.362 53.1816 -414.283 26.6089 -413.723 0.145343C-413.153 26.6085 -410.073 52.9605 -404.483 78.7334C-398.92 104.506 -390.848 129.673 -380.458 153.764C-370.069 177.883 -357.362 200.927 -342.613 222.484C-327.865 244.068 -311.047 264.192 -292.519 282.47C-273.99 300.776 -253.724 317.263 -232.16 331.63C-210.569 346.025 -187.653 358.298 -163.799 368.231C-139.944 378.163 -115.206 385.782 -89.9986 390.95C-64.7909 396.119 -39.1411 398.808 -13.4904 399.075C-5.87793 399.155 -0.060456 405.459 -0.145882 413.059C-0.231308 420.659 -6.16346 426.692 -13.8035 426.612C-13.9966 426.612 -14.1621 426.612 -14.3551 426.585L-14.3827 426.612Z" fill="url(#paint31_linear_49_3133)"/>
        <path d="M-420.872 329.283C-441.406 301.956 -459.322 272.706 -474.254 242.078C-489.158 211.428 -501.056 179.426 -509.749 146.628C-518.443 113.829 -523.911 80.2608 -526.159 46.5567C-528.382 12.8304 -527.363 -21.005 -523.128 -54.3894C-518.893 -87.7739 -511.469 -120.685 -501.029 -152.528C-490.563 -184.393 -477.06 -215.162 -460.738 -244.294C-444.417 -273.425 -425.3 -300.944 -403.778 -326.299C-382.203 -351.699 -358.251 -374.911 -332.409 -395.662C-357.342 -373.83 -380.153 -349.687 -400.392 -323.61C-420.653 -297.558 -438.315 -269.595 -453.086 -240.28C-467.883 -210.942 -479.788 -180.254 -488.626 -148.81C-497.491 -117.343 -503.292 -85.0725 -505.949 -52.6506C-508.632 -20.2065 -508.175 12.4374 -504.641 44.6158C-501.112 76.8426 -494.484 108.63 -484.856 139.432C-475.228 170.234 -462.67 200.02 -447.384 228.284C-432.098 256.548 -414.079 283.241 -393.734 307.985C-387.697 315.329 -389.073 325.963 -396.434 331.995C-403.795 338.027 -414.347 337.207 -420.406 329.837C-420.561 329.652 -420.694 329.494 -420.823 329.287L-420.872 329.283Z" fill="url(#paint32_linear_49_3133)"/>
        <path d="M-500.091 556.113C-535.058 523.422 -566.884 487.445 -594.93 448.844C-622.944 410.206 -647.141 368.975 -667.114 325.868C-687.087 282.76 -702.801 237.808 -714.108 191.888C-725.385 145.931 -732.22 99.037 -734.51 51.9837C-736.8 4.93054 -734.577 -42.2448 -727.936 -88.6783C-721.264 -135.149 -710.138 -180.846 -694.728 -224.97C-679.317 -269.093 -659.659 -311.672 -636.159 -351.851C-612.596 -392.104 -585.222 -429.92 -554.644 -464.8C-583.706 -428.65 -609.279 -389.829 -630.834 -348.965C-652.427 -308.132 -669.972 -265.293 -683.2 -221.293C-696.458 -177.256 -705.4 -132.058 -709.929 -86.5621C-714.49 -41.0295 -714.631 4.86823 -710.399 50.2114C-706.199 95.5915 -697.62 140.485 -684.912 183.99C-672.198 227.562 -655.318 269.778 -634.543 309.906C-613.767 350.034 -589.2 388.051 -561.241 423.306C-533.281 458.561 -501.936 490.988 -467.859 520.163C-457.746 528.823 -457.055 543.818 -465.735 553.921C-474.416 564.023 -489.165 565.454 -499.315 556.763C-499.573 556.546 -499.795 556.36 -500.023 556.107L-500.091 556.113Z" fill="url(#paint33_linear_49_3133)"/>
        <path d="M125.668 882.211C68.8988 889.066 11.5319 890.541 -45.335 886.556C-102.212 882.515 -158.532 873.006 -213.328 858.208C-268.123 843.41 -321.338 823.313 -372.057 798.456C-422.786 773.543 -470.963 743.86 -515.798 709.91C-560.632 675.961 -602.113 637.801 -639.525 596.18C-676.946 554.503 -710.241 509.354 -738.806 461.504C-767.37 413.653 -791.261 363.111 -810.004 310.903C-828.768 258.581 -842.375 204.649 -850.835 150.044C-840.048 204.239 -824.138 257.298 -803.275 308.257C-782.468 359.226 -756.718 408.04 -726.59 453.805C-696.453 499.627 -661.939 542.401 -623.765 581.377C-585.582 620.41 -543.671 655.692 -498.912 686.561C-454.143 717.487 -406.459 744.046 -356.876 765.776C-307.227 787.552 -255.623 804.489 -202.938 816.274C-150.253 828.058 -96.5916 834.768 -42.8539 836.268C10.8838 837.769 64.6307 834.014 117.499 825.277C133.189 822.686 147.448 833.54 150.033 849.195C152.619 864.851 142.606 879.399 126.859 882C126.462 882.071 126.121 882.131 125.714 882.144L125.668 882.211Z" fill="url(#paint34_linear_49_3133)"/>
        <path d="M-914.963 298.362C-932.836 239.515 -945.098 179.024 -951.46 118.037C-957.764 57.0281 -958.147 -4.41849 -952.621 -65.2441C-947.096 -126.07 -935.639 -186.216 -918.655 -244.614C-901.613 -303.033 -879.022 -359.645 -851.27 -413.517C-823.517 -467.39 -790.662 -518.502 -753.367 -565.953C-716.013 -613.426 -674.198 -657.179 -628.628 -696.43C-583.058 -735.68 -533.753 -770.485 -481.717 -800.152C-429.564 -829.861 -374.738 -854.409 -318.236 -873.632C-373.868 -852.022 -427.337 -825.198 -477.649 -793.521C-527.982 -761.902 -575.101 -725.451 -618.163 -684.937C-661.282 -644.402 -700.344 -599.803 -734.684 -552.041C-769.083 -504.258 -798.798 -453.232 -823.288 -400.019C-847.836 -346.783 -867.196 -291.28 -881.066 -234.674C-894.973 -177.989 -903.369 -120.142 -906.083 -62.1187C-908.797 -4.09564 -905.931 54.0086 -897.51 111.214C-889.089 168.42 -875.077 224.648 -855.93 279.01C-850.25 295.143 -859.136 312.287 -875.305 317.968C-891.475 323.648 -908.815 315.776 -914.517 299.584C-914.666 299.177 -914.793 298.827 -914.883 298.399L-914.963 298.362Z" fill="url(#paint35_linear_49_3133)"/>
        <path d="M-940.836 611.981C-978.782 551.059 -1010.9 486.592 -1036.52 419.788C-1062.08 352.942 -1081.1 283.819 -1093.27 213.614C-1105.45 143.409 -1110.73 72.1818 -1109.26 1.25952C-1107.72 -69.7043 -1099.39 -140.304 -1084.41 -209.373C-1069.43 -278.442 -1047.86 -345.939 -1020.18 -410.649C-992.448 -475.4 -958.558 -537.305 -919.074 -595.267C-879.59 -653.23 -834.552 -707.31 -784.881 -756.422C-735.092 -805.617 -680.728 -849.803 -622.865 -888.494C-679.026 -847.375 -731.17 -801.034 -778.29 -750.176C-825.451 -699.377 -867.528 -644.102 -903.802 -585.471C-940.136 -526.799 -970.667 -464.772 -994.92 -400.603C-1019.23 -336.392 -1037.29 -269.94 -1048.79 -202.596C-1060.35 -135.211 -1065.38 -66.8345 -1063.89 1.13064C-1062.41 69.1964 -1054.37 136.909 -1039.88 203.109C-1025.39 269.308 -1004.58 333.917 -977.781 395.84C-950.985 457.762 -918.184 516.898 -880.16 572.382C-868.877 588.85 -873.706 610.846 -890.21 622.121C-906.715 633.395 -928.639 629.751 -939.964 613.224C-940.254 612.81 -940.504 612.454 -940.735 611.998L-940.836 611.981Z" fill="url(#paint36_linear_49_3133)"/>
        <path d="M-823.453 982.615C-885.32 928.698 -942.002 868.963 -992.365 804.506C-1042.68 739.983 -1086.6 670.791 -1123.4 598.132C-1160.21 525.473 -1189.82 449.399 -1211.95 371.403C-1234.02 293.342 -1248.54 213.41 -1255.28 132.934C-1262.03 52.4584 -1261.04 -28.4961 -1252.45 -108.444C-1243.8 -188.456 -1227.48 -267.411 -1203.72 -343.924C-1179.96 -420.438 -1148.83 -494.56 -1110.98 -564.799C-1073.02 -635.169 -1028.39 -701.59 -978.092 -763.174C-1025.72 -699.505 -1067.2 -631.469 -1101.68 -560.172C-1136.23 -488.927 -1163.72 -414.486 -1183.75 -338.314C-1203.83 -262.077 -1216.44 -184.108 -1221.47 -105.894C-1226.56 -27.614 -1224.05 51.0274 -1214.08 128.458C-1204.16 205.953 -1186.78 282.352 -1162.4 356.127C-1138 430.017 -1106.56 501.332 -1068.56 568.84C-1030.56 636.348 -986.19 700.011 -936.176 758.741C-886.162 817.471 -830.517 871.152 -770.385 919.101C-752.541 933.333 -750.457 958.981 -764.724 976.808C-778.991 994.634 -804.175 997.966 -822.084 983.683C-822.54 983.327 -822.932 983.022 -823.337 982.601L-823.453 982.615Z" fill="url(#paint37_linear_49_3133)"/>
        <path d="M671.133 1254.96C589.715 1296.18 504.455 1329.65 416.958 1354.66C329.416 1379.59 239.718 1396.02 149.413 1403.68C59.1077 1411.35 -31.7239 1410.2 -121.416 1400.55C-211.153 1390.83 -299.671 1372.56 -385.509 1346.07C-471.346 1319.57 -554.456 1284.94 -633.354 1242.9C-712.298 1200.77 -786.949 1151.2 -855.982 1094.99C-925.014 1038.78 -988.508 975.984 -1045.19 907.887C-1101.97 839.631 -1151.88 766.15 -1194.45 688.853C-1148.62 764.267 -1095.72 835.183 -1036.54 900.251C-977.442 965.366 -912.104 1024.55 -841.867 1076.78C-771.584 1129.09 -696.403 1174.44 -617.808 1212.1C-539.168 1249.85 -456.989 1279.93 -372.95 1301.84C-288.865 1323.83 -202.794 1337.69 -116.518 1343.26C-30.1166 1348.87 56.5701 1346.15 142.059 1335.12C227.548 1324.09 311.727 1304.91 393.169 1277.88C474.612 1250.85 553.194 1215.93 627.731 1174.01C649.854 1161.58 677.184 1170.09 689.627 1192.16C702.071 1214.23 695.008 1241.51 672.806 1253.99C672.249 1254.32 671.771 1254.59 671.167 1254.83L671.133 1254.96Z" fill="url(#paint38_linear_49_3133)"/>
        <path d="M-52.1371 1546.47C-151.218 1541.11 -249.696 1526.38 -345.671 1502.45C-441.647 1478.43 -535.019 1445.22 -624.189 1403.43C-713.359 1361.63 -798.227 1311.25 -877.393 1253.48C-956.559 1195.61 -1029.92 1130.35 -1096.29 1058.8C-1162.65 987.255 -1222.01 909.514 -1273.37 827.078C-1324.74 744.543 -1368 657.314 -1402.36 566.886C-1436.72 476.459 -1462.29 382.835 -1478.55 287.909C-1494.81 192.784 -1501.78 96.4575 -1499.74 0.527249C-1497.68 96.456 -1486.51 191.982 -1466.25 285.409C-1446.09 378.836 -1416.82 470.064 -1379.16 557.395C-1341.5 644.826 -1295.44 728.362 -1241.97 806.504C-1188.51 884.746 -1127.55 957.695 -1060.38 1023.95C-993.215 1090.31 -919.749 1150.08 -841.581 1202.16C-763.312 1254.34 -680.242 1298.83 -593.77 1334.84C-507.297 1370.84 -417.622 1398.46 -326.245 1417.2C-234.867 1435.93 -141.886 1445.68 -48.9024 1446.65C-21.3072 1446.94 -0.218878 1469.79 -0.528548 1497.34C-0.838218 1524.89 -22.3423 1546.76 -50.0374 1546.47C-50.7373 1546.47 -51.3372 1546.47 -52.037 1546.37L-52.1371 1546.47Z" fill="url(#paint39_linear_49_3133)"/>
        <path d="M-1143.07 1271.11C-1222.99 1196.39 -1295.74 1114.16 -1359.84 1025.93C-1423.87 937.614 -1479.18 843.371 -1524.83 744.84C-1570.49 646.31 -1606.4 543.562 -1632.25 438.602C-1658.02 333.557 -1673.65 226.37 -1678.88 118.82C-1684.11 11.27 -1679.03 -96.5594 -1663.85 -202.693C-1648.6 -308.911 -1623.17 -413.363 -1587.95 -514.216C-1552.73 -615.069 -1507.79 -712.393 -1454.08 -804.231C-1400.22 -896.238 -1337.65 -982.674 -1267.76 -1062.4C-1334.19 -979.771 -1392.64 -891.037 -1441.91 -797.634C-1491.26 -704.301 -1531.36 -606.384 -1561.6 -505.812C-1591.91 -405.156 -1612.34 -301.846 -1622.7 -197.856C-1633.12 -93.7817 -1633.44 11.1275 -1623.77 114.769C-1614.17 218.495 -1594.56 321.108 -1565.51 420.548C-1536.45 520.143 -1497.87 616.635 -1450.38 708.356C-1402.9 800.078 -1346.74 886.973 -1282.84 967.557C-1218.93 1048.14 -1147.28 1122.26 -1069.39 1188.95C-1046.28 1208.74 -1044.7 1243.01 -1064.54 1266.1C-1084.38 1289.2 -1118.09 1292.47 -1141.29 1272.6C-1141.88 1272.11 -1142.39 1271.68 -1142.91 1271.1L-1143.07 1271.11Z" fill="url(#paint40_linear_49_3133)"/>
        <path d="M67.785 -108.74C74.6678 -104.257 81.1187 -99.126 87.0097 -93.4401C92.8967 -87.747 98.2166 -81.5031 102.88 -74.8176C107.543 -68.1321 111.541 -61.0091 114.826 -53.5922C118.105 -46.1682 120.663 -38.4546 122.459 -30.5795C124.254 -22.7045 125.291 -14.6753 125.56 -6.64047C125.825 1.40146 125.314 9.44479 124.033 17.3491C122.752 25.2535 120.708 33.023 117.942 40.501C115.169 47.9934 111.679 55.1871 107.561 61.9801C111.385 55.0176 114.541 47.7075 116.957 40.1714C119.38 32.6394 121.06 24.8887 121.977 17.0697C122.897 9.24358 123.054 1.34921 122.456 -6.46473C121.863 -14.2858 120.513 -22.0378 118.441 -29.5667C116.373 -37.1027 113.58 -44.427 110.132 -51.3947C106.681 -58.3737 102.567 -65.0002 97.8578 -71.1591C93.1485 -77.318 87.8623 -83.0082 82.086 -88.1319C76.3097 -93.2556 70.0463 -97.8016 63.419 -101.718C61.4523 -102.88 60.8865 -105.391 62.0498 -107.353C63.213 -109.316 65.6606 -109.994 67.6345 -108.827C67.6847 -108.798 67.7277 -108.773 67.7737 -108.737L67.785 -108.74Z" fill="url(#paint41_linear_49_3133)"/>
        <path d="M-66.4103 -202.994C-53.3121 -206.96 -39.8477 -209.68 -26.2729 -211.092C-12.6933 -212.49 0.983714 -212.575 14.5225 -211.349C28.0614 -210.123 41.449 -207.582 54.4474 -203.814C67.4505 -200.033 80.0514 -195.02 92.0426 -188.863C104.034 -182.706 115.411 -175.417 125.972 -167.142C136.539 -158.855 146.278 -149.578 155.014 -139.468C163.751 -129.358 171.498 -118.419 178.101 -106.874C184.714 -95.3034 190.178 -83.1396 194.457 -70.604C189.647 -82.9466 183.676 -94.8092 176.625 -105.971C169.587 -117.138 161.474 -127.592 152.456 -137.146C143.434 -146.712 133.507 -155.379 122.876 -162.998C112.24 -170.629 100.883 -177.222 89.038 -182.655C77.1887 -188.102 64.8346 -192.397 52.235 -195.474C39.6177 -198.559 26.7419 -200.422 13.8269 -201.024C0.911853 -201.626 -12.0212 -200.99 -24.7543 -199.122C-37.4875 -197.254 -50.0029 -194.145 -62.1029 -189.897C-65.694 -188.637 -69.5099 -190.609 -70.7743 -194.196C-72.0388 -197.783 -70.2865 -201.63 -66.6825 -202.895C-66.5918 -202.928 -66.514 -202.957 -66.4186 -202.977L-66.4103 -202.994Z" fill="url(#paint42_linear_49_3133)"/>
        <path d="M55.0763 -261.123C71.7501 -257.24 88.041 -251.781 103.632 -244.838C119.22 -237.878 134.092 -229.436 147.993 -219.663C161.893 -209.889 174.807 -198.787 186.531 -186.601C198.251 -174.398 208.766 -161.114 217.902 -146.973C227.039 -132.831 234.801 -117.848 241.064 -102.308C247.324 -86.7506 252.067 -70.6395 255.203 -54.2526C258.338 -37.8656 259.883 -21.1998 259.81 -4.59219C259.73 12.0493 258.034 28.6158 254.822 44.8448C257.338 28.493 258.296 11.9364 257.645 -4.53681C257.012 -21.007 254.766 -37.3768 250.978 -53.3372C247.192 -69.3144 241.862 -84.8822 235.114 -99.7564C228.369 -114.647 220.192 -128.865 210.76 -142.132C201.332 -155.417 190.637 -167.771 178.912 -178.961C167.174 -190.171 154.39 -200.219 140.775 -208.929C127.159 -217.638 112.749 -225.02 97.7836 -230.944C82.8184 -236.868 67.3124 -241.314 51.5434 -244.269C46.8636 -245.146 43.9637 -249.66 44.8397 -254.329C45.7157 -258.998 50.0228 -262.066 54.7195 -261.186C54.8385 -261.165 54.9404 -261.147 55.0563 -261.109L55.0763 -261.123Z" fill="url(#paint43_linear_49_3133)"/>
        <path d="M-238.722 -213.976C-224.689 -228.937 -209.245 -242.555 -192.675 -254.555C-176.089 -266.542 -158.389 -276.895 -139.885 -285.441C-121.38 -293.987 -102.084 -300.71 -82.3715 -305.549C-62.6435 -310.374 -42.5133 -313.298 -22.3148 -314.278C-2.1163 -315.258 18.1346 -314.307 38.0671 -311.465C58.0155 -308.611 77.6321 -303.85 96.5728 -297.256C115.514 -290.662 133.792 -282.251 151.039 -272.196C168.319 -262.114 184.552 -250.402 199.525 -237.318C184.006 -249.753 167.342 -260.695 149.8 -269.918C132.272 -279.157 113.882 -286.664 94.9945 -292.324C76.0907 -297.997 56.6885 -301.823 37.1587 -303.761C17.613 -305.712 -2.08955 -305.772 -21.554 -303.962C-41.0343 -302.164 -60.3056 -298.494 -78.9809 -293.056C-97.6854 -287.616 -115.807 -280.394 -133.033 -271.504C-150.259 -262.615 -166.578 -252.103 -181.712 -240.14C-196.846 -228.177 -210.766 -214.766 -223.29 -200.185C-227.007 -195.858 -233.444 -195.562 -237.781 -199.276C-242.118 -202.99 -242.732 -209.301 -239.001 -213.644C-238.908 -213.755 -238.828 -213.849 -238.719 -213.947L-238.722 -213.976Z" fill="url(#paint44_linear_49_3133)"/>
        <path d="M-363.066 -225.791C-348.11 -248.681 -330.991 -270.133 -312.018 -289.721C-293.02 -309.294 -272.182 -326.98 -249.868 -342.48C-227.554 -357.979 -203.777 -371.267 -179.017 -382.177C-154.233 -393.073 -128.481 -401.565 -102.187 -407.52C-75.8942 -413.476 -49.0842 -416.907 -22.2538 -417.783C4.6004 -418.645 31.4611 -416.927 57.8596 -412.646C84.258 -408.365 110.208 -401.544 135.186 -392.327C160.212 -383.081 184.243 -371.453 206.937 -357.733C183.677 -370.475 159.259 -380.992 134.088 -389.049C108.93 -397.13 83.0438 -402.737 56.9313 -405.804C30.7949 -408.885 4.43247 -409.424 -21.6597 -407.455C-47.7757 -405.5 -73.659 -401.026 -98.7958 -394.149C-123.957 -387.287 -148.408 -378.012 -171.668 -366.556C-194.965 -355.089 -217.084 -341.417 -237.639 -325.762C-258.195 -310.108 -277.184 -292.533 -294.28 -273.325C-311.377 -254.118 -326.543 -233.289 -339.605 -211.248C-343.482 -204.707 -351.865 -202.83 -358.421 -206.705C-364.976 -210.58 -367.246 -218.726 -363.355 -225.29C-363.259 -225.457 -363.176 -225.6 -363.055 -225.754L-363.066 -225.791Z" fill="url(#paint45_linear_49_3133)"/>
        <path d="M-75.2611 -528.575C-41.288 -532.658 -6.95476 -533.517 27.0816 -531.106C61.1239 -528.661 94.8354 -522.941 127.637 -514.052C160.438 -505.164 192.295 -493.101 222.661 -478.189C253.033 -463.242 281.879 -445.439 308.727 -425.082C335.574 -404.724 360.417 -381.845 382.825 -356.895C405.239 -331.911 425.185 -304.849 442.301 -276.17C459.417 -247.492 473.737 -217.202 484.977 -185.917C496.229 -154.564 504.396 -122.248 509.482 -89.5313C503.003 -122.003 493.459 -153.797 480.951 -184.335C468.476 -214.878 453.044 -244.133 434.994 -271.563C416.937 -299.027 396.263 -324.667 373.399 -348.033C350.53 -371.434 325.432 -392.588 298.631 -411.101C271.824 -429.647 243.273 -445.578 213.589 -458.617C183.865 -471.684 152.973 -481.852 121.436 -488.934C89.8996 -496.017 57.7804 -500.059 25.6179 -500.98C-6.54454 -501.902 -38.7103 -499.675 -70.3482 -494.463C-79.7377 -492.918 -88.276 -499.426 -89.8299 -508.806C-91.3839 -518.186 -85.3976 -526.898 -75.9741 -528.449C-75.7364 -528.491 -75.5327 -528.527 -75.289 -528.535L-75.2611 -528.575Z" fill="url(#paint46_linear_49_3133)"/>
        <path d="M338.923 -543.702C373.337 -521.286 405.591 -495.63 435.047 -467.201C464.481 -438.735 491.081 -407.516 514.396 -374.089C537.711 -340.661 557.705 -305.046 574.125 -267.962C590.525 -230.842 603.315 -192.273 612.292 -152.898C621.268 -113.523 626.453 -73.3767 627.797 -33.2028C629.121 7.00684 626.569 47.2235 620.163 86.7453C613.758 126.267 603.536 165.114 589.71 202.505C575.843 239.966 558.394 275.935 537.8 309.9C556.924 275.087 572.702 238.537 584.783 200.856C596.9 163.197 605.299 124.443 609.88 85.3481C614.482 46.2175 615.265 6.74563 612.279 -32.3241C609.313 -71.4295 602.562 -110.189 592.202 -147.834C581.863 -185.514 567.9 -222.136 550.659 -256.974C533.403 -291.869 512.833 -325.001 489.287 -355.796C465.74 -386.59 439.309 -415.041 410.428 -440.66C381.546 -466.279 350.229 -489.008 317.093 -508.59C307.259 -514.402 304.431 -526.956 310.247 -536.768C316.063 -546.579 328.301 -549.969 338.17 -544.136C338.421 -543.991 338.636 -543.867 338.866 -543.687L338.923 -543.702Z" fill="url(#paint47_linear_49_3133)"/>
        <path d="M-232.437 -710.48C-186.593 -724.359 -139.468 -733.88 -91.9557 -738.821C-44.4273 -743.716 3.44235 -744.014 50.8282 -739.723C98.2141 -735.432 145.071 -726.536 190.565 -713.348C236.076 -700.114 280.179 -682.572 322.148 -661.022C364.117 -639.472 403.936 -613.959 440.903 -584.999C477.886 -555.993 511.972 -523.524 542.55 -488.138C573.128 -452.752 600.243 -414.466 623.354 -374.059C646.498 -333.562 665.623 -290.989 680.599 -247.114C663.763 -290.313 642.866 -331.832 618.188 -370.9C593.555 -409.985 565.159 -446.574 533.596 -480.011C502.018 -513.494 467.273 -543.826 430.065 -570.492C392.84 -597.203 353.088 -620.277 311.632 -639.293C270.16 -658.355 226.92 -673.389 182.822 -684.159C138.661 -694.958 93.596 -701.477 48.3934 -703.585C3.19084 -705.692 -42.0749 -703.467 -86.6409 -696.928C-131.207 -690.389 -175.011 -679.508 -217.361 -664.641C-229.93 -660.23 -243.285 -667.13 -247.711 -679.686C-252.136 -692.241 -246.004 -705.707 -233.389 -710.134C-233.072 -710.249 -232.8 -710.348 -232.466 -710.418L-232.437 -710.48Z" fill="url(#paint48_linear_49_3133)"/>
        <path d="M-828.328 -332.804C-805.899 -385.275 -778.498 -435.571 -746.608 -482.706C-714.665 -529.821 -678.252 -573.721 -638.01 -613.659C-597.768 -653.598 -553.716 -689.52 -506.78 -720.907C-459.79 -752.275 -409.936 -779.052 -358.048 -800.808C-306.16 -822.565 -252.294 -839.319 -197.457 -850.827C-142.567 -862.315 -86.7263 -868.503 -30.905 -869.253C24.9163 -870.002 80.7379 -865.369 135.433 -855.455C190.236 -845.503 243.858 -830.29 295.492 -810.294C243.051 -828.075 189.035 -840.861 134.365 -848.319C79.7147 -855.83 24.4642 -857.993 -30.3283 -854.85C-85.175 -851.727 -139.564 -843.299 -192.485 -829.81C-245.461 -816.341 -297.044 -797.778 -346.22 -774.546C-395.449 -751.334 -442.346 -723.42 -485.999 -691.451C-529.726 -659.448 -570.229 -623.336 -606.8 -583.715C-643.37 -544.094 -676.023 -501.09 -704.192 -455.417C-732.361 -409.743 -755.972 -361.434 -774.819 -311.393C-780.414 -296.542 -796.965 -289.652 -811.849 -295.246C-826.732 -300.841 -834.357 -316.766 -828.742 -331.67C-828.604 -332.048 -828.486 -332.372 -828.294 -332.731L-828.328 -332.804Z" fill="url(#paint49_linear_49_3133)"/>
        <path d="M198.274 -940.043C258.299 -926.064 316.947 -906.413 373.075 -881.417C429.192 -856.361 482.729 -825.972 532.773 -790.787C582.816 -755.602 629.304 -715.634 671.509 -671.764C713.704 -627.833 751.556 -580.012 784.448 -529.102C817.34 -478.192 845.285 -424.253 867.83 -368.308C890.365 -312.303 907.441 -254.303 918.729 -195.31C930.017 -136.317 935.579 -76.3199 935.314 -16.5325C935.027 43.377 928.923 103.016 917.358 161.441C926.416 102.574 929.865 42.9703 927.523 -16.3331C925.241 -75.6258 917.158 -134.557 903.518 -192.014C889.889 -249.533 870.703 -305.577 846.41 -359.124C822.128 -412.731 792.689 -463.914 758.737 -511.677C724.796 -559.5 686.291 -603.976 644.084 -644.259C601.826 -684.615 555.804 -720.789 506.788 -752.144C457.772 -783.498 405.895 -810.072 352.02 -831.398C298.145 -852.724 242.324 -868.731 185.555 -879.368C168.708 -882.527 158.268 -898.776 161.422 -915.585C164.576 -932.394 180.081 -943.439 196.989 -940.27C197.418 -940.194 197.785 -940.13 198.202 -939.993L198.274 -940.043Z" fill="url(#paint50_linear_49_3133)"/>
        <path d="M-60.5749 -1119.56C11.246 -1121.89 83.2297 -1117.41 153.993 -1106.14C224.763 -1094.8 294.24 -1076.67 361.233 -1052.08C428.226 -1027.49 492.662 -996.431 553.456 -959.682C614.256 -922.861 671.342 -880.344 723.778 -832.848C776.214 -785.351 823.993 -732.948 866.301 -676.656C908.614 -620.291 945.383 -560.031 975.936 -496.907C1006.49 -433.783 1030.9 -367.8 1048.68 -300.296C1066.47 -232.649 1077.64 -163.553 1082.28 -94.1797C1074.68 -163.295 1060.54 -231.551 1039.97 -297.723C1019.46 -363.9 992.54 -427.921 959.804 -488.605C927.061 -549.36 888.507 -606.778 844.958 -659.84C801.402 -712.974 752.772 -761.819 700.095 -805.446C647.412 -849.145 590.603 -887.692 530.891 -920.397C471.101 -953.167 408.337 -980.087 343.659 -1000.67C278.981 -1021.25 212.527 -1035.58 145.411 -1043.39C78.2952 -1051.19 10.5953 -1052.42 -56.547 -1047.3C-76.4734 -1045.78 -93.1433 -1060.96 -94.6756 -1080.86C-96.208 -1100.77 -82.0881 -1117.9 -62.0896 -1119.43C-61.5847 -1119.47 -61.1519 -1119.51 -60.6407 -1119.48L-60.5749 -1119.56Z" fill="url(#paint51_linear_49_3133)"/>
        <path d="M-440.784 -1203.34C-363.075 -1229.85 -282.909 -1248.98 -201.806 -1260.28C-120.673 -1271.51 -38.6793 -1274.88 42.7605 -1270.36C124.2 -1265.84 205.009 -1253.4 283.741 -1233.52C362.505 -1213.57 439.114 -1186.15 512.307 -1151.74C585.501 -1117.32 655.248 -1075.99 720.315 -1028.59C785.413 -981.101 845.755 -927.509 900.262 -868.711C954.768 -809.913 1003.52 -745.94 1045.53 -678.093C1087.61 -610.094 1122.92 -538.298 1151.21 -464.024C1119.78 -537.029 1081.49 -606.913 1036.87 -672.372C992.328 -737.863 941.486 -798.852 885.409 -854.253C829.302 -909.731 767.96 -959.621 702.616 -1003.08C637.241 -1046.62 567.756 -1083.78 495.593 -1113.88C423.399 -1144.06 348.42 -1167.24 272.224 -1183.05C195.92 -1198.92 118.322 -1207.39 40.754 -1208.3C-36.8145 -1209.21 -114.232 -1202.69 -190.191 -1188.83C-266.151 -1174.96 -340.546 -1153.7 -412.21 -1125.7C-433.479 -1117.39 -456.773 -1128.42 -465.107 -1149.66C-473.442 -1170.91 -463.741 -1194.35 -442.396 -1202.69C-441.859 -1202.9 -441.398 -1203.09 -440.83 -1203.23L-440.784 -1203.34Z" fill="url(#paint52_linear_49_3133)"/>
        <path d="M-1424 -47.8519C-1419.07 -138.79 -1405.5 -229.175 -1383.47 -317.262C-1361.35 -405.35 -1330.77 -491.048 -1292.28 -572.89C-1253.8 -654.731 -1207.41 -732.624 -1154.22 -805.284C-1100.93 -877.944 -1040.84 -945.279 -974.955 -1006.19C-909.072 -1067.1 -837.487 -1121.58 -761.58 -1168.72C-685.581 -1215.86 -605.259 -1255.57 -521.993 -1287.11C-438.727 -1318.65 -352.517 -1342.11 -265.109 -1357.03C-177.517 -1371.96 -88.8185 -1378.35 -0.485226 -1376.49C-88.8172 -1374.59 -176.779 -1364.35 -262.807 -1345.75C-348.835 -1327.24 -432.838 -1300.38 -513.253 -1265.82C-593.761 -1231.25 -670.681 -1188.97 -742.635 -1139.9C-814.681 -1090.83 -881.853 -1034.88 -942.864 -973.233C-1003.97 -911.588 -1059 -844.159 -1106.96 -772.415C-1155.01 -700.58 -1195.97 -624.337 -1229.13 -544.971C-1262.28 -465.605 -1287.71 -383.3 -1304.96 -299.432C-1322.22 -215.564 -1331.19 -130.225 -1332.08 -44.883C-1332.35 -19.5558 -1353.39 -0.200569 -1378.76 -0.484789C-1404.13 -0.76901 -1424.27 -20.5058 -1424 -45.9248C-1424 -46.5672 -1424 -47.1178 -1423.91 -47.7601L-1424 -47.8519Z" fill="url(#paint53_linear_49_3133)"/>
        <path d="M-1316.11 -818.493C-1261.9 -901.47 -1199.84 -979.232 -1131.06 -1050.24C-1062.2 -1121.19 -986.662 -1185.3 -905.773 -1241.49C-824.883 -1297.67 -738.692 -1345.84 -648.938 -1385.39C-559.097 -1424.89 -465.743 -1455.67 -370.43 -1477.26C-275.117 -1498.85 -177.931 -1511.29 -80.6707 -1514.46C16.6758 -1517.59 114.046 -1511.36 209.74 -1495.84C305.434 -1480.32 399.503 -1455.6 490.049 -1422.18C580.769 -1388.67 667.879 -1346.52 750.145 -1296.78C665.83 -1342.97 577.313 -1381.1 486.067 -1410.3C394.871 -1439.6 301.033 -1459.92 206.375 -1471.04C111.631 -1482.21 16.067 -1484.16 -78.5169 -1477.03C-173.187 -1469.94 -267.015 -1453.72 -358.135 -1428.79C-449.343 -1403.91 -537.981 -1370.29 -622.296 -1328.77C-706.749 -1287.2 -786.928 -1237.64 -861.443 -1180.89C-935.957 -1124.14 -1004.79 -1060.43 -1066.77 -990.805C-1128.74 -921.179 -1183.72 -845.674 -1231.07 -765.773C-1245.12 -742.062 -1275.51 -735.26 -1299.28 -749.306C-1323.04 -763.353 -1331.27 -792.88 -1317.16 -816.677C-1316.81 -817.283 -1316.51 -817.801 -1316.08 -818.357L-1316.11 -818.493Z" fill="url(#paint54_linear_49_3133)"/>
        <path d="M-531.285 -1623.95C-426.499 -1655.68 -318.783 -1677.44 -210.185 -1688.73C-101.549 -1699.92 7.86776 -1700.6 116.178 -1690.8C224.489 -1680.99 331.59 -1660.65 435.577 -1630.51C539.602 -1600.26 640.409 -1560.16 736.339 -1510.91C832.268 -1461.65 923.282 -1403.34 1007.78 -1337.14C1092.31 -1270.84 1170.22 -1196.63 1240.11 -1115.74C1310.01 -1034.86 1371.98 -947.352 1424.81 -854.993C1477.71 -762.428 1521.42 -665.117 1555.65 -564.832C1517.17 -663.574 1469.41 -758.474 1413 -847.772C1356.7 -937.109 1291.79 -1020.74 1219.65 -1097.17C1147.47 -1173.7 1068.05 -1243.03 983.004 -1303.98C897.918 -1365.04 807.059 -1417.78 712.302 -1461.24C617.508 -1504.81 518.675 -1539.18 417.878 -1563.79C316.939 -1588.48 213.933 -1603.38 110.613 -1608.19C7.29287 -1613.01 -96.1717 -1607.92 -198.037 -1592.98C-299.902 -1578.03 -400.025 -1553.16 -496.825 -1519.18C-525.554 -1509.1 -556.081 -1524.87 -566.197 -1553.57C-576.312 -1582.27 -562.294 -1613.04 -533.462 -1623.16C-532.736 -1623.43 -532.114 -1623.65 -531.35 -1623.81L-531.285 -1623.95Z" fill="url(#paint55_linear_49_3133)"/>
        <path d="M0.000305176 2066C1142.88 2066 2069.37 1141.02 2069.37 0.000244141C2069.37 -1141.02 1142.88 -2066 0.000305176 -2066C-1142.88 -2066 -2069.36 -1141.02 -2069.36 0.000244141C-2069.36 1141.02 -1142.88 2066 0.000305176 2066Z" fill="url(#paint56_radial_49_3133)" fill-opacity="0.1"/>
    </g>
    <defs>
        <radialGradient id="paint0_radial_49_3133" cx="0" cy="0" r="1" gradientUnits="userSpaceOnUse" gradientTransform="translate(0.000305176 0.000244141) scale(2069.36 2066)">
            <stop stop-color="#000008"/>
            <stop offset="1" stop-color="#0F06FA"/>
        </radialGradient>
        <radialGradient id="paint1_radial_49_3133" cx="0" cy="0" r="1" gradientUnits="userSpaceOnUse" gradientTransform="translate(0.000244141 0.000244141) scale(1379.58 1377.33)">
            <stop stop-color="#000008"/>
            <stop offset="1" stop-color="#0F06FA"/>
        </radialGradient>
        <radialGradient id="paint2_radial_49_3133" cx="0" cy="0" r="1" gradientUnits="userSpaceOnUse" gradientTransform="translate(0.000244141 0.000366211) scale(1241.62 1239.6)">
            <stop stop-color="#000008"/>
            <stop offset="1" stop-color="#0F06FA"/>
        </radialGradient>
        <radialGradient id="paint3_radial_49_3133" cx="0" cy="0" r="1" gradientUnits="userSpaceOnUse" gradientTransform="translate(0.00012207 0.000366211) scale(1172.64 1170.73)">
            <stop stop-color="#000008"/>
            <stop offset="1" stop-color="#0F06FA"/>
        </radialGradient>
        <radialGradient id="paint4_radial_49_3133" cx="0" cy="0" r="1" gradientUnits="userSpaceOnUse" gradientTransform="translate(0.00012207 0.000244141) scale(1138.84 1136.99)">
            <stop stop-color="#000008"/>
            <stop offset="1" stop-color="#0F06FA"/>
        </radialGradient>
        <radialGradient id="paint5_radial_49_3133" cx="0" cy="0" r="1" gradientUnits="userSpaceOnUse" gradientTransform="translate(0.00012207 0.000244141) scale(1000.19 998.567)">
            <stop stop-color="#000008"/>
            <stop offset="1" stop-color="#0F06FA"/>
        </radialGradient>
        <radialGradient id="paint6_radial_49_3133" cx="0" cy="0" r="1" gradientUnits="userSpaceOnUse" gradientTransform="translate(0.000244141 0.000244141) scale(862.235 860.833)">
            <stop stop-color="#000008"/>
            <stop offset="1" stop-color="#0F06FA"/>
        </radialGradient>
        <radialGradient id="paint7_radial_49_3133" cx="0" cy="0" r="1" gradientUnits="userSpaceOnUse" gradientTransform="translate(0.00012207 0.000244141) scale(810.501 809.183)">
            <stop stop-color="#000008"/>
            <stop offset="1" stop-color="#0F06FA"/>
        </radialGradient>
        <radialGradient id="paint8_radial_49_3133" cx="0" cy="0" r="1" gradientUnits="userSpaceOnUse" gradientTransform="translate(0.00012207 0.000244141) scale(620.809 619.8)">
            <stop stop-color="#000008"/>
            <stop offset="1" stop-color="#0F06FA"/>
        </radialGradient>
        <radialGradient id="paint9_radial_49_3133" cx="0" cy="0" r="1" gradientUnits="userSpaceOnUse" gradientTransform="translate(0.000183105 0.000244141) scale(517.341 516.5)">
            <stop stop-color="#000008"/>
            <stop offset="1" stop-color="#0F06FA"/>
        </radialGradient>
        <radialGradient id="paint10_radial_49_3133" cx="0" cy="0" r="1" gradientUnits="userSpaceOnUse" gradientTransform="translate(9.15527e-05 0.000335693) scale(344.894 344.333)">
            <stop stop-color="#000008"/>
            <stop offset="1" stop-color="#0F06FA"/>
        </radialGradient>
        <radialGradient id="paint11_radial_49_3133" cx="0" cy="0" r="1" gradientUnits="userSpaceOnUse" gradientTransform="translate(0.000183105 0.000335693) scale(262.12 261.693)">
            <stop stop-color="#000008"/>
            <stop offset="1" stop-color="#0F06FA"/>
        </radialGradient>
        <radialGradient id="paint12_radial_49_3133" cx="0" cy="0" r="1" gradientUnits="userSpaceOnUse" gradientTransform="translate(0.000289917 0.000167847) scale(172.447 172.167)">
            <stop stop-color="#000008"/>
            <stop offset="1" stop-color="#0F06FA"/>
        </radialGradient>
        <linearGradient id="paint13_linear_49_3133" x1="-58.3239" y1="21.2117" x2="-14.565" y2="141.588" gradientUnits="userSpaceOnUse">
            <stop stop-color="#080381"/>
            <stop offset="1" stop-color="#0F06FA"/>
        </linearGradient>
        <linearGradient id="paint14_linear_49_3133" x1="-35.3667" y1="97.0921" x2="165.435" y2="170.325" gradientUnits="userSpaceOnUse">
            <stop stop-color="#080381"/>
            <stop offset="1" stop-color="#0F06FA"/>
        </linearGradient>
        <linearGradient id="paint15_linear_49_3133" x1="-99.0519" y1="83.0246" x2="72.3932" y2="287.668" gradientUnits="userSpaceOnUse">
            <stop stop-color="#080381"/>
            <stop offset="1" stop-color="#0F06FA"/>
        </linearGradient>
        <linearGradient id="paint16_linear_49_3133" x1="26.9155" y1="152.632" x2="342.854" y2="96.893" gradientUnits="userSpaceOnUse">
            <stop stop-color="#080381"/>
            <stop offset="1" stop-color="#0F06FA"/>
        </linearGradient>
        <linearGradient id="paint17_linear_49_3133" x1="70.7341" y1="194.184" x2="472.579" y2="47.7418" gradientUnits="userSpaceOnUse">
            <stop stop-color="#080381"/>
            <stop offset="1" stop-color="#0F06FA"/>
        </linearGradient>
        <linearGradient id="paint18_linear_49_3133" x1="-129.285" y1="223.702" x2="333.165" y2="491.176" gradientUnits="userSpaceOnUse">
            <stop stop-color="#080381"/>
            <stop offset="1" stop-color="#0F06FA"/>
        </linearGradient>
        <linearGradient id="paint19_linear_49_3133" x1="-291.62" y1="106.056" x2="-72.8255" y2="707.94" gradientUnits="userSpaceOnUse">
            <stop stop-color="#080381"/>
            <stop offset="1" stop-color="#0F06FA"/>
        </linearGradient>
        <linearGradient id="paint20_linear_49_3133" x1="-123.784" y1="339.822" x2="579.021" y2="596.136" gradientUnits="userSpaceOnUse">
            <stop stop-color="#080381"/>
            <stop offset="1" stop-color="#0F06FA"/>
        </linearGradient>
        <linearGradient id="paint21_linear_49_3133" x1="215.906" y1="373.582" x2="988.658" y2="-73.221" gradientUnits="userSpaceOnUse">
            <stop stop-color="#080381"/>
            <stop offset="1" stop-color="#0F06FA"/>
        </linearGradient>
        <linearGradient id="paint22_linear_49_3133" x1="-356.588" y1="298.888" x2="260.615" y2="1035.6" gradientUnits="userSpaceOnUse">
            <stop stop-color="#080381"/>
            <stop offset="1" stop-color="#0F06FA"/>
        </linearGradient>
        <linearGradient id="paint23_linear_49_3133" x1="-311.468" y1="444.351" x2="606.886" y2="1088.5" gradientUnits="userSpaceOnUse">
            <stop stop-color="#080381"/>
            <stop offset="1" stop-color="#0F06FA"/>
        </linearGradient>
        <linearGradient id="paint24_linear_49_3133" x1="-191.71" y1="589.597" x2="1027.76" y2="986.651" gradientUnits="userSpaceOnUse">
            <stop stop-color="#080381"/>
            <stop offset="1" stop-color="#0F06FA"/>
        </linearGradient>
        <linearGradient id="paint25_linear_49_3133" x1="528.146" y1="442.686" x2="1442.71" y2="-649.077" gradientUnits="userSpaceOnUse">
            <stop stop-color="#080381"/>
            <stop offset="1" stop-color="#0F06FA"/>
        </linearGradient>
        <linearGradient id="paint26_linear_49_3133" x1="256.411" y1="703.916" x2="1713.1" y2="173.063" gradientUnits="userSpaceOnUse">
            <stop stop-color="#080381"/>
            <stop offset="1" stop-color="#0F06FA"/>
        </linearGradient>
        <linearGradient id="paint27_linear_49_3133" x1="-282.935" y1="776.735" x2="1323.48" y2="1362.6" gradientUnits="userSpaceOnUse">
            <stop stop-color="#080381"/>
            <stop offset="1" stop-color="#0F06FA"/>
        </linearGradient>
        <linearGradient id="paint28_linear_49_3133" x1="-79.235" y1="-66.4263" x2="-216.465" y2="97.3948" gradientUnits="userSpaceOnUse">
            <stop stop-color="#080381"/>
            <stop offset="1" stop-color="#0F06FA"/>
        </linearGradient>
        <linearGradient id="paint29_linear_49_3133" x1="-44.1996" y1="-121.374" x2="-295.379" y2="-29.8505" gradientUnits="userSpaceOnUse">
            <stop stop-color="#080381"/>
            <stop offset="1" stop-color="#0F06FA"/>
        </linearGradient>
        <linearGradient id="paint30_linear_49_3133" x1="-152.796" y1="-26.9543" x2="-208.26" y2="288.564" gradientUnits="userSpaceOnUse">
            <stop stop-color="#080381"/>
            <stop offset="1" stop-color="#0F06FA"/>
        </linearGradient>
        <linearGradient id="paint31_linear_49_3133" x1="-206.861" y1="0.0725823" x2="-206.711" y2="426.9" gradientUnits="userSpaceOnUse">
            <stop stop-color="#080381"/>
            <stop offset="1" stop-color="#0F06FA"/>
        </linearGradient>
        <linearGradient id="paint32_linear_49_3133" x1="-166.205" y1="-197.897" x2="-575.323" y2="145.931" gradientUnits="userSpaceOnUse">
            <stop stop-color="#080381"/>
            <stop offset="1" stop-color="#0F06FA"/>
        </linearGradient>
        <linearGradient id="paint33_linear_49_3133" x1="-277.322" y1="-232.492" x2="-757.628" y2="340.882" gradientUnits="userSpaceOnUse">
            <stop stop-color="#080381"/>
            <stop offset="1" stop-color="#0F06FA"/>
        </linearGradient>
        <linearGradient id="paint34_linear_49_3133" x1="-425.282" y1="75.022" x2="-270.582" y2="952.534" gradientUnits="userSpaceOnUse">
            <stop stop-color="#080381"/>
            <stop offset="1" stop-color="#0F06FA"/>
        </linearGradient>
        <linearGradient id="paint35_linear_49_3133" x1="-159.118" y1="-436.947" x2="-1063.36" y2="-107.461" gradientUnits="userSpaceOnUse">
            <stop stop-color="#080381"/>
            <stop offset="1" stop-color="#0F06FA"/>
        </linearGradient>
        <linearGradient id="paint36_linear_49_3133" x1="-311.433" y1="-444.387" x2="-1230.41" y2="200.051" gradientUnits="userSpaceOnUse">
            <stop stop-color="#080381"/>
            <stop offset="1" stop-color="#0F06FA"/>
        </linearGradient>
        <linearGradient id="paint37_linear_49_3133" x1="-489.046" y1="-381.745" x2="-1277.58" y2="629.262" gradientUnits="userSpaceOnUse">
            <stop stop-color="#080381"/>
            <stop offset="1" stop-color="#0F06FA"/>
        </linearGradient>
        <linearGradient id="paint38_linear_49_3133" x1="-597.044" y1="344.427" x2="113.692" y2="1577.19" gradientUnits="userSpaceOnUse">
            <stop stop-color="#080381"/>
            <stop offset="1" stop-color="#0F06FA"/>
        </linearGradient>
        <linearGradient id="paint39_linear_49_3133" x1="-749.872" y1="0.263491" x2="-749.328" y2="1547.51" gradientUnits="userSpaceOnUse">
            <stop stop-color="#080381"/>
            <stop offset="1" stop-color="#0F06FA"/>
        </linearGradient>
        <linearGradient id="paint40_linear_49_3133" x1="-633.88" y1="-531.41" x2="-1731.72" y2="779.159" gradientUnits="userSpaceOnUse">
            <stop stop-color="#080381"/>
            <stop offset="1" stop-color="#0F06FA"/>
        </linearGradient>
        <linearGradient id="paint41_linear_49_3133" x1="53.7805" y1="30.9739" x2="117.763" y2="-80.0027" gradientUnits="userSpaceOnUse">
            <stop stop-color="#080381"/>
            <stop offset="1" stop-color="#0F06FA"/>
        </linearGradient>
        <linearGradient id="paint42_linear_49_3133" x1="97.2577" y1="-35.3019" x2="24.3398" y2="-236.071" gradientUnits="userSpaceOnUse">
            <stop stop-color="#080381"/>
            <stop offset="1" stop-color="#0F06FA"/>
        </linearGradient>
        <linearGradient id="paint43_linear_49_3133" x1="127.411" y1="22.3831" x2="173.728" y2="-240.345" gradientUnits="userSpaceOnUse">
            <stop stop-color="#080381"/>
            <stop offset="1" stop-color="#0F06FA"/>
        </linearGradient>
        <linearGradient id="paint44_linear_49_3133" x1="99.8018" y1="-118.659" x2="-145.669" y2="-324.956" gradientUnits="userSpaceOnUse">
            <stop stop-color="#080381"/>
            <stop offset="1" stop-color="#0F06FA"/>
        </linearGradient>
        <linearGradient id="paint45_linear_49_3133" x1="103.523" y1="-178.866" x2="-266.696" y2="-392.914" gradientUnits="userSpaceOnUse">
            <stop stop-color="#080381"/>
            <stop offset="1" stop-color="#0F06FA"/>
        </linearGradient>
        <linearGradient id="paint46_linear_49_3133" x1="254.822" y1="-44.7656" x2="162.382" y2="-570.629" gradientUnits="userSpaceOnUse">
            <stop stop-color="#080381"/>
            <stop offset="1" stop-color="#0F06FA"/>
        </linearGradient>
        <linearGradient id="paint47_linear_49_3133" x1="268.9" y1="154.869" x2="588.811" y2="-400.014" gradientUnits="userSpaceOnUse">
            <stop stop-color="#080381"/>
            <stop offset="1" stop-color="#0F06FA"/>
        </linearGradient>
        <linearGradient id="paint48_linear_49_3133" x1="340.401" y1="-123.557" x2="85.1885" y2="-826.25" gradientUnits="userSpaceOnUse">
            <stop stop-color="#080381"/>
            <stop offset="1" stop-color="#0F06FA"/>
        </linearGradient>
        <linearGradient id="paint49_linear_49_3133" x1="147.866" y1="-405.147" x2="-691.073" y2="-710.837" gradientUnits="userSpaceOnUse">
            <stop stop-color="#080381"/>
            <stop offset="1" stop-color="#0F06FA"/>
        </linearGradient>
        <linearGradient id="paint50_linear_49_3133" x1="458.679" y1="80.5784" x2="625.422" y2="-865.243" gradientUnits="userSpaceOnUse">
            <stop stop-color="#080381"/>
            <stop offset="1" stop-color="#0F06FA"/>
        </linearGradient>
        <linearGradient id="paint51_linear_49_3133" x1="541.324" y1="-47.0898" x2="444.092" y2="-1164.07" gradientUnits="userSpaceOnUse">
            <stop stop-color="#080381"/>
            <stop offset="1" stop-color="#0F06FA"/>
        </linearGradient>
        <linearGradient id="paint52_linear_49_3133" x1="575.777" y1="-232.012" x2="96.5093" y2="-1420.68" gradientUnits="userSpaceOnUse">
            <stop stop-color="#080381"/>
            <stop offset="1" stop-color="#0F06FA"/>
        </linearGradient>
        <linearGradient id="paint53_linear_49_3133" x1="-0.24237" y1="-688.244" x2="-1424.96" y2="-687.741" gradientUnits="userSpaceOnUse">
            <stop stop-color="#080381"/>
            <stop offset="1" stop-color="#0F06FA"/>
        </linearGradient>
        <linearGradient id="paint54_linear_49_3133" x1="375.269" y1="-648.391" x2="-966.774" y2="-1424.31" gradientUnits="userSpaceOnUse">
            <stop stop-color="#080381"/>
            <stop offset="1" stop-color="#0F06FA"/>
        </linearGradient>
        <linearGradient id="paint55_linear_49_3133" x1="778.06" y1="-282.416" x2="194.716" y2="-1888.57" gradientUnits="userSpaceOnUse">
            <stop stop-color="#080381"/>
            <stop offset="1" stop-color="#0F06FA"/>
        </linearGradient>
        <radialGradient id="paint56_radial_49_3133" cx="0" cy="0" r="1" gradientUnits="userSpaceOnUse" gradientTransform="translate(0.000305176 0.000244141) scale(2069.36 2066)">
            <stop stop-color="#000008"/>
            <stop offset="1" stop-color="#0F06FA"/>
        </radialGradient>
        <clipPath id="clip0_49_3133">
            <rect width="1379.58" height="1033" fill="white"/>
        </clipPath>
    </defs>
</svg>
