<svg width="89" height="125" viewBox="0 0 89 125" fill="none" xmlns="http://www.w3.org/2000/svg">
    <path d="M74.3513 81.0347C76.9489 77.8002 74.3513 75.058 74.3513 75.058C74.3513 75.058 28.2098 66.6055 18.7263 69.2659C11.1874 71.3806 12.4314 79.1436 15.392 81.729C5.8875 89.1431 2.71934 105.716 9.559 114.074C19.8806 120.387 32.0153 124.026 44.9998 124.026C57.9842 124.026 70.1194 120.387 80.441 114.074C89.7365 104.763 83.0688 87.4538 74.3508 81.0347H74.3513Z" fill="#41E5E5"/>
    <path d="M74.3513 81.0347C74.3513 81.0347 67.2934 86.5768 56.7949 91.4113C65.0788 90.6346 74.6223 85.4541 77.4269 83.8388C76.449 82.7649 75.416 81.8182 74.3513 81.0347Z" fill="#00A5AD"/>
    <path d="M74.822 75.705C74.573 75.2933 74.3513 75.058 74.3513 75.058C74.3513 75.058 28.2099 66.6055 18.7264 69.2659C18.0871 69.4452 17.5126 69.6659 16.9956 69.9198C18.4155 80.7974 39.7837 86.7643 50.1409 93.1367C59.8759 84.4289 72.4194 81.8133 74.8215 75.7045L74.822 75.705Z" fill="#00A5AD"/>
    <path d="M15.3921 81.729C15.1621 81.462 14.9326 81.2198 14.7041 80.9957C14.9195 81.2705 15.1499 81.5175 15.3921 81.729Z" fill="#00A5AD"/>
    <path d="M15.392 81.729C13.8469 82.934 12.4709 84.3826 11.2761 85.9974C21.1738 90.5031 42.4626 92.5466 42.4626 92.5466C36.5064 86.8092 21.1465 88.4015 15.392 81.729Z" fill="#00A5AD"/>
    <path d="M9.55894 114.074C15.3169 117.596 21.6396 120.284 28.3584 121.974L30.2202 105.852L19.0084 106.626C13.9267 111.087 8.89091 110.118 6.35083 107.061C6.90143 109.701 7.95488 112.114 9.55894 114.074Z" fill="#00A5AD"/>
    <path d="M84.8698 100.819C83.7803 112.595 76.3218 113.125 73.2842 104.452C69.6132 93.9719 60.8621 106.861 60.8621 106.861L61.9998 121.881C68.5856 120.186 74.786 117.533 80.4416 114.074C84.0259 110.484 85.2348 105.704 84.8698 100.819Z" fill="#00A5AD"/>
    <path d="M43.3591 92.2938C43.2885 105.852 42.4631 111.773 42.4631 111.773C40.687 112.159 39.3266 116.028 43.0331 116.75C45.9401 117.315 45.4124 113.615 45.4124 113.615C45.4124 113.615 45.3013 95.1574 43.3591 92.2938Z" fill="#00A5AD"/>
    <path d="M53.0294 92.2938C49.5874 95.6178 52.2649 112.868 52.2649 112.868C51.0706 113.689 50.537 117.116 53.6833 117.166C56.8183 117.217 56.2711 113.49 55.2951 112.993C52.5645 99.6855 56.5328 88.9107 53.0294 92.2938Z" fill="#00A5AD"/>
    <g opacity="0.6">
        <path d="M80.4416 114.074C89.737 104.763 83.0694 87.4538 74.3513 81.0347C76.9489 77.8002 74.3513 75.0579 74.3513 75.0579C74.3513 75.0579 74.1979 75.0297 73.9094 74.978C76.0694 82.8516 61.2694 86.7902 57.2559 91.1789C57.2559 91.1789 70.3909 84.5951 72.8481 82.5091C84.345 92.3337 85.4233 106.395 80.0742 114.294C80.1965 114.221 80.3198 114.148 80.4416 114.074V114.074Z" fill="white"/>
    </g>
    <g opacity="0.6">
        <path d="M73.4961 93.6766C79.3608 94.636 80.6559 97.9786 80.6559 97.9786C80.6559 97.9786 77.246 95.687 73.3894 96.72C71.148 97.3203 73.1989 94.3451 73.1989 94.3451" fill="white"/>
    </g>
    <g opacity="0.6">
        <path d="M16.6683 79.1056C14.1223 75.4239 15.5539 72.224 16.4027 70.2404C11.5087 73.1518 12.7829 79.4506 15.3926 81.729C6.2336 88.8742 2.9602 104.523 8.85554 113.131C6.43192 99.8984 9.13133 88.9151 17.8518 83.1245C22.6567 86.3672 30.0055 87.6083 30.0055 87.6083C26.4548 84.2876 19.6893 83.4744 16.6683 79.1056Z" fill="white"/>
    </g>
    <g opacity="0.6">
        <path d="M9.23706 98.4537C9.23852 98.2539 14.595 93.469 18.2855 93.8715C21.976 94.274 23.2355 100.524 19.0144 98.0785C14.7938 95.6339 9.23365 98.9346 9.23657 98.4537H9.23706Z" fill="white"/>
    </g>
    <path d="M44.9998 125C32.2799 125 19.8485 121.509 9.05035 114.905C8.9568 114.848 8.87397 114.776 8.80478 114.692C5.72676 110.93 4.40678 105.499 5.08796 99.4019C5.87684 92.3425 9.1712 85.7869 13.9697 81.6374C12.5893 79.8983 11.6718 77.0859 12.3082 74.2666C12.9635 71.3664 15.1489 69.2576 18.4627 68.3279C28.052 65.6377 72.6333 73.753 74.5263 74.0995C74.7294 74.137 74.9161 74.2379 75.0583 74.3879C76.0616 75.4472 77.3363 78.0443 75.6781 80.831C81.1457 85.2748 85.2776 93.2999 85.8404 100.717C86.2707 106.388 84.6422 111.245 81.1301 114.763C81.0755 114.817 81.0146 114.865 80.9488 114.905C70.1507 121.51 57.7197 125 44.9989 125L44.9998 125ZM10.211 113.33C20.6695 119.69 32.6956 123.051 44.9998 123.051C57.3041 123.051 69.3637 119.681 79.8325 113.304C83.6736 109.395 84.1652 104.388 83.8977 100.865C83.3578 93.7511 79.0997 85.7416 73.7734 81.8196C73.56 81.6622 73.4192 81.4244 73.3851 81.1608C73.351 80.8972 73.4255 80.6317 73.5917 80.4246C75.264 78.3425 74.2938 76.585 73.827 75.953C69.5567 75.1836 27.7236 67.7544 18.99 70.2043C16.3602 70.942 14.7069 72.4954 14.2099 74.6959C13.654 77.157 14.7006 79.8316 16.0333 80.9952C16.2525 81.1867 16.3743 81.4654 16.3665 81.7563C16.3588 82.0472 16.2213 82.3191 15.9918 82.4979C11.2255 86.2161 7.78981 92.7761 7.02531 99.6182C6.41964 105.04 7.58029 110.026 10.2115 113.331L10.211 113.33Z" fill="#00005B"/>
    <path d="M42.463 92.5466C33.3732 86.6746 23.9847 87.9766 15.3923 81.7289L42.463 92.5466Z" fill="white"/>
    <path d="M42.3573 92.7103C39.061 91.1043 35.6823 89.9602 32.1604 89.0529C27.9895 87.9922 23.7182 87.1799 19.7319 85.3883C18.0022 84.597 16.3567 83.6361 14.8189 82.5169C14.3765 82.2118 14.2649 81.6057 14.5699 81.1633C14.8857 80.7018 15.523 80.6102 15.9654 80.9406C16.458 81.2617 16.9541 81.576 17.4408 81.9044C18.9557 82.8219 20.5534 83.5844 22.1975 84.2418C28.9406 86.8885 36.8186 87.578 42.5688 92.3829C42.6521 92.4521 42.6638 92.5758 42.5946 92.6592C42.5356 92.7303 42.4367 92.7493 42.3568 92.7103H42.3573Z" fill="#00005B"/>
    <path d="M56.7949 91.4118C63.0357 88.2422 71.8566 84.1867 74.3513 81.0352L56.7949 91.4118Z" fill="white"/>
    <path d="M56.7068 91.2379C61.0468 88.0843 66.489 85.7538 70.8763 82.6986C71.8781 81.996 72.8638 81.2554 73.6727 80.3398C74.5512 79.4525 75.9072 80.6712 75.1155 81.6398C73.9753 83.066 72.4307 84.1102 70.9114 85.0789C67.9518 86.8944 64.8548 88.3586 61.7017 89.7697C60.1298 90.4504 58.5384 91.0785 56.8832 91.5853C56.6863 91.6457 56.5221 91.3738 56.7068 91.2379Z" fill="#00005B"/>
    <path d="M18.6171 118.23C16.9667 118.23 15.3198 117.938 13.8039 117.338C13.4034 117.18 13.207 116.727 13.3659 116.327C13.5242 115.926 13.9774 115.729 14.3774 115.889C18.0489 117.34 22.5843 116.75 25.6638 114.418C28.0874 112.582 29.2539 109.927 28.9484 106.941C28.9046 106.513 29.2164 106.13 29.6447 106.086C30.074 106.046 30.456 106.354 30.4999 106.782C30.8634 110.331 29.48 113.484 26.6052 115.661C24.3823 117.344 21.4948 118.23 18.6171 118.23Z" fill="#00005B"/>
    <path d="M9.87727 97.5869C11.7625 95.4765 14.2373 93.8822 17.002 93.1898C17.2173 93.1484 17.7933 93.0363 18.0038 92.9993C18.2264 92.9715 18.8 92.9248 19.029 92.8994C20.3197 92.8151 20.5024 94.6857 19.2161 94.8499C18.9174 94.8602 18.4316 94.8095 18.1334 94.7978C17.9555 94.8031 17.4537 94.8192 17.268 94.8251L16.6896 94.8943C14.3103 95.2241 12.0183 96.337 10.1584 97.8573C9.98544 98.0225 9.71452 97.771 9.87727 97.5869Z" fill="#00005B"/>
    <path d="M71.5867 117.854C68.897 117.854 66.3589 117.115 64.3704 115.671C62.2576 114.138 59.8008 111.113 60.0966 105.411C60.1185 104.981 60.4796 104.648 60.9157 104.673C61.3454 104.695 61.6763 105.062 61.6539 105.492C61.4487 109.452 62.7049 112.535 65.2869 114.409C68.2319 116.547 72.6094 116.896 76.7112 115.321C77.1127 115.167 77.5639 115.367 77.7183 115.769C77.8728 116.171 77.672 116.622 77.2701 116.777C75.3907 117.498 73.4524 117.853 71.5867 117.853V117.854Z" fill="#00005B"/>
    <path d="M80.487 98.0765C79.0598 96.2142 76.8194 94.9093 74.4747 94.7525C73.9095 94.7003 73.3369 94.7169 72.7761 94.7953C72.7522 94.7997 72.1441 94.8767 72.13 94.8796C71.5935 94.9493 71.1019 94.5712 71.0317 94.0347C70.962 93.4982 71.3401 93.0066 71.8766 92.9364C71.9638 92.9228 72.607 92.9423 72.7103 92.9452C74.2788 92.9793 75.8707 93.4159 77.2209 94.2023C77.9922 94.6409 78.6885 95.1876 79.2908 95.8098C79.8959 96.433 80.4134 97.1127 80.8242 97.8816C80.8748 97.9767 80.8393 98.0946 80.7442 98.1448C80.6521 98.194 80.5415 98.1608 80.4865 98.0765H80.487Z" fill="#00005B"/>
    <path d="M19.7052 93.011C16.4625 92.6543 13.8728 96.9861 16.4543 102.997C19.1912 109.369 26.7135 110.669 29.3262 108.131C30.9561 106.547 31.1354 104.042 30.1058 101.919L19.7052 93.011Z" fill="white"/>
    <path d="M29.2404 101.664L27.5486 100.215C24.6002 100.23 22.0416 100.753 21.9335 102.501C21.8009 104.644 21.2313 105.734 20.3572 105.957C23.1808 108.253 26.9858 108.422 28.5875 106.866C29.9528 105.54 30.1028 103.442 29.2404 101.664V101.664Z" fill="#ACCFEA"/>
    <path d="M25.7141 110.13C25.1065 110.13 24.4711 110.066 23.8206 109.936C20.2354 109.221 17.2129 106.741 15.737 103.304C14.1943 99.7132 14.2504 96.2503 15.8861 94.041C16.8582 92.7279 18.2844 92.0696 19.79 92.2357C20.2178 92.283 20.5267 92.6679 20.48 93.0957C20.4332 93.5236 20.0483 93.8335 19.62 93.7857C18.6644 93.6824 17.7825 94.1005 17.1398 94.9688C16.1351 96.3263 15.6152 99.0671 17.1705 102.689C18.4442 105.654 21.0447 107.791 24.1266 108.407C26.0679 108.795 27.8527 108.475 28.7829 107.571C30.1033 106.288 30.347 104.203 29.4041 102.259C29.216 101.871 29.3778 101.405 29.7652 101.217C30.1521 101.029 30.6189 101.191 30.8069 101.578C32.03 104.099 31.6528 106.957 29.8695 108.689C28.9022 109.629 27.419 110.13 25.7146 110.13H25.7141Z" fill="#00005B"/>
    <path d="M20.3849 89.9256C20.3683 86.6454 18.6887 84.518 19.2072 82.9588C19.941 80.7515 25.8207 81.0098 26.1111 87.9766C27.36 87.8772 29.5868 88.1881 29.0269 91.2856C29.0269 91.2856 31.1167 91.7085 30.7435 94.5448C30.7435 94.5448 32.8831 95.6646 32.5103 98.078C32.5103 98.078 34.5475 99.0968 33.6549 101.251C32.809 103.291 28.3969 105.849 24.8633 105.151C22.1029 104.604 20.4175 101.884 19.3251 98.976C18.0124 95.4823 17.8633 92.0652 20.3844 89.9251L20.3849 89.9256Z" fill="#FFD4CC"/>
    <path d="M32.5105 98.0785C32.8837 95.6651 30.7437 94.5453 30.7437 94.5453C31.1169 91.709 29.0271 91.2861 29.0271 91.2861C29.587 88.1886 27.3602 87.8772 26.1113 87.9766C25.9481 84.0581 24.0161 82.2616 22.2264 81.8328C22.2488 81.8805 22.2756 81.9302 22.3078 81.9819C24.8625 86.0787 22.6893 87.7047 21.9428 89.9105C21.9428 89.9105 24.9176 88.4137 26.1113 89.2966C27.3738 90.2307 26.4943 92.2927 26.4943 92.2927C26.4943 92.2927 29.4569 92.6806 27.7037 96.6216C31.0926 96.7307 29.7765 100.046 29.7765 100.046C34.1029 100.206 27.8547 106.225 21.1111 102.477C22.0739 103.827 23.295 104.84 24.8635 105.151C28.3966 105.849 32.8087 103.291 33.6551 101.251C34.5477 99.0968 32.5105 98.078 32.5105 98.078V98.0785Z" fill="#EF998E"/>
    <g opacity="0.6">
        <path d="M23.8985 104.856C16.9609 93.7233 21.6064 91.5872 21.9431 89.911C22.2896 88.1861 19.1121 83.5016 21.1119 82.513C21.4754 82.3332 21.6196 82.0574 21.6279 81.7392C20.476 81.6535 19.482 82.1339 19.2077 82.9588C18.6892 84.518 20.3688 86.6454 20.3854 89.9257C17.8643 92.0657 18.0134 95.4824 19.3261 98.9765C20.285 101.529 21.701 103.936 23.899 104.856L23.8985 104.856Z" fill="white"/>
    </g>
    <path d="M26.0845 106.045C25.6167 106.045 25.1567 106.004 24.7123 105.916C22.1226 105.403 20.0644 103.161 18.5958 99.2503C17.0151 95.0433 17.3635 91.712 19.5971 89.5861C19.5376 88.2134 19.1741 87.0562 18.8501 86.0261C18.4632 84.7948 18.129 83.7311 18.4676 82.7133C18.8813 81.4683 20.3221 80.7598 21.9754 80.9927C24.0024 81.2778 26.4114 83.0792 26.8363 87.1936C27.5833 87.2438 28.4949 87.4728 29.1454 88.191C29.7184 88.824 29.9645 89.6932 29.8792 90.7803C30.7251 91.233 31.6519 92.2567 31.5622 94.1502C32.2366 94.6511 33.407 95.7966 33.3324 97.676C34.2066 98.3299 35.1553 99.6684 34.3757 101.549C33.4503 103.782 29.5547 106.044 26.0849 106.045H26.0845ZM21.3658 82.5086C20.6671 82.5086 20.0887 82.7795 19.9474 83.2049C19.7681 83.7443 20.0195 84.5449 20.3382 85.5588C20.7027 86.7185 21.1558 88.1618 21.1651 89.9218C21.1661 90.1522 21.0652 90.371 20.8898 90.5201C18.9237 92.189 18.643 94.942 20.0556 98.7022C21.322 102.073 22.9904 103.986 25.0154 104.386C28.1115 105.001 32.2147 102.691 32.9353 100.952C33.5108 99.5646 32.3876 98.8932 32.1567 98.7728C31.8604 98.6184 31.6894 98.2895 31.7406 97.9591C32.0251 96.1182 30.3996 95.2446 30.3831 95.2358C30.0931 95.0843 29.9289 94.768 29.9713 94.4435C30.2305 92.474 29.0918 92.1018 28.8613 92.0472C28.4452 91.9629 28.185 91.5643 28.2606 91.1467C28.4218 90.256 28.3307 89.6133 27.9896 89.2372C27.5111 88.7085 26.56 88.7236 26.1736 88.7533C25.9622 88.7713 25.7536 88.7007 25.5948 88.5599C25.4364 88.4196 25.3414 88.2203 25.3326 88.0088C25.1791 84.3232 23.3855 82.7654 21.7586 82.5364C21.6251 82.5174 21.4935 82.5086 21.3658 82.5086Z" fill="#00005B"/>
    <path d="M22.8374 89.34C23.7286 88.4648 24.7611 87.79 25.8813 87.2321C26.274 87.0308 26.7574 87.1911 26.9518 87.5873C27.1448 87.9795 26.983 88.4536 26.5908 88.6466C25.9705 88.8244 25.3141 88.8478 24.6831 89.0539C24.1345 89.2084 23.5732 89.4043 23.0635 89.6547C22.8691 89.7536 22.682 89.4915 22.8369 89.34H22.8374Z" fill="#00005B"/>
    <path d="M24.6362 93.1411C25.8948 92.075 27.2903 91.1882 28.8101 90.5367C29.77 90.1474 30.3781 91.5405 29.4372 91.9785C29.0133 92.1066 28.5665 92.1315 28.1328 92.2592C27.0092 92.5384 25.8978 92.9462 24.8589 93.4612C24.6577 93.5738 24.4603 93.2897 24.6362 93.1411Z" fill="#00005B"/>
    <path d="M26.2227 97.1293C27.4146 96.3984 28.603 95.6305 29.6228 94.6852C29.8543 94.4625 30.0082 94.2656 30.1734 94.002C30.7893 93.1703 32.0328 94.0425 31.4578 94.9054C31.2532 95.1598 30.9998 95.3688 30.7411 95.5525C29.4001 96.4252 27.877 96.9675 26.383 97.4845C26.1647 97.5585 26.0215 97.2428 26.2232 97.1288L26.2227 97.1293Z" fill="#00005B"/>
    <path d="M28.9957 100.212C30.0409 99.4906 31.241 98.7046 31.8857 97.6127C32.3554 96.6772 33.745 97.3306 33.3226 98.29C33.0526 98.7465 32.541 99.0559 32.1595 99.302C31.2108 99.8633 30.1905 100.242 29.1555 100.568C28.9387 100.637 28.8008 100.328 28.9957 100.212Z" fill="#00005B"/>
    <path d="M38.084 80.1888C44.7521 85.5467 49.8279 92.5466 49.8279 92.5466C49.8279 92.5466 57.283 84.2861 58.6151 80.1888H38.084Z" fill="#00A5AD"/>
    <path d="M43.4874 85.1447C48.3497 88.7358 54.1077 86.8072 56.7949 83.6722C64.0794 78.0492 57.1238 74.6657 55.2951 74.0021C38.2216 67.8036 34.8507 71.6798 43.4874 85.1452V85.1447Z" fill="#EF998E"/>
    <path d="M49.828 93.3263C49.8144 93.3263 49.8002 93.3263 49.7866 93.3253C49.5517 93.3126 49.3354 93.1947 49.197 93.0047C49.1468 92.9355 44.1013 86.0237 37.5959 80.7969C37.2601 80.5274 37.2066 80.0363 37.4765 79.7011C37.7459 79.3653 38.2366 79.3113 38.5723 79.5817C43.9463 83.8993 48.3409 89.3288 49.8748 91.3163C51.6791 89.2474 56.829 83.1625 57.8741 79.9486C58.0071 79.5388 58.4476 79.3147 58.8564 79.4482C59.2657 79.5812 59.4899 80.0212 59.3569 80.4305C57.9891 84.6375 50.7158 92.7274 50.4069 93.0695C50.2588 93.2337 50.0483 93.3268 49.828 93.3268V93.3263Z" fill="#00005B"/>
    <path d="M49.2643 87.8587C47.1676 87.8587 44.9979 87.2297 43.0235 85.7718C42.6776 85.516 42.604 85.0278 42.8598 84.6813C43.1156 84.3349 43.6034 84.2618 43.9503 84.5176C48.6363 87.9781 53.9362 85.8093 56.2029 83.165C56.4831 82.838 56.9752 82.7995 57.3022 83.0802C57.6291 83.3604 57.6671 83.8525 57.3869 84.1795C55.4866 86.397 52.4607 87.8587 49.2648 87.8587H49.2643Z" fill="#00005B"/>
    <path d="M44.155 90.0918C45.7425 89.4496 46.8091 92.1154 47.1409 95.9262C47.4596 99.5865 47.4693 107.857 46.4773 112.717C46.4773 112.717 48.2358 114.076 47.3524 115.993C46.5864 117.656 43.2097 117.685 42.9237 115.209C42.7176 113.425 44.287 112.593 44.287 112.593C44.287 112.593 44.6695 104.124 44.1219 98.7835C43.581 93.506 42.6786 90.6887 44.155 90.0918Z" fill="white"/>
    <path d="M42.9235 115.209C43.2095 117.685 46.5862 117.656 47.3522 115.993C47.4823 115.71 47.5539 115.44 47.5837 115.185C46.671 116.13 45.0996 116.216 44.6255 115.107C44.2162 114.149 45.3759 113.13 45.3759 113.13C46.3933 101.169 44.0652 91.1506 44.7814 90.0104C44.5826 89.9788 44.3741 90.0022 44.1548 90.0908C42.6784 90.6882 43.5808 93.5051 44.1217 98.7826C44.6689 104.124 44.2869 112.592 44.2869 112.592C44.2869 112.592 42.7169 113.424 42.9235 115.208V115.209Z" fill="#ACCFEA"/>
    <path d="M45.2352 117.946C45.0471 117.946 44.8571 117.932 44.667 117.902C43.2735 117.679 42.3087 116.682 42.1489 115.299C41.9559 113.631 42.9426 112.614 43.5239 112.169C43.5892 110.45 43.8153 103.44 43.3461 98.8629C43.2121 97.5532 43.0557 96.3984 42.9178 95.3805C42.4671 92.0525 42.1952 90.044 43.8626 89.3692C44.4639 89.126 45.0671 89.1723 45.607 89.5032C47.1413 90.4436 47.7105 93.4783 47.9175 95.859C48.2494 99.6684 48.2172 107.613 47.3255 112.439C48.0535 113.204 48.8287 114.651 48.0603 116.319C47.6023 117.314 46.467 117.947 45.2352 117.947V117.946ZM44.6169 90.7754C44.5691 90.7754 44.5145 90.7871 44.4473 90.8144C43.9025 91.0347 44.1622 92.9515 44.4629 95.1705C44.6027 96.2006 44.7606 97.3685 44.8975 98.7036C45.4447 104.041 45.0817 112.28 45.0656 112.628C45.0534 112.904 44.8961 113.152 44.6519 113.281C44.613 113.303 43.5571 113.903 43.6979 115.119C43.8051 116.048 44.5053 116.296 44.9131 116.361C45.6498 116.48 46.4105 116.174 46.6443 115.667C47.2607 114.328 46.0523 113.374 46.0007 113.334C45.7653 113.152 45.6537 112.852 45.7132 112.561C46.658 107.933 46.6979 99.8272 46.3642 95.9935C46.0976 92.9301 45.3823 91.1935 44.7918 90.8319C44.7353 90.7973 44.6821 90.7754 44.6164 90.7754H44.6169Z" fill="#00005B"/>
    <path d="M54.6216 90.4899C52.9225 90.4899 52.5151 94.0064 52.5151 97.2574C52.5151 105.12 54.1572 113.09 54.1572 113.09C54.1572 113.09 52.8012 114.811 53.8337 116.292C55.1074 118.117 58.2872 117.068 58.0636 114.65C57.9252 113.155 56.3221 112.547 56.3221 112.547C55.866 109.25 55.4348 103.581 55.617 96.4944C55.6984 93.3413 56.3469 90.4899 54.6216 90.4899Z" fill="white"/>
    <path d="M53.8337 116.292C55.0996 118.107 58.2487 117.08 58.0655 114.692C55.6 116.78 54.4666 114.531 55.3875 113.167C54.9397 111.662 52.5151 96.148 54.4047 90.641C54.4213 90.5932 54.433 90.5489 54.4457 90.504C52.8947 90.7403 52.5151 94.1219 52.5151 97.2574C52.5151 105.12 54.1572 113.09 54.1572 113.09C54.1572 113.09 52.8012 114.811 53.8337 116.292Z" fill="#ACCFEA"/>
    <path d="M55.6415 117.998C54.6694 117.998 53.7616 117.551 53.1945 116.738C52.1356 115.22 52.9133 113.593 53.3294 112.922C53.0244 111.334 51.7356 104.215 51.7356 97.2574C51.7356 92.1787 52.6799 89.7103 54.6216 89.7103C55.2921 89.7103 55.7072 90.0031 55.9372 90.2482C56.7242 91.0882 56.6233 92.6421 56.4951 94.6092C56.4547 95.2256 56.4133 95.8629 56.3967 96.5148C56.1965 104.293 56.7407 109.721 57.0399 112.033C57.6563 112.38 58.7102 113.174 58.8403 114.578C58.9743 116.025 58.1669 117.287 56.7841 117.793C56.4045 117.932 56.0186 117.999 55.642 117.999L55.6415 117.998ZM54.6216 91.2695C54.1626 91.2695 53.2948 92.5208 53.2948 97.2574C53.2948 104.952 54.9047 112.854 54.9208 112.933C54.9671 113.158 54.912 113.392 54.7698 113.573C54.7318 113.622 53.7894 114.865 54.4735 115.846C54.9374 116.511 55.7199 116.522 56.2481 116.328C56.8036 116.125 57.3683 115.596 57.2874 114.722C57.1963 113.741 56.0527 113.279 56.041 113.275C55.7789 113.171 55.5879 112.933 55.5494 112.654C55.2634 110.586 54.6211 104.869 54.8375 96.4749C54.855 95.7927 54.8979 95.1398 54.9388 94.5078C55.0212 93.2395 55.1245 91.6617 54.7995 91.3143C54.7868 91.3012 54.7576 91.2695 54.6216 91.2695Z" fill="#00005B"/>
    <path d="M71.058 92.8546C74.2091 92.5081 76.3516 96.8092 74.2169 102.557C71.8177 109.018 64.4099 110.106 61.6383 107.707C59.9134 106.214 59.9514 103.573 60.9523 101.51L71.058 92.8546Z" fill="white"/>
    <path d="M69.3585 100.701C70.0801 103.581 71.9711 103.389 71.9711 103.389C71.9711 103.389 69.682 107.594 64.806 107.394C60.8402 107.233 61.7334 102.799 61.7334 102.799L69.359 100.701H69.3585Z" fill="#ACCFEA"/>
    <path d="M65.3493 109.66C63.6712 109.66 62.1592 109.189 61.1282 108.297C59.0193 106.471 59.1679 103.402 60.2511 101.17C60.4392 100.782 60.905 100.62 61.2929 100.809C61.6803 100.997 61.842 101.463 61.6539 101.85C60.8578 103.492 60.6726 105.841 62.1485 107.118C63.2653 108.085 65.3264 108.366 67.4002 107.834C70.2278 107.109 72.4462 105.087 73.4861 102.286C74.8645 98.5745 74.29 95.8853 73.2926 94.6062C72.8955 94.0971 72.2021 93.5158 71.1433 93.6298C70.715 93.678 70.3301 93.3681 70.2833 92.9398C70.236 92.512 70.545 92.1271 70.9733 92.0798C72.3556 91.9278 73.6162 92.4847 74.5225 93.6473C76.125 95.7021 76.2883 99.2206 74.9483 102.829C73.7277 106.116 71.118 108.491 67.788 109.345C66.9602 109.557 66.1367 109.661 65.3498 109.661L65.3493 109.66Z" fill="#00005B"/>
    <path d="M70.4699 89.9256C70.4864 86.6454 72.166 84.518 71.6476 82.9588C70.9138 80.7515 65.034 81.0098 64.7436 87.9766C63.4948 87.8772 61.268 88.1881 61.8278 91.2856C61.8278 91.2856 59.738 91.7085 60.1112 94.5448C60.1112 94.5448 57.9717 95.6646 58.3444 98.078C58.3444 98.078 56.3072 99.0968 57.1999 101.251C58.0457 103.291 62.4579 105.849 65.9915 105.151C68.7518 104.604 70.4372 101.884 71.5297 98.976C72.8423 95.4823 72.9914 92.0652 70.4704 89.9251L70.4699 89.9256Z" fill="#FFD4CC"/>
    <path d="M58.3444 98.0785C57.9712 95.6651 60.1112 94.5453 60.1112 94.5453C59.738 91.709 61.8278 91.2861 61.8278 91.2861C61.268 88.1886 63.4948 87.8772 64.7436 87.9766C64.9068 84.0581 66.8388 82.2616 68.6285 81.8328C68.6061 81.8805 68.5793 81.9302 68.5471 81.9819C65.9924 86.0787 68.1656 87.7047 68.9121 89.9105C68.9121 89.9105 65.9374 88.4137 64.7436 89.2966C63.4811 90.2307 64.3606 92.2927 64.3606 92.2927C64.3606 92.2927 61.3981 92.6806 63.1512 96.6216C59.7623 96.7307 61.0784 100.046 61.0784 100.046C56.7521 100.206 63.0002 106.225 69.7438 102.477C68.781 103.827 67.56 104.84 65.9915 105.151C62.4584 105.849 58.0462 103.291 57.1999 101.251C56.3072 99.0968 58.3444 98.078 58.3444 98.078V98.0785Z" fill="#EF998E"/>
    <g opacity="0.6">
        <path d="M66.9568 104.856C73.8944 93.7233 69.2489 91.5872 68.9122 89.911C68.5657 88.1861 71.7431 83.5016 69.7434 82.513C69.3799 82.3332 69.2357 82.0574 69.2274 81.7392C70.3793 81.6535 71.3733 82.1339 71.6476 82.9588C72.1661 84.518 70.4865 86.6454 70.4699 89.9257C72.991 92.0657 72.8419 95.4824 71.5292 98.9765C70.5703 101.529 69.1543 103.936 66.9563 104.856L66.9568 104.856Z" fill="white"/>
    </g>
    <path d="M64.7709 106.045C61.3006 106.045 57.4055 103.782 56.4802 101.549C55.7001 99.6684 56.6493 98.3299 57.5234 97.676C57.4488 95.7966 58.6192 94.6511 59.2936 94.1502C59.204 92.2567 60.1307 91.233 60.9766 90.7803C60.8913 89.6932 61.1374 88.824 61.7104 88.191C62.3609 87.4723 63.2726 87.2433 64.0195 87.1936C64.4444 83.0792 66.8534 81.2778 68.8804 80.9927C70.5317 80.7618 71.9745 81.4683 72.3882 82.7132C72.7269 83.7311 72.3926 84.7948 72.0057 86.0261C71.6817 87.0562 71.3182 88.2134 71.2587 89.586C73.4923 91.7119 73.8407 95.0433 72.2601 99.2503C70.7915 103.161 68.7333 105.403 66.1435 105.916C65.6996 106.003 65.2391 106.045 64.7714 106.045H64.7709ZM64.3684 88.7416C63.9118 88.7416 63.2424 88.821 62.8657 89.2376C62.5251 89.6138 62.434 90.2565 62.5948 91.1472C62.6703 91.5648 62.3979 91.9658 61.9823 92.0501C61.763 92.1022 60.6248 92.4745 60.884 94.444C60.9264 94.7685 60.7622 95.0847 60.4723 95.2363C60.4099 95.2704 58.8341 96.1445 59.1148 97.9596C59.1664 98.2948 58.9964 98.6247 58.6933 98.7762C58.4682 98.8936 57.3446 99.5651 57.9205 100.953C58.6412 102.691 62.7454 104.999 65.8404 104.387C67.865 103.986 69.5338 102.073 70.7997 98.7026C72.2128 94.942 71.9321 92.189 69.966 90.5206C69.7906 90.3715 69.6898 90.1527 69.6907 89.9222C69.7 88.1623 70.1531 86.719 70.5176 85.5593C70.8363 84.5453 71.0877 83.7448 70.9084 83.2054C70.7413 82.703 69.9621 82.4155 69.0973 82.5369C67.4698 82.7659 65.6762 84.3236 65.5232 88.0093C65.5144 88.2212 65.4199 88.42 65.2611 88.5604C65.1027 88.7012 64.8961 88.7718 64.6822 88.7538C64.5999 88.7475 64.4922 88.7416 64.3689 88.7416H64.3684Z" fill="#00005B"/>
    <path d="M67.7801 89.6489C66.7632 89.1611 65.6245 88.8658 64.5135 88.7216C63.4805 88.5584 63.6705 87.0518 64.7128 87.1517C64.8063 87.1638 64.8936 87.1911 64.9735 87.2321C66.0937 87.79 67.1262 88.4648 68.0174 89.3399C68.1777 89.4988 67.973 89.7624 67.7801 89.6489Z" fill="#00005B"/>
    <path d="M65.9963 93.4612C64.6149 92.781 63.1205 92.2757 61.6012 92.033C60.5829 91.8308 60.8299 90.3423 61.8609 90.4826C63.0888 90.9236 64.2052 91.6359 65.2615 92.3853C65.5904 92.626 65.9067 92.8721 66.2185 93.1411C66.3004 93.2117 66.3096 93.3355 66.239 93.4173C66.1776 93.489 66.0752 93.5046 65.9963 93.4612Z" fill="#00005B"/>
    <path d="M64.4727 97.485C62.9792 96.968 61.4555 96.4257 60.1146 95.553C59.8875 95.3951 59.679 95.2173 59.4841 95.0087C58.7717 94.2584 59.8447 93.1844 60.5955 93.8992C60.7066 94.0108 60.7651 94.1356 60.8557 94.2676C61.0146 94.4757 61.2597 94.7174 61.458 94.8928C62.4267 95.7367 63.5269 96.4554 64.6325 97.1298C64.8327 97.2438 64.6914 97.561 64.4727 97.4855V97.485Z" fill="#00005B"/>
    <path d="M61.6996 100.567C60.2617 100.082 58.7892 99.6162 57.6739 98.4965C56.9737 97.7184 58.0881 96.662 58.8277 97.4051C59.0455 97.7033 59.1693 98.0039 59.4826 98.3084C60.1731 99.0393 61.0107 99.6518 61.8595 100.212C62.0548 100.328 61.9155 100.637 61.6996 100.568V100.567Z" fill="#00005B"/>
    <path d="M76.5667 54.3456C82.2729 48.2578 87.9953 53.5796 86.9838 60.2341C86.075 66.2099 79.2052 68.9755 76.6997 65.5423L76.5671 54.3456H76.5667Z" fill="#FFD4CC"/>
    <g opacity="0.6">
        <path d="M76.5667 54.3456L76.5788 55.3761C78.4051 54.1224 81.2473 52.7664 83.6163 54.2628C87.397 56.6503 84.5582 64.7944 84.4802 65.0156C85.7198 63.8486 86.6817 62.2202 86.9838 60.2341C87.9958 53.5796 82.2729 48.2578 76.5667 54.3456Z" fill="white"/>
    </g>
    <path d="M79.8361 68.0142C78.2194 68.0142 76.8132 67.351 75.9122 66.1163L77.4866 64.9678C78.4928 66.3468 80.2279 66.0983 80.9276 65.9267C83.0306 65.4127 85.5215 63.3662 86.0199 60.0874C86.4892 57.0006 85.311 54.0225 83.2182 53.0066C81.4187 52.1324 79.3084 52.8448 77.2775 55.0117L75.8557 53.679C78.4811 50.8777 81.4738 49.9939 84.0694 51.2529C86.9564 52.6543 88.5508 56.4076 87.9465 60.3803C87.3097 64.5678 84.1951 67.1342 81.39 67.8197C80.8574 67.9498 80.3361 68.0132 79.8352 68.0137L79.8361 68.0142Z" fill="#00005B"/>
    <path d="M77.0232 61.5775C78.4889 55.9998 82.3397 55.2616 83.6168 58.3928C84.9338 63.4685 78.0011 68.2281 77.0232 61.5775Z" fill="#EF998E"/>
    <path d="M76.0804 61.3299C76.5122 59.4939 77.3541 57.6906 78.9611 56.5197C80.2806 55.5286 82.3422 55.457 83.3162 56.9733C83.5077 57.2282 84.0847 58.4858 83.6135 58.5408C83.5443 58.5472 83.48 58.5184 83.4385 58.4692C82.0562 56.719 80.4892 57.0693 79.366 58.7167C78.7029 59.6518 78.3189 60.7301 77.9603 61.8425C77.5525 63.01 75.8417 62.5403 76.0809 61.3299H76.0804Z" fill="#00005B"/>
    <path d="M81.6405 62.9896C81.9251 61.902 81.6668 60.5674 80.6285 60.1245C79.6266 59.7269 78.6146 60.3988 77.875 61.1243C77.1241 61.8211 76.0711 60.7482 76.784 60.0105C77.8442 58.8912 79.7558 58.095 81.2253 58.997C82.709 59.8424 82.9195 61.9005 81.9947 63.1523C81.8719 63.3331 81.5825 63.1981 81.6405 62.99V62.9896Z" fill="#00005B"/>
    <path d="M10.2829 50.58C8.60774 44.6749 7.26388 42.5846 7.01538 40.3787C6.76639 38.1724 8.20136 35.4024 8.20136 35.4024C8.20136 35.4024 5.22129 32.8818 6.58415 27.1916C8.85673 17.7037 23.4867 0.0872989 47.7088 1.2153C72.7627 2.3818 75.3559 19.279 75.2068 23.3101C75.2068 23.3101 84.2303 22.3813 85.0928 33.0967C85.9128 43.2823 77.7444 55.9998 77.7444 55.9998C48.142 59.8681 15.1974 66.4023 10.2829 50.58Z" fill="#B7652E"/>
    <path d="M27.0364 33.4948L17.9539 31.8819C17.9539 31.8819 22.3796 22.547 35.1478 22.1153C40.5714 21.9321 45.5571 22.989 50.5909 23.3759C56.1973 23.8071 68.7379 22.7122 74.7 26.1274C74.0588 28.5812 72.1214 30.0109 72.1214 30.0109C72.1214 30.0109 44.3209 39.5655 43.8561 39.6318C43.3917 39.6981 31.3208 41.3567 31.3208 41.3567" fill="#893D09"/>
    <path d="M76.5005 26.5279C80.8132 25.4331 84.131 31.2719 82.0075 35.0871C81.2113 29.7127 76.5005 26.5279 76.5005 26.5279Z" fill="#E58645"/>
    <path d="M18.2497 38.438C16.7981 43.8939 10.9764 45.2523 8.66626 45.5788C9.14182 46.8856 9.69145 48.4941 10.2835 50.58C11.9304 55.8819 16.7275 58.6709 23.4887 59.894L27.0369 58.1199C27.0369 58.1199 20.0725 31.5872 18.2497 38.438Z" fill="#893D09"/>
    <path d="M7.42173 37.3509C7.13425 38.2704 6.9028 39.3818 7.01536 40.3787C7.08163 40.9683 7.22683 41.5496 7.43538 42.1977C13.5934 39.6449 15.9395 35.4024 15.9395 35.4024C15.9395 35.4024 11.773 34.5063 7.42173 37.3509Z" fill="#E58645"/>
    <path d="M77.7443 56.0002C77.7443 56.0002 84.0426 46.1927 85.022 36.9051C82.5935 38.5422 79.9979 40.6233 77.8798 35.437L72.8293 56.6595C74.4743 56.4344 76.1145 56.2132 77.7438 56.0002H77.7443Z" fill="#893D09"/>
    <path d="M62.6667 8.43112C65.216 9.92993 68.4066 15.2503 68.7199 17.5063C68.9606 19.2395 68.3632 19.9611 66.5969 19.8286C64.1523 19.6449 56.6222 18.5573 45.6896 17.7387C33.5052 16.8266 29.0098 18.7006 20.3029 24.6583C18.3105 26.0217 13.9194 26.6312 13.8711 23.8967C13.7844 18.9812 24.8149 9.57569 38.1347 6.93865C54.8267 3.63357 62.6677 8.43161 62.6677 8.43161L62.6667 8.43112Z" fill="#E58645"/>
    <g opacity="0.5">
        <path d="M85.0928 33.0967C84.2303 22.3813 75.2068 23.3101 75.2068 23.3101C75.3559 19.2795 72.7627 2.38229 47.7088 1.2153C23.4867 0.0873002 8.85673 17.7032 6.58415 27.1916C5.22129 32.8818 8.20136 35.4024 8.20136 35.4024C8.20136 35.4024 6.76639 38.1724 7.01538 40.3787C7.25559 42.5066 8.51418 44.5277 10.1061 49.967C10.1694 45.2932 8.49128 41.3143 10.0676 37.308C11.4631 33.7603 15.3694 31.59 15.3694 31.59C13.5344 30.675 9.29624 33.7851 9.29624 33.7851C7.20638 28.5851 10.5095 19.1518 20.7663 11.4999C33.3064 2.14451 48.965 1.74642 59.9127 5.99288C70.8604 10.2393 75.2063 18.533 74.0232 27.1916L75.2068 24.9024C75.2068 24.9024 78.601 25.0954 81.0549 27.7685C86.5857 33.7934 80.1749 51.6505 80.1676 51.6724C82.5035 47.0688 85.6141 39.5718 85.0928 33.0967Z" fill="white"/>
    </g>
    <path d="M77.7449 56.9743C77.7191 56.9743 77.6928 56.9733 77.6665 56.9714L10.205 51.5516C9.79909 51.5189 9.45654 51.2378 9.34545 50.846C8.53319 47.9834 7.81156 46.0602 7.23172 44.5146C6.62508 42.8984 6.18704 41.7299 6.04671 40.4879C5.84206 38.6709 6.60023 36.602 7.04169 35.5846C6.13636 34.4712 4.50502 31.6865 5.63643 26.965C6.66894 22.6528 10.6094 15.4798 18.3149 9.45486C24.143 4.89801 33.9817 -0.397518 47.7536 0.241766C58.7238 0.7529 66.7738 4.23534 71.6805 10.5936C75.3637 15.3663 76.0497 20.2189 76.1642 22.3239C77.5544 22.3818 80.0701 22.7624 82.2491 24.5755C84.4788 26.431 85.7623 29.2717 86.0644 33.0192C86.901 43.4139 78.9055 55.9969 78.5645 56.5275C78.3842 56.8081 78.0748 56.9753 77.7449 56.9753V56.9743ZM11.0328 49.663L77.2279 54.9809C78.68 52.5714 84.817 41.8093 84.1217 33.1756C83.8649 29.9811 82.8217 27.597 81.0208 26.0889C78.5235 23.9971 75.3359 24.2773 75.3037 24.2802C75.0245 24.306 74.7453 24.212 74.5402 24.0195C74.336 23.8266 74.223 23.5552 74.2332 23.2745C74.3146 21.0833 73.5428 16.1975 70.1378 11.7849C65.5971 5.90079 58.0358 2.6727 47.6635 2.18983C34.4875 1.57442 25.0839 6.63704 19.5155 10.9912C12.2057 16.7062 8.49129 23.4129 7.53187 27.4196C6.34004 32.3955 8.7354 34.5755 8.83821 34.6656C9.17394 34.9614 9.27285 35.4545 9.06674 35.8516C9.05456 35.876 7.77209 38.3907 7.98356 40.2701C8.09661 41.2724 8.47862 42.2898 9.0565 43.8305C9.57544 45.2133 10.2712 47.0683 11.0328 49.6635V49.663Z" fill="#00005B"/>
    <path d="M17.0841 53.8977C14.7618 47.9926 6.85361 46.0816 3.11731 51.9735C-2.05786 60.1346 6.79953 69.8218 15.174 65.2635C15.174 65.2635 21.1644 83.125 49.2305 83.125C77.2966 83.125 79.8177 66.5041 77.6285 62.7225C77.6285 62.7225 79.655 49.5982 79.1131 41.8887C78.5908 34.4576 75.9201 30.3436 71.9889 28.1544C66.2432 24.9541 58.0606 25.8862 54.1572 25.8984C43.4585 25.9315 38.7554 22.5144 29.1764 24.8532C21.888 26.6327 15.4864 34.5238 19.4726 44.0449C19.4726 44.0449 17.0841 46.699 17.0841 53.8977Z" fill="#FFD4CC"/>
    <g opacity="0.6">
        <path d="M3.1174 51.9736C0.443815 56.1898 1.51578 60.8134 4.33165 63.6697C1.92313 59.9359 2.71541 52.6913 7.92762 51.0449C13.1403 49.3984 17.283 56.6761 17.283 56.6761L17.0837 53.8977C14.7614 47.9927 6.85322 46.0816 3.11692 51.9736H3.1174Z" fill="white"/>
    </g>
    <path d="M52.5152 77.9825C27.6976 78.3718 17.0807 62.5919 17.0807 62.5919L15.1741 65.2636C15.1741 65.2636 21.1644 83.125 49.2305 83.125C69.3129 83.125 76.2734 74.9283 77.8799 68.7377C74.9213 72.2124 67.8244 77.7427 52.5147 77.983L52.5152 77.9825Z" fill="#EF998E"/>
    <path d="M56.5459 62.2494C55.9821 63.4247 50.1014 63.1698 49.2599 61.959C48.452 60.7964 51.2708 57.5771 53.4903 57.8158C55.3701 58.018 57.1096 61.0741 56.5459 62.2489V62.2494Z" fill="#EF998E"/>
    <path d="M49.231 84.0995C34.4261 84.0995 25.7227 79.1085 21.0294 74.9215C17.2683 71.5667 15.4162 68.2193 14.6683 66.5894C10.7439 68.2539 6.43506 67.3495 3.44329 64.1516C0.111901 60.5902 -0.338811 55.6051 2.29482 51.4517C4.09525 48.612 6.94717 47.158 10.127 47.4611C12.5024 47.6881 14.7038 48.8873 16.2777 50.7077C16.6938 46.9324 17.7843 44.8099 18.3685 43.9099C16.3586 38.687 17.4651 34.5258 18.7778 31.9248C20.7731 27.9717 24.5742 24.9741 28.9454 23.9065C34.853 22.4647 38.8972 23.1278 43.5798 23.8962C46.6583 24.4015 49.8411 24.9239 54.0008 24.9239C54.052 24.9239 54.1031 24.9239 54.1548 24.9239C54.7643 24.9219 55.4757 24.8971 56.2997 24.8688C60.7206 24.7148 67.4004 24.4829 72.4635 27.3032C77.0866 29.8778 79.5799 34.6266 80.0857 41.8205C80.5885 48.9769 78.9519 60.4631 78.64 62.5563C79.6447 64.7066 79.519 68.841 77.2844 72.7171C75.3856 76.0105 72.3475 78.6568 68.2546 80.5825C63.2923 82.9169 56.8922 84.1005 49.231 84.1005V84.0995ZM15.174 64.289C15.2949 64.289 15.4157 64.3114 15.5302 64.3568C15.7982 64.462 16.0063 64.6808 16.0979 64.9541C16.112 64.9951 17.6167 69.3029 22.4162 73.5474C26.8546 77.4723 35.1093 82.151 49.2305 82.151C66.9487 82.151 73.3537 75.6305 75.5951 71.7436C77.705 68.0843 77.5607 64.5512 76.785 63.2112C76.6734 63.0187 76.6315 62.7941 76.6651 62.5744C76.6851 62.4443 78.6683 49.4681 78.1406 41.9575C77.6845 35.4716 75.5172 31.2353 71.5143 29.0056C66.9253 26.45 60.571 26.6712 56.3669 26.8169C55.5264 26.8461 54.8004 26.8714 54.1601 26.8734C54.1085 26.8734 54.0563 26.8734 54.0052 26.8734C49.6812 26.8734 46.2738 26.3145 43.2635 25.8199C38.7915 25.0856 34.9295 24.4517 29.4074 25.8C25.5824 26.734 22.2593 29.3521 20.5173 32.8028C19.3464 35.1227 18.371 38.8907 20.3712 43.6687C20.5168 44.0161 20.4486 44.4167 20.1967 44.6968C20.1821 44.7139 18.0581 47.2544 18.0581 53.8977C18.0581 54.366 17.7248 54.768 17.2654 54.8552C16.8049 54.9429 16.3483 54.69 16.1768 54.2544C15.12 51.5672 12.6725 49.662 9.94089 49.4013C7.52116 49.1679 5.33337 50.2979 3.93981 52.4959C1.3359 56.602 2.81132 60.6239 4.8656 62.8204C6.85167 64.9434 10.6211 66.6327 14.7077 64.4079C14.8525 64.329 15.0128 64.2895 15.1736 64.2895L15.174 64.289Z" fill="#00005B"/>
    <path d="M5.60532 56.0002C7.8779 52.4423 12.4226 53.8149 12.6175 58.0696C12.7505 60.9795 11.0378 62.2747 11.0378 62.2747C7.71418 63.8836 3.71427 60.5995 5.60532 56.0002Z" fill="#EF998E"/>
    <path d="M5.44104 55.895C6.58659 52.7688 10.5977 52.2011 12.5911 54.8874C14.2283 57.1015 13.664 61.1077 11.1556 62.4297C10.9841 62.5217 10.7931 62.3083 10.9013 62.149C12.0639 60.3963 12.0892 57.7213 10.9588 56.0592C10.1606 54.7953 8.51126 54.3796 7.1674 55.0823C6.67429 55.3191 6.21383 55.6816 5.77043 56.1045C5.62912 56.2595 5.36162 56.0851 5.44202 55.8945L5.44104 55.895Z" fill="#00005B"/>
    <path d="M8.05428 61.653C6.803 60.3062 6.83711 58.0521 8.34517 56.8842C9.94582 55.55 12.521 56.0256 13.3196 58.0394C13.4833 58.4385 13.2923 58.8951 12.8928 59.0588C12.5317 59.2074 12.1283 59.0632 11.9294 58.746C11.602 58.2777 11.2249 57.9844 10.7556 57.8865C9.28802 57.5917 8.07572 58.9345 8.22921 60.4182C8.2448 60.7608 8.32227 61.1121 8.40072 61.48C8.45042 61.6754 8.17853 61.8074 8.05477 61.6525L8.05428 61.653Z" fill="#00005B"/>
    <path d="M8.20029 36.3774C8.05216 36.3774 7.9016 36.3433 7.76029 36.2716C7.28034 36.028 7.08837 35.4418 7.33199 34.9619C8.65247 32.357 14.3115 28.8302 19.9744 31.6612C20.4558 31.9019 20.6507 32.4871 20.4105 32.969C20.1693 33.4504 19.5851 33.6458 19.1027 33.4051C14.4728 31.0896 9.97196 34.0653 9.07005 35.8438C8.89804 36.1825 8.5555 36.3778 8.20029 36.3778V36.3774Z" fill="#00005B"/>
    <path d="M6.58519 27.9712C6.34205 27.9712 6.10329 27.8581 5.95078 27.6457C5.69984 27.2958 5.78024 26.8086 6.13009 26.5581C12.5653 21.9457 20.207 21.975 24.7151 26.6283C25.0148 26.9377 25.007 27.4308 24.6976 27.731C24.3887 28.0306 23.8951 28.0223 23.5949 27.7134C19.6379 23.6282 12.8294 23.6745 7.03834 27.8255C6.90093 27.9244 6.74209 27.9717 6.5847 27.9717L6.58519 27.9712Z" fill="#00005B"/>
    <path d="M30.7913 25.2835C30.4541 25.2835 30.1432 25.0632 30.0433 24.7236C28.8247 20.5751 26.0142 17.4976 22.3335 16.2809C18.8729 15.1373 15.2117 15.8316 12.025 18.2372C11.6815 18.4965 11.1928 18.4287 10.9331 18.0847C10.6733 17.7412 10.7416 17.252 11.0856 16.9928C14.6401 14.3089 18.9187 13.5098 22.8222 14.8001C26.9351 16.1596 30.1939 19.7044 31.5392 24.2831C31.6606 24.6963 31.4242 25.1295 31.011 25.2508C30.9375 25.2723 30.8634 25.2825 30.7908 25.2825L30.7913 25.2835Z" fill="#00005B"/>
    <path d="M40.2609 25.1499C39.896 25.1499 39.57 24.8922 39.4969 24.5209C38.3796 18.8341 34.8387 13.293 30.4763 10.404C27.8295 8.65185 25.0853 8.00721 22.5398 8.5427C22.1179 8.63187 21.7052 8.36144 21.6165 7.93996C21.5278 7.51849 21.7977 7.10529 22.2192 7.01661C25.1832 6.39438 28.3353 7.11601 31.3373 9.10403C36.0301 12.2113 39.8336 18.1446 41.0269 24.2198C41.1098 24.6422 40.8344 25.052 40.4125 25.1348C40.3618 25.1451 40.3111 25.1495 40.2609 25.1495V25.1499Z" fill="#00005B"/>
    <path d="M52.4834 26.6537C52.4307 26.6537 52.3771 26.6483 52.323 26.6371C51.9016 26.5489 51.6316 26.1362 51.7198 25.7142C52.7845 20.6204 51.3159 15.2289 47.6907 10.922C43.8043 6.30475 38.156 3.77296 32.2061 3.9815C31.771 3.99125 31.4148 3.65942 31.3997 3.22966C31.3846 2.79941 31.7217 2.43835 32.1515 2.42325C38.5911 2.20252 44.6862 4.93215 48.8835 9.91778C52.8196 14.594 54.4095 20.4674 53.2459 26.0334C53.1689 26.4008 52.8449 26.6532 52.4838 26.6532L52.4834 26.6537Z" fill="#00005B"/>
    <path d="M65.5708 26.908C65.4909 26.908 65.41 26.8958 65.3306 26.87C64.9208 26.7374 64.6962 26.2979 64.8287 25.8881C66.2393 21.5315 65.3086 16.7852 62.2087 12.5236C57.6796 6.29691 49.3816 2.11331 41.5601 2.11331C41.1294 2.11331 40.7805 1.76443 40.7805 1.33369C40.7805 0.902955 41.1294 0.554077 41.5601 0.554077C49.8562 0.554077 58.661 4.99593 63.4697 11.6066C66.8708 16.2823 67.8804 21.5247 66.3124 26.3681C66.2057 26.698 65.8997 26.908 65.5708 26.908Z" fill="#00005B"/>
    <path d="M72.9104 29.6946C72.6644 29.6946 72.4188 29.6025 72.2292 29.4169C71.8443 29.0407 71.8375 28.4233 72.2141 28.0389C73.9653 26.2492 74.2333 23.2608 74.2358 23.2311C74.2801 22.6956 74.7508 22.2912 75.2863 22.3399C75.8218 22.3833 76.2209 22.8515 76.1785 23.3875C76.1668 23.5381 75.8588 27.1 73.6072 29.4018C73.4162 29.5967 73.1633 29.6951 72.9104 29.6951V29.6946Z" fill="#00005B"/>
    <path d="M31.3592 37.9098C33.6138 32.9027 39.8755 32.033 43.1499 36.5606C43.7434 37.3943 42.8039 38.4867 41.8976 38.0418C41.024 37.6223 40.2015 37.2398 39.4248 37.0093C37.1201 36.2249 35.0307 37.2861 33.241 38.7776C33.0787 38.9204 32.8907 39.032 32.7133 39.126C31.9244 39.583 30.9923 38.7313 31.3592 37.9093V37.9098Z" fill="#00005B"/>
    <path d="M62.7489 37.1268C63.7473 34.0575 67.4563 32.4958 70.3443 34.1842C71.5225 34.8766 72.458 36.0889 72.6983 37.3714C72.863 38.1222 71.9635 38.704 71.349 38.2582C69.6748 37.058 67.9986 36.1254 66.0179 36.947C65.4011 37.1891 64.7399 37.615 64.0489 38.0993C63.3848 38.5734 62.4838 37.8874 62.7489 37.1263V37.1268Z" fill="#00005B"/>
    <path d="M53.9911 73.1722C47.3751 73.4636 44.26 68.8283 45.2789 66.927C46.3942 64.8455 49.0318 66.7862 53.6929 66.7365C57.9559 66.6912 60.5934 65.1773 61.6547 66.7697C62.7496 68.4122 60.0126 72.9072 53.9911 73.1722Z" fill="white"/>
    <path d="M53.3947 73.9655C49.0824 73.9655 46.269 71.9667 45.0499 70.0284C44.2664 68.7825 44.0949 67.4859 44.5919 66.5586C45.544 64.7816 47.284 65.1056 49.2978 65.4803C50.4809 65.7006 51.9504 65.9788 53.6846 65.9564C55.2404 65.9398 56.555 65.723 57.7147 65.5315C59.7534 65.1953 61.3648 64.9288 62.3032 66.3365C62.8319 67.1297 62.7905 68.2655 62.1882 69.4525C61.1976 71.4049 58.4651 73.755 54.0257 73.9509C53.8123 73.9601 53.6018 73.965 53.3952 73.965L53.3947 73.9655ZM47.016 66.7409C46.4473 66.7409 46.175 66.9051 45.9659 67.2954C45.7442 67.7091 45.9031 68.456 46.3699 69.1981C47.4141 70.8587 49.959 72.5724 53.957 72.3936C57.7254 72.2279 59.997 70.3256 60.7976 68.7479C61.1928 67.9688 61.1567 67.4284 61.0057 67.2023C60.6602 66.6834 59.8562 66.7589 57.9681 67.0708C56.8133 67.2613 55.3759 67.4986 53.7007 67.5166C51.8174 67.5327 50.2616 67.2467 49.0118 67.0142C48.0894 66.8422 47.4613 66.7414 47.0155 66.7414L47.016 66.7409Z" fill="#00005B"/>
    <path d="M55.5503 69.7882C55.5503 69.7882 58.6882 69.6304 61.8262 68.228L55.5503 69.7882Z" fill="white"/>
    <path d="M55.5405 69.5938C57.6191 69.2376 59.6656 68.5389 61.5079 67.5166C62.4254 67.0225 63.1768 68.3596 62.2724 68.8843C61.7014 69.1099 61.1025 69.2688 60.5144 69.415C58.8879 69.8043 57.2317 70.0036 55.5605 69.9831C55.3236 69.9787 55.3042 69.6216 55.541 69.5938H55.5405Z" fill="#00005B"/>
    <path d="M51.9056 69.9003C48.0032 69.7882 45.2034 68.5077 45.2034 68.5077L51.9056 69.9003Z" fill="white"/>
    <path d="M51.8997 70.0952C49.5311 70.2043 47.143 69.9597 44.8778 69.2167C43.9154 68.8468 44.4207 67.4201 45.403 67.7422C45.9044 67.9966 46.4609 68.2714 47.0042 68.4765C48.0454 68.8873 49.1286 69.2094 50.2303 69.4335C50.7858 69.5524 51.3491 69.6338 51.9167 69.7064C52.1482 69.7341 52.1355 70.0874 51.9001 70.0952H51.8997Z" fill="#00005B"/>
    <path d="M36.5535 65.0209C40.0075 65.0209 42.8075 61.6884 42.8075 57.5775C42.8075 53.4667 40.0075 50.1342 36.5535 50.1342C33.0996 50.1342 30.2996 53.4667 30.2996 57.5775C30.2996 61.6884 33.0996 65.0209 36.5535 65.0209Z" fill="#00005B"/>
    <path d="M65.3003 64.2349C68.3896 64.2349 70.894 61.2543 70.894 57.5775C70.894 53.9007 68.3896 50.9201 65.3003 50.9201C62.2109 50.9201 59.7065 53.9007 59.7065 57.5775C59.7065 61.2543 62.2109 64.2349 65.3003 64.2349Z" fill="#00005B"/>
    <path d="M63.2664 59.3073C64.3458 59.3073 65.2208 58.2235 65.2208 56.8866C65.2208 55.5497 64.3458 54.4659 63.2664 54.4659C62.187 54.4659 61.312 55.5497 61.312 56.8866C61.312 58.2235 62.187 59.3073 63.2664 59.3073Z" fill="white"/>
    <g opacity="0.4">
        <path d="M66.9204 61.7143C67.6255 61.7143 68.197 61.0339 68.197 60.1946C68.197 59.3552 67.6255 58.6748 66.9204 58.6748C66.2154 58.6748 65.6438 59.3552 65.6438 60.1946C65.6438 61.0339 66.2154 61.7143 66.9204 61.7143Z" fill="white"/>
    </g>
    <path d="M34.7054 58.9302C35.8986 58.9302 36.8659 57.7323 36.8659 56.2546C36.8659 54.777 35.8986 53.5791 34.7054 53.5791C33.5122 53.5791 32.5449 54.777 32.5449 56.2546C32.5449 57.7323 33.5122 58.9302 34.7054 58.9302Z" fill="white"/>
    <g opacity="0.4">
        <path d="M39.1443 61.1755C39.9236 61.1755 40.5554 60.4235 40.5554 59.4959C40.5554 58.5683 39.9236 57.8163 39.1443 57.8163C38.3649 57.8163 37.7332 58.5683 37.7332 59.4959C37.7332 60.4235 38.3649 61.1755 39.1443 61.1755Z" fill="white"/>
    </g>
    <g opacity="0.5">
        <path d="M49.554 49.0373C49.2962 48.4925 48.7729 47.8796 47.9411 47.2695L30.7048 67.0011C32.5754 67.309 34.5693 67.3392 36.4828 67.1828L49.7971 51.9409C49.876 50.6199 49.8044 49.5679 49.5535 49.0373H49.554Z" fill="white"/>
        <path d="M36.0936 43.9449C34.9271 43.8611 33.7937 43.849 32.7022 43.8952L20.6401 57.7032C21.4972 60.6794 23.1612 63.6585 26.0745 65.4092C26.3055 65.5481 26.5452 65.6772 26.7908 65.7985L44.4949 45.5315C42.4221 44.7942 39.6642 44.2012 36.0936 43.9449Z" fill="white"/>
    </g>
    <path d="M34.2284 68.4565C31.0958 68.4565 27.9398 67.8952 25.4719 66.412C18.6001 62.2815 17.9501 52.0106 19.1999 48.7216C20.6865 44.8123 28.1445 42.2035 36.1765 42.7785C45.1142 43.4202 49.4932 46.1742 50.6105 48.5374C51.8589 51.1764 49.772 62.4759 46.4576 65.3693C44.7683 66.8437 39.5337 68.456 34.2279 68.456L34.2284 68.4565ZM33.8839 45.0345C26.9195 45.0345 22.1429 47.5643 21.3867 49.5524C20.4877 51.918 20.9316 60.9537 26.6769 64.4069C32.3213 67.7992 42.9645 65.3147 44.9198 63.6073C47.5388 61.3211 49.2579 51.1471 48.4968 49.5372C47.8989 48.2738 44.5203 45.7225 36.0093 45.1115C35.2809 45.0593 34.5709 45.0345 33.8834 45.0345H33.8839Z" fill="#00005B"/>
    <g opacity="0.5">
        <path d="M72.5576 65.7688L82.0733 54.8756C82.3291 52.4106 82.2682 50.213 81.834 49.4519C81.7741 49.3472 81.7 49.2448 81.6182 49.144L67.0715 65.7965C68.8432 65.9939 70.7586 65.969 72.5576 65.7688Z" fill="white"/>
        <path d="M67.7507 45.8652L58.0679 56.9499C58.5546 60.1293 59.9453 63.2355 62.7158 64.6384C62.8986 64.7309 63.09 64.8172 63.2879 64.899L78.6219 47.345C76.3878 46.526 73.4872 46.0304 71.2585 45.9023C70.2737 45.8457 69.0473 45.8214 67.7507 45.8652Z" fill="white"/>
    </g>
    <path d="M49.6408 53.5791C51.9182 52.0106 55.6253 51.7246 57.8623 54.0293L57.9276 55.7625C57.9276 55.7625 54.721 54.0137 49.2603 55.8877" fill="#00005B"/>
    <path d="M20.3599 48.9764L14.6897 50.4826L16.5008 52.6889L19.8736 52.1305L20.3599 48.9764Z" fill="#00005B"/>
    <path d="M69.579 67.1059C66.6359 67.1059 64.0276 66.6123 62.1882 65.6811C59.539 64.3402 57.6942 61.4771 56.994 57.6189C56.2524 53.5338 56.9088 48.9867 58.488 47.2671C61.204 44.3109 69.6589 44.6388 71.3263 44.7343C74.6031 44.9224 81.2284 46.029 82.8499 48.8722C84.1992 51.2368 82.9211 61.1827 80.4507 64.078C78.6196 66.223 73.6875 66.8408 72.2194 66.9792C71.318 67.064 70.4341 67.1059 69.579 67.1059ZM60.2104 48.8497C59.3626 49.7726 58.6044 53.3963 59.2954 57.2014C59.6233 59.0086 60.573 62.242 63.2446 63.5947C67.7103 65.8551 76.9736 64.5492 78.6717 62.5597C80.7309 60.1468 81.5319 51.327 80.8181 50.0308C80.0745 48.7274 75.4865 47.3158 71.1923 47.0693C66.7811 46.8159 61.5918 47.3456 60.2104 48.8492V48.8497Z" fill="#00005B"/>
    <path d="M17.469 62.1339C17.2551 63.5376 16.7045 64.8757 15.8162 65.9968C15.4829 66.4417 14.8475 66.528 14.4085 66.1869C13.9739 65.8497 13.8945 65.2241 14.2316 64.7894C14.315 64.6817 14.4207 64.5935 14.5323 64.5307C15.0405 64.2573 15.518 63.8982 15.9356 63.4811C16.3736 63.0504 16.7785 62.5446 17.0972 62.0174C17.1956 61.8215 17.5026 61.919 17.469 62.1348V62.1339Z" fill="#00005B"/>
    <path d="M17.0884 56.6844C16.7902 55.7991 16.4813 54.8616 16.1168 54.0181C15.8898 53.5041 16.1222 52.9033 16.6363 52.6762C17.3364 52.3424 18.176 52.9803 18.0566 53.738C17.9158 54.7505 17.698 55.6865 17.4782 56.6674C17.4397 56.8642 17.142 56.8744 17.0889 56.6839L17.0884 56.6844Z" fill="#00005B"/>
</svg>
